<svg viewBox="0 0 18 18" class="" role="presentation" focusable="false" xmlns="http://www.w3.org/2000/svg" xmlns:xlink="http://www.w3.org/1999/xlink" id="FxSymbol0-0ca" data-type="1"><g><path d="M13.358 13.117a.236.236 0 0 1-.236.236H4.879a.237.237 0 0 1-.236-.237v-.577a.266.266 0 0 0-.266-.266h-.648a.266.266 0 0 0-.265.266v1.521a.472.472 0 0 0 .471.472h10.13a.472.472 0 0 0 .471-.472v-1.521a.266.266 0 0 0-.265-.266h-.648a.266.266 0 0 0-.265.266Zm.707-9.658H3.935a.471.471 0 0 0-.471.472v1.811a.266.266 0 0 0 .265.266h.648a.266.266 0 0 0 .266-.266v-.866a.237.237 0 0 1 .236-.237h8.243a.236.236 0 0 1 .236.235v.868a.266.266 0 0 0 .265.266h.648a.266.266 0 0 0 .265-.266V3.931a.471.471 0 0 0-.471-.472Z" fill="#b3b3b3"></path><path d="M16.184 15.924h.539a.253.253 0 0 1 .253.253v.539a.253.253 0 0 1-.253.253h-.539a.253.253 0 0 1-.253-.253v-.539a.253.253 0 0 1 .253-.253Zm-1.571 1.045h-.557a.253.253 0 0 1-.253-.253v-.539a.253.253 0 0 1 .253-.253h.558a.253.253 0 0 1 .253.254v.539a.254.254 0 0 1-.254.252Zm-2.131 0h-.557a.253.253 0 0 1-.253-.253v-.539a.253.253 0 0 1 .253-.253h.558a.253.253 0 0 1 .253.253v.539a.254.254 0 0 1-.254.253Zm-2.131 0h-.557a.253.253 0 0 1-.253-.253v-.539a.253.253 0 0 1 .253-.253h.559a.254.254 0 0 1 .253.254v.539a.252.252 0 0 1-.255.252Zm-2.131 0h-.557a.253.253 0 0 1-.253-.253v-.539a.253.253 0 0 1 .253-.253h.557a.253.253 0 0 1 .253.253v.539a.253.253 0 0 1-.253.253Zm-2.131 0h-.557a.253.253 0 0 1-.253-.253v-.539a.253.253 0 0 1 .253-.253h.559a.254.254 0 0 1 .253.254v.539a.252.252 0 0 1-.255.252Zm-2.131 0H3.4a.254.254 0 0 1-.254-.253v-.539a.254.254 0 0 1 .254-.253h.557a.252.252 0 0 1 .253.253v.539a.253.253 0 0 1-.252.253Zm-2.667-1.045h.539a.253.253 0 0 1 .253.253v.539a.253.253 0 0 1-.253.253h-.539a.253.253 0 0 1-.253-.253v-.539a.253.253 0 0 1 .253-.253Zm.539-1.066h-.539a.253.253 0 0 1-.253-.253v-.558a.253.253 0 0 1 .253-.253h.539a.253.253 0 0 1 .253.253v.558a.253.253 0 0 1-.253.253Zm0-2.13h-.539a.254.254 0 0 1-.253-.254v-.559a.253.253 0 0 1 .253-.253h.539a.253.253 0 0 1 .253.253v.559a.254.254 0 0 1-.253.254Zm0-6.393h-.539a.253.253 0 0 1-.253-.253v-.556a.253.253 0 0 1 .253-.253h.539a.253.253 0 0 1 .253.253v.556a.253.253 0 0 1-.253.253Zm0-2.131h-.539a.253.253 0 0 1-.253-.253V3.4a.253.253 0 0 1 .253-.253h.539a.253.253 0 0 1 .253.253v.556a.253.253 0 0 1-.253.244Zm-.539-3.172h.539a.253.253 0 0 1 .253.253v.539a.253.253 0 0 1-.253.253h-.539a.253.253 0 0 1-.253-.253v-.539a.253.253 0 0 1 .253-.253Zm6.93 1.045h-.558a.253.253 0 0 1-.253-.253v-.539a.253.253 0 0 1 .253-.253h.558a.254.254 0 0 1 .253.253v.539a.253.253 0 0 1-.253.253Zm-2.131 0h-.558a.253.253 0 0 1-.253-.253v-.539a.254.254 0 0 1 .253-.253h.559a.253.253 0 0 1 .253.254v.539a.252.252 0 0 1-.254.252Zm-2.131 0H3.4a.254.254 0 0 1-.254-.253v-.539a.254.254 0 0 1 .254-.253h.56a.254.254 0 0 1 .253.254v.539a.252.252 0 0 1-.254.252Zm12.763 12.781h-.535a.253.253 0 0 1-.253-.253v-.558a.253.253 0 0 1 .253-.253h.537a.254.254 0 0 1 .253.254v.558a.252.252 0 0 1-.255.252Zm0-2.13h-.535a.254.254 0 0 1-.253-.254v-.559a.253.253 0 0 1 .253-.253h.537a.254.254 0 0 1 .253.254v.559a.253.253 0 0 1-.255.253ZM9.542 1.284a.253.253 0 0 1 .258-.253h.558a.253.253 0 0 1 .253.253v.539a.253.253 0 0 1-.253.253H9.8a.253.253 0 0 1-.253-.253m2.131 0v-.539a.253.253 0 0 1 .253-.253h.556a.253.253 0 0 1 .253.253v.539a.253.253 0 0 1-.253.253h-.556a.253.253 0 0 1-.258-.253Zm2.131 0v-.539a.253.253 0 0 1 .253-.253h.556a.253.253 0 0 1 .253.253v.539a.253.253 0 0 1-.253.253h-.556a.253.253 0 0 1-.262-.253Zm3.172-.539v.539a.253.253 0 0 1-.253.253h-.539a.253.253 0 0 1-.253-.253v-.539a.253.253 0 0 1 .253-.253h.539a.253.253 0 0 1 .248.253Zm-1.045 4.8v-.558a.254.254 0 0 1 .253-.254h.539a.254.254 0 0 1 .253.254v.558a.253.253 0 0 1-.254.253h-.539a.252.252 0 0 1-.257-.254Zm0-2.131V3.4a.253.253 0 0 1 .253-.253h.539a.253.253 0 0 1 .253.253v.558a.253.253 0 0 1-.253.253h-.54a.252.252 0 0 1-.257-.259Z" fill="#773adc"></path><path d="M7.666 8.412v1.169a.266.266 0 0 1-.266.266H3.209a.12.12 0 0 0-.12.12v1.385a.122.122 0 0 1-.119.121.128.128 0 0 1-.086-.036L.535 9.082a.121.121 0 0 1 0-.171L2.886 6.56a.122.122 0 0 1 .169 0 .124.124 0 0 1 .036.086v1.38a.12.12 0 0 0 .119.121H7.4a.266.266 0 0 1 .266.265Z" fill="url(#af39d756-aac5-4378-bac7-d16e09962962)"></path><path d="m17.465 9.082-2.351 2.351a.128.128 0 0 1-.086.036.122.122 0 0 1-.119-.121v-1.38a.12.12 0 0 0-.12-.12h-4.2a.266.266 0 0 1-.266-.266v-1.17a.266.266 0 0 1 .266-.266h4.2a.12.12 0 0 0 .119-.121v-1.38a.124.124 0 0 1 .036-.086.122.122 0 0 1 .169 0l2.348 2.35a.121.121 0 0 1 .004.173Z" fill="url(#af39d756-aac5-4378-bac7-d16e09962963)"></path></g><defs>
<linearGradient id="af39d756-aac5-4378-bac7-d16e09962962" x1="4.083" y1="6.442" x2="4.083" y2="11.247" gradientUnits="userSpaceOnUse"><stop offset=".15" stop-color="#a67af4"></stop><stop offset=".999" stop-color="#773adc"></stop></linearGradient>
<linearGradient id="af39d756-aac5-4378-bac7-d16e09962963" x1="13.912" y1="6.442" x2="13.912" y2="11.247" gradientUnits="userSpaceOnUse"><stop offset=".15" stop-color="#a67af4"></stop><stop offset=".999" stop-color="#773adc"></stop></linearGradient>
</defs>
</svg>