<svg viewBox="0 0 18 18" class="" role="presentation" focusable="false" xmlns="http://www.w3.org/2000/svg" xmlns:xlink="http://www.w3.org/1999/xlink" id="FxSymbol0-0ce" data-type="1"><g><path d="M3.53 16.145A9 9 0 0 1 9.008 0a8.91 8.91 0 0 1 5.459 1.854A9 9 0 1 1 3.53 16.145Z" fill="url(#af39d756-aac5-4378-bac7-d16e09962967)"></path><path d="M13.048.927a8.892 8.892 0 0 0-1.387-.558 41.617 41.617 0 0 1-7.122 7.477c-.019.017-.027.034-.044.051a12.922 12.922 0 0 1-1.117-1.485.187.187 0 0 0-.332.032 37.6 37.6 0 0 0-1.419 4.38.192.192 0 0 0 .154.236 12.938 12.938 0 0 0 5.2-.336.188.188 0 0 0 .07-.326c-.34-.285-.96-.823-1.635-1.506A36.274 36.274 0 0 0 13.048.927Z" opacity=".7" class="msportalfx-svg-c01" fill="#ffffff"></path><path d="M15.173 5.485a15.227 15.227 0 0 1-1.438 1.3 15.539 15.539 0 0 0-10.3-4.9A8.464 8.464 0 0 0 1.8 3.545c.368.014.739.039 1.112.079a13.836 13.836 0 0 1 8.93 4.546q-.9.6-1.845 1.151a.187.187 0 0 0 .032.339 21.537 21.537 0 0 1 5.04 2.485.189.189 0 0 0 .294-.113 21.256 21.256 0 0 0 .132-6.44.187.187 0 0 0-.322-.107Z" class="msportalfx-svg-c01" fill="#ffffff"></path><path d="M12.579 13.051a.2.2 0 0 0-.145-.3c-1.6-.214-3.844-.732-4.667-.927a.159.159 0 0 0-.182.221c.2.44.588 1.257.82 1.635a22.458 22.458 0 0 1-6.868.348A9.236 9.236 0 0 0 2.875 15.6a25.715 25.715 0 0 0 6.191-.587 12.676 12.676 0 0 1 .641 1.7.192.192 0 0 0 .335.063 37.364 37.364 0 0 0 2.537-3.725Z" opacity=".7" class="msportalfx-svg-c01" fill="#ffffff"></path></g><defs>
<linearGradient id="af39d756-aac5-4378-bac7-d16e09962967" x1="9" y1="-.636" x2="9" y2="19.263" gradientUnits="userSpaceOnUse"><stop offset="0" stop-color="#86d633"></stop><stop offset=".125" stop-color="#81ce31"></stop><stop offset="1" stop-color="#5e9624"></stop></linearGradient>
</defs>
</svg>