<svg viewBox="0 0 18 18" class="" role="presentation" focusable="false" xmlns="http://www.w3.org/2000/svg" xmlns:xlink="http://www.w3.org/1999/xlink" id="FxSymbol0-0cd" data-type="1"><g><title></title><path d="M4.422 11.752h-1.33v-.417a1.368 1.368 0 0 1-.385.348 1.559 1.559 0 0 1-.775.191 1.836 1.836 0 0 1-1.249-.483A1.934 1.934 0 0 1 .03 9.867 1.93 1.93 0 0 1 .7 8.325a1.814 1.814 0 0 1 1.22-.458 1.712 1.712 0 0 1 .754.17 1.502 1.502 0 0 1 .418.32V5.661h1.33Zm-1.29-1.881a.822.822 0 0 0-.251-.607.832.832 0 0 0-.609-.25.819.819 0 0 0-.652.3.85.85 0 0 0 0 1.112.812.812 0 0 0 .652.3.834.834 0 0 0 .61-.247.824.824 0 0 0 .25-.608Zm6.279 1.881H8.08v-.417a1.368 1.368 0 0 1-.385.348 1.559 1.559 0 0 1-.775.191 1.835 1.835 0 0 1-1.25-.483 1.934 1.934 0 0 1-.652-1.524 1.93 1.93 0 0 1 .67-1.542 1.815 1.815 0 0 1 1.22-.458 1.712 1.712 0 0 1 .754.17 1.502 1.502 0 0 1 .418.32V7.99h1.33ZM8.12 9.871a.822.822 0 0 0-.251-.607.832.832 0 0 0-.608-.25.82.82 0 0 0-.653.3.85.85 0 0 0 0 1.112.812.812 0 0 0 .653.3.834.834 0 0 0 .61-.247.823.823 0 0 0 .25-.608Zm6.429.004a1.93 1.93 0 0 1-.67 1.54 1.815 1.815 0 0 1-1.22.459 1.713 1.713 0 0 1-.755-.17 1.502 1.502 0 0 1-.417-.32v2.25h-1.33V7.99h1.33v.418a1.246 1.246 0 0 1 .385-.35 1.559 1.559 0 0 1 .775-.19 1.835 1.835 0 0 1 1.249.483 1.934 1.934 0 0 1 .653 1.525Zm-1.383-.004a.852.852 0 0 0-.86-.856.833.833 0 0 0-.61.247.862.862 0 0 0 .002 1.215.832.832 0 0 0 .608.25.812.812 0 0 0 .653-.3.834.834 0 0 0 .207-.556Zm4.802-.653a1.304 1.304 0 0 0-.568-.134.81.81 0 0 0-.851.535 1.527 1.527 0 0 0-.073.523v1.61h-1.33V7.99h1.33v.616a1.45 1.45 0 0 1 .454-.474 1.5 1.5 0 0 1 .779-.195q.105 0 .26.012Z" fill="#0d2192" fill-rule="evenodd"></path><path fill="#0d2192" d="M10.148 11.78h1.339l.115 3.144-.785.55-.785-.55.116-3.144z"></path><rect x="7.145" y="2.293" width="5.081" height="3.576" rx=".099" fill="#0d2192"></rect><path opacity=".08" d="M7.145 2.293h1.88v3.576h-1.88z" class="msportalfx-svg-c01" fill="#ffffff"></path><rect x="5.54" y="5.638" width="8.224" height=".858" rx=".184" fill="#0d2192"></rect><path opacity=".08" d="M5.54 5.638h2.544v1.056H5.54z" class="msportalfx-svg-c01" fill="#ffffff"></path></g><defs>
</defs>
</svg>