<svg viewBox="0 0 18 18" class="" role="presentation" focusable="false" xmlns="http://www.w3.org/2000/svg" xmlns:xlink="http://www.w3.org/1999/xlink" id="FxSymbol0-0cf" data-type="1"><g><path d="m5.457 1.729-.342.476V2.18l-.399-.021a3.824 3.824 0 0 0-4.018 3.62L.554 8.544l-.508.706c-.117.163 0 .39.2.39h.876a4.78 4.78 0 0 0 4.78-4.78V1.873a.246.246 0 0 0-.446-.144Z" fill="#773adc"></path><path d="M14.864 9.195a4.78 4.78 0 0 1-2.767-4.336v-2.83L9 3.19 5.903 2.029v2.83a4.78 4.78 0 0 1-2.767 4.336l-.013.029 1.417 3.827v2.05A8.399 8.399 0 0 0 9 16.373a8.387 8.387 0 0 0 4.397-1.272V13.22l1.48-3.996-.013-.029ZM4.971 4.97l.145-2.79-.4-.021a3.824 3.824 0 0 0-4.018 3.62l-.145 2.79.4.021a3.824 3.824 0 0 0 4.018-3.62Z" fill="url(#af39d756-aac5-4378-bac7-d16e09962968)"></path><path d="M8.984 14.552a7.364 7.364 0 0 0 4.444-1.501v2.05a8.399 8.399 0 0 1-4.46 1.272L9 14.551" fill="#552f99"></path><path d="M9 14.552c-2.351.005-4.008-1.13-4.492-1.5v2.05a8.399 8.399 0 0 0 4.46 1.272L9 14.552Z" fill="#773adc"></path><path d="m12.543 1.729.342.476V2.18l.399-.021a3.824 3.824 0 0 1 4.018 3.62l.144 2.765.508.706c.117.163 0 .39-.2.39h-.876a4.78 4.78 0 0 1-4.78-4.78V1.873c0-.239.306-.338.446-.144Z" fill="#552f99"></path><path d="M17.302 5.779a3.824 3.824 0 0 0-4.018-3.62l-.4.021.145 2.79a3.824 3.824 0 0 0 4.018 3.62l.4-.021-.145-2.79Zm-5.204-.919V2.03L9.001 3.191v11.361a7.366 7.366 0 0 0 4.397-1.5v.169l1.48-3.996-.013-.029a4.78 4.78 0 0 1-2.767-4.336Z" fill="url(#af39d756-aac5-4378-bac7-d16e09962969)"></path><path fill="#552f99" d="M9 5.249v.577l3.097-1.161v-.577L9 5.249z"></path><path fill="#773adc" d="M9 5.249v.577L5.903 4.665v-.577L9 5.249z"></path></g><defs>
<linearGradient id="af39d756-aac5-4378-bac7-d16e09962968" x1="7.715" y1="16.374" x2="7.715" y2="2.029" gradientUnits="userSpaceOnUse"><stop offset="0" stop-color="#a67af4"></stop><stop offset=".999" stop-color="#b796f9"></stop></linearGradient>
<linearGradient id="af39d756-aac5-4378-bac7-d16e09962969" x1="13.223" y1="14.552" x2="13.223" y2="2.029" gradientUnits="userSpaceOnUse"><stop offset=".001" stop-color="#773adc"></stop><stop offset="1" stop-color="#a67af4"></stop></linearGradient>
</defs>
</svg>