<svg viewBox="0 0 30.213 33.074" class="" role="presentation" focusable="false" xmlns="http://www.w3.org/2000/svg" xmlns:xlink="http://www.w3.org/1999/xlink" id="FxSymbol0-0cc" data-type="1"><g><title></title><path opacity=".8" d="M5.213 5.074h2v2h-2zm4 0h2v2h-2zm4 0h2v2h-2zm4 0h2v2h-2zm-12 4h2v2h-2zm4 0h2v2h-2zm4 0h2v2h-2zm4 0h2v2h-2zm-12 4h2v2h-2zm4 0h2v2h-2zm4 0h2v2h-2zm4 0h2v2h-2zm-12 4h2v2h-2zm4 0h2v2h-2zm4 0h2v2h-2zm4 0h2v2h-2z" class="msportalfx-svg-c15" fill="#59b4d9"></path><path d="M22.308 2.231v24.538H2.231V2.231h20.077M24.538 0H0v29h24.538V0z" class="msportalfx-svg-c16" fill="#3999c6"></path><path d="M24.213 17.618c0-2.101-1.644-3.81-3.5-3.81s-3.5 1.709-3.5 3.81v2.456h7v-2.456z" class="msportalfx-svg-c01" fill="#ffffff"></path><path d="M17.213 17.624c0-2.096 1.644-3.801 3.5-3.801s3.5 1.705 3.5 3.801v2.45h3v-2.45c0-3.77-3.16-6.855-6.5-6.855s-6.5 3.085-6.5 6.855v2.45h3v-2.45zm13 4.534c0-1.151-.967-2.084-2.16-2.084h-14.68c-1.193 0-2.16.933-2.16 2.084v8.374c0 1.151.967 2.542 2.16 2.542h14.68c1.193 0 2.16-1.391 2.16-2.542v-8.374z" class="msportalfx-svg-c11" fill="#fcd116"></path><path d="M17.213 17.624c0-2.096 1.644-3.801 3.5-3.801s3.5 1.705 3.5 3.801v2.45h3v-2.45c0-3.77-3.16-6.855-6.5-6.855s-6.5 3.085-6.5 6.855v2.45h3v-2.45zm13 4.534c0-1.151-.967-2.084-2.16-2.084h-14.68c-1.193 0-2.16.933-2.16 2.084v8.374c0 1.151.967 2.542 2.16 2.542h14.68c1.193 0 2.16-1.391 2.16-2.542v-8.374z" opacity=".3" class="msportalfx-svg-c10" fill="#ff8c00"></path></g><defs>
</defs>
</svg>