<svg viewBox="0 0 18 18" class="" role="presentation" focusable="false" xmlns="http://www.w3.org/2000/svg" xmlns:xlink="http://www.w3.org/1999/xlink" id="FxSymbol0-097" data-type="237"><g><title>MsPortalFx.base.images-21</title><rect width="7.726" height="7.726" x="4.281" y="6.11" fill="url(#af39d756-aac5-4378-bac7-d16e099621e0)" rx=".303"></rect><path fill="#773adc" d="M16.894.66h-7.3a.3.3 0 0 0-.3.3v1.327a.3.3 0 0 0 .3.3h5.371a.605.605 0 0 1 .605.606v5.458a.3.3 0 0 0 .3.3h1.33a.3.3 0 0 0 .3-.3V1.266a.606.606 0 0 0-.606-.606z"></path><path fill="#b3b3b3" d="M14.333 10.223v4.806a.552.552 0 0 1-.552.552H2.81a.552.552 0 0 1-.552-.552V4.672a.552.552 0 0 1 .552-.552h5.5a.3.3 0 0 0 .3-.3V2.665a.3.3 0 0 0-.3-.3H1.052a.552.552 0 0 0-.552.549v13.874a.552.552 0 0 0 .552.552h14.487a.553.553 0 0 0 .553-.552v-6.565a.3.3 0 0 0-.3-.3h-1.156a.3.3 0 0 0-.303.3z"></path></g><defs>
<linearGradient id="af39d756-aac5-4378-bac7-d16e099621e0" x1="8.144" x2="8.144" y1="13.837" y2="6.11" gradientUnits="userSpaceOnUse"><stop offset="0" stop-color="#32bedd"></stop><stop offset=".175" stop-color="#32caea"></stop><stop offset=".41" stop-color="#32d2f2"></stop><stop offset=".775" stop-color="#32d4f5"></stop></linearGradient>
</defs>
</svg>