<svg viewBox="0 0 18 18" class="" role="presentation" focusable="false" xmlns="http://www.w3.org/2000/svg" xmlns:xlink="http://www.w3.org/1999/xlink" id="FxSymbol0-0dd" data-type="1"><g><path d="M6.6 12.2h4.8V17H6.6v-4.8ZM1 5.8h4.8V1H1.67C1.3 1 1 1.3 1 1.67V5.8ZM1.67 17H5.8v-4.8H1v4.13c0 .37.3.67.67.67ZM1 11.4h4.8V6.6H1v4.8ZM12.2 17h4.13c.37 0 .67-.3.67-.67V12.2h-4.8V17Zm-5.6-5.6h4.8V6.6H6.6v4.8Zm5.6 0H17V6.6h-4.8v4.8Zm0-10.4v4.8H17V1.67c0-.37-.3-.67-.67-.67H12.2ZM6.6 5.8h4.8V1H6.6v4.8Z" fill="url(#af39d756-aac5-4378-bac7-d16e099629d2)"></path></g><defs>
<linearGradient id="af39d756-aac5-4378-bac7-d16e099629d2" x1="5" y1="768.516" x2="5" y2="784.516" gradientTransform="matrix(1 0 0 -1 4 785.516)" gradientUnits="userSpaceOnUse"><stop offset=".001" stop-color="#773adc"></stop><stop offset=".505" stop-color="#8f5ae8"></stop><stop offset="1" stop-color="#b796f9"></stop></linearGradient>
</defs>
</svg>