<svg viewBox="0 0 18 18" class="" role="presentation" focusable="false" xmlns="http://www.w3.org/2000/svg" xmlns:xlink="http://www.w3.org/1999/xlink" id="FxSymbol0-0df" data-type="290"><g><title>MsPortalFx.base.images-1</title><path fill="url(#af39d756-aac5-4378-bac7-d16e099629d6)" d="M.544 5.316h16.912v9.918a.565.565 0 0 1-.565.565H1.109a.565.565 0 0 1-.565-.565V5.316z"></path><path fill="#0078d4" d="M1.112 2.2h15.776a.565.565 0 0 1 .565.565v2.55H.547V2.766a.565.565 0 0 1 .565-.566z"></path><path fill="#5ea0ef" d="M13.9 7.32H9.715a.224.224 0 0 1-.125-.038l-1.2-.795a.219.219 0 0 0-.124-.038H4.752a.224.224 0 0 0-.224.224v7.392a.223.223 0 0 0 .224.223H13.9a.224.224 0 0 0 .224-.223V7.544a.224.224 0 0 0-.224-.224z"></path><rect width="2.318" height=".464" x="5.154" y="6.905" rx=".098" class="msportalfx-svg-c01" fill="#ffffff"></rect><rect width=".464" height=".464" x="5.154" y="6.905" fill="#0078d4" rx=".067"></rect><path d="M13.9 7.309H9.3a.225.225 0 0 0-.159.066l-.739.739a.225.225 0 0 1-.159.066H4.752a.224.224 0 0 0-.224.224v5.65a.223.223 0 0 0 .224.223H13.9a.224.224 0 0 0 .224-.223V7.533a.224.224 0 0 0-.224-.224z" opacity=".9" class="msportalfx-svg-c01" fill="#ffffff"></path></g><defs>
<linearGradient id="af39d756-aac5-4378-bac7-d16e099629d6" x1="9" x2="9" y1="15.799" y2="5.316" gradientUnits="userSpaceOnUse"><stop offset="0" stop-color="#32bedd"></stop><stop offset=".775" stop-color="#32d4f5"></stop></linearGradient>
</defs>
</svg>