<svg xmlns:xlink="http://www.w3.org/1999/xlink" aria-hidden="false" aria-labelledby="svg-title-AzureStackEdge-64712cc6-c4d0-4573-9276-d1ee1abcc525" id="svg-AzureStackEdge-64712cc6-c4d0-4573-9276-d1ee1abcc525" viewBox="0 0 18 18" xmlns="http://www.w3.org/2000/svg" data-slug-id="azure-stack-edge" role="img" width="256"  height="256" ><title id="svg-title-AzureStackEdge-64712cc6-c4d0-4573-9276-d1ee1abcc525">Azure Stack Edge</title><defs><linearGradient id="svg-gradient1-AzureStackEdge-64712cc6-c4d0-4573-9276-d1ee1abcc525" x1="9.59" y1="17.96" x2="9.59" y2="-0.17" gradientUnits="userSpaceOnUse"><stop offset="0" stop-color="#0078d4"></stop><stop offset="0.82" stop-color="#5ea0ef"></stop></linearGradient></defs><path d="M18,10.73A3.77,3.77,0,0,0,14.72,7.1a4.75,4.75,0,0,0-4.9-4.55A4.89,4.89,0,0,0,5.13,5.73a4.48,4.48,0,0,0-3.94,4.34,4.57,4.57,0,0,0,4.73,4.39l.42,0H14l.21,0A3.81,3.81,0,0,0,18,10.73Z" fill="url(&quot;#svg-gradient2-AzureStackEdge-64712cc6-c4d0-4573-9276-d1ee1abcc525&quot;)"></path><path d="M0,11.66a3.76,3.76,0,0,1,3.8-3.8,3.77,3.77,0,0,1,3.8,3.8v3.79H3.8A3.76,3.76,0,0,1,0,11.66Z" fill="#50E6FF" fill-rule="evenodd"></path><path d="M6.17,11.91v-.56l0,0-.57-.2-.14-.38.28-.59,0-.06-.18-.18L5.35,9.7l-.08,0L4.71,10l-.38-.11-.25-.63H3.53l0,0-.19.57L2.92,10l-.65-.31-.39.39,0,.07.29.56L2,11.13l-.67.25v.56l.08,0,.59.2.16.38-.3.65.39.4.08,0,.55-.28.39.16.24.67h.56l0-.08.19-.6.38-.16.66.31.39-.39,0-.08-.28-.56.11-.39Zm-2.35.52a.79.79,0,0,1,0-1.57.78.78,0,0,1,.79.78h0A.78.78,0,0,1,3.82,12.43Z" fill="#FFFFFF"></path></svg>