<svg xmlns:xlink="http://www.w3.org/1999/xlink" aria-hidden="false" aria-labelledby="svg-title-DataboxCustom-3cb5364a-87c8-4cfd-b8b1-02e3c93fcd9b" id="svg-DataboxCustom-3cb5364a-87c8-4cfd-b8b1-02e3c93fcd9b" viewBox="0 0 18 18" xmlns="http://www.w3.org/2000/svg" data-slug-id="databox" role="img" width="256"  height="256" ><title id="svg-title-DataboxCustom-3cb5364a-87c8-4cfd-b8b1-02e3c93fcd9b">Azure Data Box</title><defs><linearGradient id="svg-gradient1-DataboxCustom-3cb5364a-87c8-4cfd-b8b1-02e3c93fcd9b" x1="8.95" y1="12.85" x2="8.95" y2="0.72" gradientUnits="userSpaceOnUse"><stop offset="0" stop-color="#0078d4"></stop><stop offset="0.82" stop-color="#5ea0ef"></stop></linearGradient><linearGradient id="svg-gradient1-DataboxCustom-3cb5364a-87c8-4cfd-b8b1-02e3c93fcd9b" x1="8.95" y1="12.85" x2="8.95" y2="0.72" gradientUnits="userSpaceOnUse"><stop offset="0" stop-color="#0078d4"></stop><stop offset="0.82" stop-color="#5ea0ef"></stop></linearGradient></defs><path d="M17.51,9.05a3.85,3.85,0,0,0-3.34-3.7,4.84,4.84,0,0,0-5-4.63A5,5,0,0,0,4.42,4a4.58,4.58,0,0,0-4,4.42,4.66,4.66,0,0,0,4.82,4.47h8.23l.21,0A3.9,3.9,0,0,0,17.51,9.05Z" fill="url(&quot;#svg-gradient1-DataboxCustom-3cb5364a-87c8-4cfd-b8b1-02e3c93fcd9b&quot;)"></path><path d="M9.4,8.26a4.51,4.51,0,1,0-4.51,4.59H9.4V8.26Z" fill="#50E6FF"></path><path d="M11.61,14.91,9.48,17.05a.12.12,0,0,1-.16,0L7.19,14.91a.1.1,0,0,1,.08-.18H8.52a.11.11,0,0,0,.11-.11V11.86a.11.11,0,0,1,.11-.11h1.32a.11.11,0,0,1,.11.11v2.76a.11.11,0,0,0,.11.11h1.25A.1.1,0,0,1,11.61,14.91Z" fill="#0078D4"></path><path d="M7.19,9.66,9.4,7.45l2.21,2.21a.11.11,0,0,1-.08.19H10.28a.11.11,0,0,0-.11.11v2.86H8.63V10a.11.11,0,0,0-.11-.11H7.27A.11.11,0,0,1,7.19,9.66Z" fill="#FFFFFF"></path></svg>