<svg xmlns:xlink="http://www.w3.org/1999/xlink" aria-hidden="false" aria-labelledby="svg-title-ConfidentialLedger-69f824b3-f7cf-4677-bd17-878049e26d8f" id="svg-ConfidentialLedger-69f824b3-f7cf-4677-bd17-878049e26d8f" viewBox="0 0 16 16.1" xmlns="http://www.w3.org/2000/svg" data-slug-id="confidential-ledger" role="img" width="256"  height="257.6" ><title id="svg-title-ConfidentialLedger-69f824b3-f7cf-4677-bd17-878049e26d8f">Azure confidential ledger</title><svg aria-hidden="true" role="presentation" data-slug-id="confidential-ledger" viewBox="0 0 48 48" xmlns="http://www.w3.org/2000/svg"><path d="M34.2667 6.01867L24 12.0453L13.7333 6.01867L24 0L34.2667 6.01867ZM16.4 27.5947L14.4533 26.448L10.2773 24L0 29.9947L10.2667 36.0213L20.5333 29.9947L16.4 27.5947ZM37.7333 23.9947L33.5467 26.448L31.6 27.5947L27.4667 29.9947L35.76 34.8747L37.7333 36.0213L38.6933 35.4613L48 29.9947L37.7333 23.9947Z" fill="#B796F9"></path><path d="M24 12.048V24L19.84 21.5733L17.8933 20.4267L13.7333 18V6.02133L23.04 11.488L24 12.048ZM0 30.008V41.9813L10.2773 48V36.0347L0 30.008ZM35.7707 34.8747V34.848L27.4773 29.9947V41.9947L37.744 48V36.0267L35.7707 34.8747Z" fill="#A67AF4"></path><path d="M32.216 35.9733C32.6297 36.242 32.9676 36.6122 33.1974 37.0488C33.4271 37.4853 33.5409 37.9735 33.528 38.4667C33.5309 38.6532 33.4651 38.8342 33.3431 38.9753C33.2212 39.1165 33.0516 39.2078 32.8667 39.232H32.8027C32.9867 40.048 33.168 40.856 33.352 41.664C33.4053 41.912 33.4613 42.16 33.5173 42.4053C33.576 42.6933 33.424 42.8453 33.2 42.7147L32.8293 42.504L32.4613 42.2907C32.0311 42.04 31.6018 41.7929 31.1733 41.5493C31.0615 41.4744 30.9726 41.3699 30.9166 41.2475C30.8606 41.1251 30.8396 40.9896 30.856 40.856C31.096 40.1173 31.3227 39.3707 31.5547 38.6267C31.5787 38.5547 31.5733 38.512 31.504 38.4187C31.0593 37.9018 30.8319 37.2328 30.8693 36.552C30.9307 35.9733 31.2347 35.712 31.7333 35.7893C31.9039 35.8214 32.0674 35.8837 32.216 35.9733V35.9733Z" fill="url(&quot;#confidential-ledger_paint0_linear-66485b14&quot;)"></path><path d="M34.2773 6.02133V17.9947L30.1173 20.4213L28.1707 21.568L24 24V12.0213L34.2773 6.02133ZM12.2507 34.848V34.8747L10.2773 36.0213V48L20.544 42V30L12.2507 34.848ZM37.744 36.0133V48L48 41.9813V30.008L37.744 36.0133ZM20.5333 34.9013V37.168H27.4667V34.9013H20.5333ZM17.8933 20.4213L14.4533 26.448L16.4 27.5947L19.84 21.568L17.8933 20.4213ZM30.1067 20.4213L28.16 21.568L31.6 27.5947L33.5467 26.448L30.1067 20.4213Z" fill="#773ADC"></path><path d="M18.4853 12C18.8987 12.2687 19.2362 12.6391 19.4655 13.0757C19.6947 13.5123 19.8081 14.0004 19.7946 14.4933C19.7969 14.679 19.7312 14.859 19.6098 14.9995C19.4885 15.14 19.3199 15.2313 19.1359 15.256H19.0693C19.2533 16.072 19.4346 16.88 19.6186 17.688C19.6719 17.936 19.7306 18.184 19.7839 18.432C19.8373 18.68 19.6906 18.8693 19.4666 18.7387L19.0959 18.528L18.7279 18.3147L17.4399 17.568C17.3281 17.4931 17.2392 17.3886 17.1832 17.2662C17.1272 17.1438 17.1062 17.0083 17.1226 16.8747C17.3626 16.136 17.5893 15.3893 17.8213 14.6453C17.8453 14.5733 17.8399 14.5307 17.7706 14.4373C17.3259 13.9204 17.0985 13.2515 17.1359 12.5707C17.1973 11.992 17.5039 11.7307 18.0026 11.8107C18.1736 11.844 18.3372 11.9082 18.4853 12V12Z" fill="url(&quot;#confidential-ledger_paint1_linear-8aa48179&quot;)"></path><path d="M4.75186 35.9733C5.16494 36.2425 5.50217 36.6129 5.73139 37.0494C5.9606 37.4859 6.07415 37.9738 6.0612 38.4667C6.06416 38.6528 5.99874 38.8335 5.87733 38.9745C5.75593 39.1156 5.58698 39.2072 5.40253 39.232H5.33586C5.51986 40.048 5.7012 40.856 5.8852 41.664C5.93853 41.912 5.9972 42.16 6.05053 42.4053C6.11186 42.6933 5.9572 42.8453 5.7332 42.7147L5.36253 42.504L4.99453 42.2907C4.56431 42.04 4.13497 41.7929 3.70653 41.5493C3.59471 41.4744 3.50585 41.3699 3.44983 41.2475C3.39381 41.1251 3.37282 40.9896 3.3892 40.856C3.6292 40.1173 3.85586 39.3707 4.09053 38.6267C4.11453 38.5547 4.10653 38.512 4.0372 38.4187C3.59252 37.9018 3.36508 37.2328 3.40253 36.552C3.46386 35.9733 3.77053 35.712 4.2692 35.7893C4.43952 35.8223 4.60284 35.8845 4.75186 35.9733V35.9733Z" fill="url(&quot;#confidential-ledger_paint2_linear-6a2b5375&quot;)"></path><defs><linearGradient id="confidential-ledger_paint0_linear-66485b14" x1="30.84" y1="39.2773" x2="33.5387" y2="39.2773" gradientUnits="userSpaceOnUse"><stop offset="0.001" stop-color="#773ADC"></stop><stop offset="1" stop-color="#552F99"></stop></linearGradient><linearGradient id="confidential-ledger_paint1_linear-8aa48179" x1="17.1066" y1="15.288" x2="19.8053" y2="15.288" gradientUnits="userSpaceOnUse"><stop offset="0.001" stop-color="#773ADC"></stop><stop offset="1" stop-color="#552F99"></stop></linearGradient><linearGradient id="confidential-ledger_paint2_linear-6a2b5375" x1="3.3732" y1="39.2773" x2="6.07453" y2="39.2773" gradientUnits="userSpaceOnUse"><stop offset="0.001" stop-color="#773ADC"></stop><stop offset="1" stop-color="#552F99"></stop></linearGradient><linearGradient id="confidential-ledger_paint0_linear-66485b14" x1="30.84" y1="39.2773" x2="33.5387" y2="39.2773" gradientUnits="userSpaceOnUse"><stop offset="0.001" stop-color="#773ADC"></stop><stop offset="1" stop-color="#552F99"></stop></linearGradient><linearGradient id="confidential-ledger_paint1_linear-8aa48179" x1="17.1066" y1="15.288" x2="19.8053" y2="15.288" gradientUnits="userSpaceOnUse"><stop offset="0.001" stop-color="#773ADC"></stop><stop offset="1" stop-color="#552F99"></stop></linearGradient><linearGradient id="confidential-ledger_paint2_linear-6a2b5375" x1="3.3732" y1="39.2773" x2="6.07453" y2="39.2773" gradientUnits="userSpaceOnUse"><stop offset="0.001" stop-color="#773ADC"></stop><stop offset="1" stop-color="#552F99"></stop></linearGradient></defs></svg></svg>