<svg xmlns:xlink="http://www.w3.org/1999/xlink" xmlns="http://www.w3.org/2000/svg" height="256" width="256" aria-hidden="true" role="presentation" focusable="false"><defs><symbol viewBox="0 0 18 18" class="" role="presentation" focusable="false" xmlns:svg="http://www.w3.org/2000/svg" xmlns:xlink="http://www.w3.org/1999/xlink" id="FxSymbol0-0a7" data-type="1"><g><title></title><defs></defs><path d="M17.28 3.9h-.91a4.16 4.16 0 0 0-.55 0 .68.68 0 0 1-.59-1l.39-.7a1.83 1.83 0 0 0-.51-.29l-.93 1.66a.7.7 0 0 1-.6.35h-.83a.66.66 0 0 0-.32.08l-1.57 1a.25.25 0 0 1-.16 0H5.27a.29.29 0 0 0-.27.32v4.82l-1.75.54.13.56L5 11v2.9a.29.29 0 0 0 .29.29h9.37l1.15 1.49.49-.31-.68-1.18h1.68a.29.29 0 0 0 .3-.29V4.2a.3.3 0 0 0-.32-.3Z" fill="#005ba1"></path><circle cx="15.88" cy="1.08" r="1.09" fill="#50e5ff"></circle><circle cx="16.58" cy="16.59" r="1.42" fill="#50e5ff"></circle><circle cx="1.77" cy="11.44" r="1.77" fill="#50e5ff"></circle><path d="m15.17 4.75-6.91-1h-.14a1 1 0 0 0-1 .87l-.26 1.69H16V5.9a1 1 0 0 0-.83-1.15Z" fill="#0078d4"></path><path d="m15.1 5.18-6.9-1h-.09a.58.58 0 0 0-.57.5L7.3 6.31h8.22l.07-.47a.58.58 0 0 0-.49-.66Z" class="msportalfx-svg-c01"></path><path d="M5.26 5h6.05a.33.33 0 0 1 .21.09l1 1a.29.29 0 0 0 .21.09h4.6a.3.3 0 0 1 .3.29v7.43a.3.3 0 0 1-.3.29h-12A.29.29 0 0 1 5 13.9V5.32A.3.3 0 0 1 5.26 5Z" fill="url(#9f996942-9c6c-4810-96e9-2beea774380e)"></path></g></symbol></defs><use href="#FxSymbol0-0a7" fill="#323130"></use></svg>