<svg xmlns:xlink="http://www.w3.org/1999/xlink" aria-hidden="false" aria-labelledby="svg-title-Storsimple-b0fe2a6a-9c4d-484c-b263-10decea273a3" id="svg-Storsimple-b0fe2a6a-9c4d-484c-b263-10decea273a3" viewBox="0 0 18 18" xmlns="http://www.w3.org/2000/svg" data-slug-id="storsimple" role="img" width="256"  height="256" ><title id="svg-title-Storsimple-b0fe2a6a-9c4d-484c-b263-10decea273a3">StorSimple</title><defs><linearGradient gradientUnits="userSpaceOnUse" id="svg-gradient1-Storsimple-b0fe2a6a-9c4d-484c-b263-10decea273a3" x1="9" y1="13.5" x2="9" y2="0.74"><stop offset="0" stop-color="#0078d4"></stop><stop offset="0.16" stop-color="#1380da"></stop><stop offset="0.53" stop-color="#3c91e5"></stop><stop offset="0.82" stop-color="#559cec"></stop><stop offset="1" stop-color="#5ea0ef"></stop></linearGradient><linearGradient gradientUnits="userSpaceOnUse" id="svg-gradient1-Storsimple-b0fe2a6a-9c4d-484c-b263-10decea273a3" x1="9" y1="13.5" x2="9" y2="0.74"><stop offset="0" stop-color="#0078d4"></stop><stop offset="0.16" stop-color="#1380da"></stop><stop offset="0.53" stop-color="#3c91e5"></stop><stop offset="0.82" stop-color="#559cec"></stop><stop offset="1" stop-color="#5ea0ef"></stop></linearGradient></defs><path d="M18,9.5a4.06,4.06,0,0,0-3.51-3.89A5.1,5.1,0,0,0,9.24.74a5.23,5.23,0,0,0-5,3.41A4.82,4.82,0,0,0,0,8.79,4.9,4.9,0,0,0,5.07,13.5l.44,0h8.21a1.46,1.46,0,0,0,.22,0A4.1,4.1,0,0,0,18,9.5Z" fill="url(&quot;#svg-gradient1-Storsimple-b0fe2a6a-9c4d-484c-b263-10decea273a3&quot;)"></path><rect x="9.23" y="16.36" width="4.25" height="0.9" rx="0.3" fill="#198AB3"></rect><rect x="9.23" y="14.45" width="4.25" height="0.9" rx="0.3" fill="#32BEDD"></rect><rect x="9.23" y="12.55" width="4.25" height="0.9" rx="0.3" fill="#50E6FF"></rect><rect x="4.95" y="7.8" width="4.25" height="0.9" rx="0.3" fill="#F2F2F2"></rect><rect x="4.95" y="9.55" width="4.25" height="0.9" rx="0.3" fill="#F2F2F2"></rect><rect x="4.95" y="11.31" width="4.25" height="0.9" rx="0.3" fill="#F2F2F2"></rect></svg>