<svg viewBox="0 0 60.1 64.8" class="" role="presentation" focusable="false" xmlns="http://www.w3.org/2000/svg" xmlns:xlink="http://www.w3.org/1999/xlink" id="FxSymbol0-01b" data-type="1"><g><path fill="#005BA1" d="M7.6 12.1h44.9c.9 0 1.6.7 1.6 1.6v16.1c0 .9-.7 1.6-1.6 1.6H7.6c-.9 0-1.6-.7-1.6-1.6V13.6c0-.8.8-1.5 1.6-1.5z"></path><path fill="url(#0f78a040-f524-4a18-922f-d0db2e384026)" d="M12.4 0h35.4c.9 0 1.6.7 1.6 1.6v25.9c0 .9-.7 1.6-1.6 1.6H12.4c-.9 0-1.6-.7-1.6-1.6V1.6c0-.9.7-1.6 1.6-1.6z"></path><path fill="#5EA0EF" d="M3.1 20.6H57c1.7 0 3.1 1.4 3.1 3.1v31.9H0V23.7c0-1.7 1.4-3.1 3.1-3.1z"></path><path fill="#0078D4" d="M0 51.5h60.1v5.3H0z"></path><path fill="#83B9F9" d="M9.4 42.1h41.4c.9 0 1.6.7 1.6 1.6v3.1c0 .9-.7 1.6-1.6 1.6H9.4c-.9 0-1.6-.7-1.6-1.6v-3.1c0-.9.7-1.6 1.6-1.6z"></path><circle fill="#C3F1FF" cx="49.9" cy="30.5" r="1.5"></circle><path fill="url(#0f78a040-f524-4a18-922f-d0db2e384027)" d="M10.8 43.2h38.5v20c0 .9-.7 1.6-1.6 1.6H12.4c-.9 0-1.6-.7-1.6-1.6v-20z"></path></g><defs>
<linearGradient id="0f78a040-f524-4a18-922f-d0db2e384026" gradientUnits="userSpaceOnUse" x1="30.047" y1="66.778" x2="30.047" y2="37.759" gradientTransform="matrix(1 0 0 -1 0 66.778)"><stop offset="0" stop-color="#C3F1FF"></stop><stop offset=".999" stop-color="#9CEBFF"></stop></linearGradient>
<linearGradient id="0f78a040-f524-4a18-922f-d0db2e384027" gradientUnits="userSpaceOnUse" x1="30.044" y1="2" x2="30.044" y2="23.558" gradientTransform="matrix(1 0 0 -1 0 66.778)"><stop offset="0" stop-color="#C3F1FF"></stop><stop offset=".999" stop-color="#9CEBFF"></stop></linearGradient>
</defs>
</svg>