<svg viewBox="0 0 18 18" class="" role="presentation" focusable="false" xmlns="http://www.w3.org/2000/svg" xmlns:xlink="http://www.w3.org/1999/xlink" id="FxSymbol0-01d" data-type="1"><g><path d="M18 8.933a4.045 4.045 0 0 0-3.51-3.888A5.1 5.1 0 0 0 9.24.171a5.228 5.228 0 0 0-5 3.408A4.825 4.825 0 0 0 0 8.222a4.9 4.9 0 0 0 5.068 4.707c.151 0 .3-.008.447-.02h8.207a.819.819 0 0 0 .217-.032A4.093 4.093 0 0 0 18 8.933Z" fill="url(#0f78a040-f524-4a18-922f-d0db2e384029)"></path><path d="M8.97 11.456a.508.508 0 0 0-.509.508v3.271a1.409 1.409 0 0 1-.03.291l-.008.029a1.362 1.362 0 0 1-.028.11c0 .015-.011.029-.016.044l-.033.09a1.405 1.405 0 0 1-.083.17l-.036.059-.04.061-.042.056-.048.059-.043.049a2.38 2.38 0 0 1-.073.074l-.052.048-.081.067c-.028.022-.031.023-.047.034s-.049.035-.075.051l-.05.032-.084.046-.047.025a1.552 1.552 0 0 1-.132.058h-.012c-.045.017-.09.032-.136.045l-.048.013a2.919 2.919 0 0 1-.1.025l-.054.01a2.037 2.037 0 0 1-.109.015l-.05.006c-.053 0-.107.007-.161.007s-.108 0-.161-.007l-.053-.002c-.037 0-.073-.009-.109-.015l-.054-.01a1.042 1.042 0 0 1-.1-.025l-.048-.013q-.069-.02-.135-.045h-.012a1.443 1.443 0 0 1-.133-.058l-.052-.034-.083-.046-.051-.032a1.493 1.493 0 0 1-.074-.051l-.048-.031a2.577 2.577 0 0 1-.08-.067l-.05-.048a1.694 1.694 0 0 1-.073-.074l-.043-.049-.048-.059-.041-.056-.04-.061-.037-.059c-.012-.02-.025-.047-.037-.07s-.031-.065-.045-.1-.023-.06-.033-.09l-.017-.044a1.362 1.362 0 0 1-.028-.11l-.008-.029a1.409 1.409 0 0 1-.03-.291v-2.306A5.47 5.47 0 0 1 4 12.82v2.415a2.434 2.434 0 0 0 .056.522 2.711 2.711 0 0 0 2.683 2.072 2.712 2.712 0 0 0 2.684-2.072 2.5 2.5 0 0 0 .055-.522v-3.271a.507.507 0 0 0-.508-.508Z" fill="#50e6ff"></path><path d="M10.9 11.887h-.5v-.863H7.617v.863h-.494a.281.281 0 0 0-.281.282v.478a.281.281 0 0 0 .281.282H10.9a.281.281 0 0 0 .281-.282v-.478a.281.281 0 0 0-.281-.282Z" fill="#32bedd"></path><path d="M7.505 4.26h.33a.281.281 0 0 1 .281.281v2.333h-.892V4.542a.281.281 0 0 1 .281-.282Zm2.656 0h.309a.281.281 0 0 1 .281.281v2.47H9.88V4.542a.281.281 0 0 1 .281-.282Z" fill="#c3f1ff"></path><path d="M12.021 6.406H6a.281.281 0 0 0-.281.281v.649A.281.281 0 0 0 6 7.617h.112v3.028a.563.563 0 0 0 .562.563h4.675a.563.563 0 0 0 .563-.563V7.617h.112a.281.281 0 0 0 .281-.281v-.649a.281.281 0 0 0-.284-.281Z" fill="url(#0f78a040-f524-4a18-922f-d0db2e38402a)"></path></g><defs>
<linearGradient id="0f78a040-f524-4a18-922f-d0db2e384029" x1="9" y1="12.929" x2="9" y2=".171" gradientUnits="userSpaceOnUse"><stop offset="0" stop-color="#773adc"></stop><stop offset=".817" stop-color="#a67af4"></stop></linearGradient>
<linearGradient id="0f78a040-f524-4a18-922f-d0db2e38402a" x1="9.009" y1="6.406" x2="9.009" y2="11.208" gradientUnits="userSpaceOnUse"><stop offset="0" stop-color="#9cebff"></stop><stop offset="1" stop-color="#50e6ff"></stop></linearGradient>
</defs>
</svg>