<svg viewBox="0 0 180 180" class="" role="presentation" focusable="false" xmlns="http://www.w3.org/2000/svg" xmlns:xlink="http://www.w3.org/1999/xlink" id="FxSymbol0-01c" data-type="1"><g><path fill="#005BA1" d="M18.3 28.9h107.4c2.1 0 3.8 1.7 3.8 3.8v38.6c0 2.1-1.7 3.8-3.8 3.8H18.3c-2.1 0-3.8-1.7-3.8-3.8V32.6c0-2 1.7-3.7 3.8-3.7z"></path><path fill="#9CEBFF" d="M29.6 0h84.7c2.1 0 3.8 1.7 3.8 3.8v62c0 2.1-1.7 3.8-3.8 3.8H29.6c-2.1 0-3.8-1.7-3.8-3.8v-62c0-2.1 1.7-3.8 3.8-3.8z"></path><path fill="#5EA0EF" d="M129.1 117.1v-13c0-5 4.1-9.1 9.1-9.2 2 0 4 .7 5.7 1.9h.1v-40c0-4.1-3.4-7.5-7.5-7.5H7.5c-4.1 0-7.5 3.4-7.5 7.5v76.4h94.2c9.3-9.4 21.7-15.1 34.9-16.1z"></path><path fill="#83B9F9" d="M22.4 100.9h99c2.1 0 3.8 1.7 3.8 3.8v7.4c0 2.1-1.7 3.8-3.8 3.8h-99c-2.1 0-3.8-1.7-3.8-3.8v-7.4c.1-2.1 1.7-3.8 3.8-3.8z"></path><circle fill="#C3F1FF" cx="119.4" cy="73.1" r="3.6"></circle><path fill="#0078D4" d="M107.6 123.3H0v12.8h91.6c4.4-5.3 9.9-9.7 16-12.8z"></path><path fill="#9CEBFF" d="M118.1 119.2v-15.7H25.8v47.9c0 2.1 1.7 3.8 3.8 3.8h51.5c5.3-17.6 19.3-31.2 37-36z"></path><path fill="url(#0f78a040-f524-4a18-922f-d0db2e384028)" d="M133.7 176c.3 2.3 2.3 4 4.6 4 1.2 0 2.3-.5 3.2-1.3l37.1-35.6.5-.5c1.4-1.9 1.2-4.5-.5-6.2l-37.1-35.6-.5-.4c-.8-.6-1.7-.9-2.7-.9-2.6 0-4.7 2-4.7 4.6v17.1l-1.9.1c-29.4 2.3-46.6 20.4-50.7 53.3-.3 2.5 1.5 4.9 4 5.2h.6c1.1 0 2.2-.4 3-1.2 11.8-11 26.8-18.1 42.8-20.2l2.1-.2v16.9l.2.9z"></path></g><defs>
<linearGradient id="0f78a040-f524-4a18-922f-d0db2e384028" gradientUnits="userSpaceOnUse" x1="130.497" y1="1080.606" x2="130.497" y2="981.615" gradientTransform="translate(0 -898)"><stop offset=".026" stop-color="#773ADC"></stop><stop offset=".985" stop-color="#A67AF4"></stop></linearGradient>
</defs>
</svg>