<svg viewBox="0 0 50 50" class="" role="presentation" focusable="false" xmlns="http://www.w3.org/2000/svg" xmlns:xlink="http://www.w3.org/1999/xlink" id="FxSymbol0-081" data-type="1"><g><title></title><path d="M1 0h29v33H1z" class="msportalfx-svg-c03" fill="#a0a1a2"></path><path opacity=".8" fill-rule="evenodd" clip-rule="evenodd" d="M3 2h25v29H3z" class="msportalfx-svg-c01" fill="#ffffff"></path><path d="M20 17h29v33H20z" class="msportalfx-svg-c03" fill="#a0a1a2"></path><path opacity=".8" fill-rule="evenodd" clip-rule="evenodd" d="M22 19h25v29H22z" class="msportalfx-svg-c01" fill="#ffffff"></path><path fill-rule="evenodd" clip-rule="evenodd" d="M29 32h12.998v2H27zm1.001 4.001H42v2H30.001zM42 30H32l2-2h8zm-16 6h3v3h-3zm4.001 4H42v2H30.001zM8 12h15v2H8zm0 8h9.999v2H8zm0-4h9.999v2H8zm0-8h15v2H8zm18 32h3v3h-3z" class="msportalfx-svg-c03" fill="#a0a1a2"></path><path fill-rule="evenodd" clip-rule="evenodd" d="M32.5 26.5 27 22v3H12.002v3H27v3z" class="msportalfx-svg-c19" fill="#0072c6"></path></g><defs>
</defs>
</svg>