<svg xmlns="http://www.w3.org/2000/svg" xmlns:xlink="http://www.w3.org/1999/xlink" viewBox="0 0 81 82" fill="#fff" fill-rule="evenodd" stroke="#000" stroke-linecap="round" stroke-linejoin="round"><use xlink:href="#A" x=".5" y=".5"/><symbol id="A" overflow="visible"><path d="M1.333 0C.533 0 0 .533 0 1.333v16c0 .8.533 1.333 1.333 1.333h8c.8 0 1.333-.533 1.333-1.333v-6.666h58.667v6.667c0 .8.533 1.333 1.6 1.333h7.733c.8 0 1.333-.533 1.333-1.333v-8-8C80 .533 79.467 0 78.667 0h0H1.333zm77.334 80c.8 0 1.333-.533 1.333-1.333V62.934c0-.8-.533-1.333-1.333-1.333h-7.733c-.8 0-1.333.533-1.333 1.333v6.4H10.667v-6.667c0-.8-.533-1.333-1.6-1.333H1.333c-.8 0-1.333.533-1.333 1.6v15.733C0 79.467.533 80 1.333 80h77.334z" fill="#0072c6" stroke="none"/><path d="M19.718 41.138c-1.344 1.344-3.133 2.085-5.035 2.085s-3.69-.741-5.035-2.085L0 31.49v19.613h29.366V31.49l-9.648 9.648zm-5.035.652a5.65 5.65 0 0 0 4.022-1.666l10.661-10.661v-.565H0v.566l10.661 10.661a5.65 5.65 0 0 0 4.022 1.664zm55.669-.652c-1.344 1.344-3.133 2.085-5.035 2.085s-3.69-.741-5.035-2.085l-9.648-9.648v19.613H80V31.49l-9.648 9.648zm-5.035.652a5.65 5.65 0 0 0 4.022-1.666L80 29.464v-.565H50.634v.566l10.661 10.661a5.65 5.65 0 0 0 4.022 1.664z" stroke="none" fill="#59b4d9"/><path d="M41.301 38.047h4.934v3.894h-4.934zm-7.634 0h5.219v3.894h-5.219z" stroke="none" fill="#b8d432"/></symbol></svg>