<svg viewBox="0 0 18 18" class="" role="presentation" focusable="false" xmlns="http://www.w3.org/2000/svg" xmlns:xlink="http://www.w3.org/1999/xlink" id="FxSymbol0-05b" data-type="1"><g><rect x="1.966" y="2.131" width="13.946" height="14.947" rx=".569" fill="url(#7ff74168-cfe6-46be-8ebb-61852f7db0b5)"></rect><rect x="2.836" y="3.043" width="12.244" height="13.122" rx=".569" fill="#a67af4"></rect><path d="M10.025 1.1a1.1 1.1 0 1 0-2.191 0H5.708a.472.472 0 0 0-.473.472v2h7.408v-2a.472.472 0 0 0-.473-.472ZM8.778.568a.549.549 0 0 1 .7.528h-.014a.545.545 0 0 1-.544.544.533.533 0 0 1-.208-.04A.548.548 0 0 1 8.4.935a.538.538 0 0 1 .378-.367Z" fill="#b796f9"></path><g class="msportalfx-svg-c01" fill="#ffffff"><rect x="5.278" y="7.871" width="1.775" height="5.224" rx=".285" opacity=".8"></rect><path d="M12.476 7.882V5.593a.286.286 0 0 0-.285-.285h-1.206a.286.286 0 0 0-.285.285v2.289h-.371v4.839a.285.285 0 0 0 .285.284h1.739a.284.284 0 0 0 .284-.284V7.882Z" opacity=".4"></path><path d="M9.712 8.249v-1.5a.285.285 0 0 0-.284-.285H8.221a.285.285 0 0 0-.284.285v3.187l-.1.676.484 2.432h1.206a.286.286 0 0 0 .285-.285v-4.31a.252.252 0 0 0-.1-.2Z" opacity=".6"></path></g><path d="m14.125 13.707 3.19 3.19a.611.611 0 0 1 0 .865l-.059.06a.611.611 0 0 1-.864 0l-3.068-3.069a.611.611 0 0 1 0-.864l.181-.182a.438.438 0 0 1 .62 0Z" fill="#37c2b1"></path><path d="M11.257 15.031a3.748 3.748 0 1 1 3.748-3.748 3.752 3.752 0 0 1-3.748 3.748Zm0-6.931a3.184 3.184 0 1 0 3.184 3.183A3.188 3.188 0 0 0 11.257 8.1Z" fill="#42e8ca"></path><circle cx="11.257" cy="11.283" r="3.466" fill="#42e8ca" opacity=".3"></circle></g><defs>
<linearGradient id="7ff74168-cfe6-46be-8ebb-61852f7db0b5" x1="8.939" y1="2.131" x2="8.939" y2="17.077" gradientUnits="userSpaceOnUse"><stop offset="0" stop-color="#a67af4"></stop><stop offset="1" stop-color="#773adc"></stop></linearGradient>
</defs>
</svg>