<svg viewBox="0 0 50 50" class="" role="presentation" focusable="false" xmlns="http://www.w3.org/2000/svg" xmlns:xlink="http://www.w3.org/1999/xlink" id="FxSymbol0-07e" data-type="1"><g><title></title><path d="M18.2 42.9h14.5c.3 2.2-.7 3.7-2.2 5.1-2.2 2.1-4.9 2.5-7.7 1.4-2.9-1.1-4.4-3.1-4.6-6.5M45.4 35c-2.6-2.6-2.9-4.2-3.2-5.8 0-.3-.1-.2-.1-.6-.2-4.4-.6-8.5-2-12.8-1.1-3.3-2.6-6.2-5.4-8.5-1.8-1.4-3.8-2.2-6.1-2.6V3.5C28.5 1 26.1-.6 23.8.2c-1.5.5-2.4 1.8-2.4 3.6 0 .4.2.9-.5 1.1-5.3 1.1-8.5 4.5-10.4 9.4C8.6 19 8.1 24.1 8 29.2c-.4 1.6-.3 2.8-3.4 5.8s.3 4.9.3 4.9h40.2c0-.1 3.4-2 .3-4.9zm-16.8-.1h-7.3v-7.3h7.3v7.3zm0-12.5h-7.1V9.2h7.1v13.2z" fill-rule="evenodd" clip-rule="evenodd" class="msportalfx-svg-c10" fill="#ff8c00"></path></g><defs>
</defs>
</svg>