<svg viewBox="0 0 50 50" class="" role="presentation" focusable="false" xmlns="http://www.w3.org/2000/svg" xmlns:xlink="http://www.w3.org/1999/xlink" id="FxSymbol0-07d" data-type="1"><g><title></title><path d="M3 0h44v50H3z" class="msportalfx-svg-c15" fill="#59b4d9"></path><path d="M6 3v44h38V3H6zm36 42H8V5h34v40z" class="msportalfx-svg-c01" fill="#ffffff"></path><path d="M18 9h22v2H18zm5 4h17v2H23zm-5 8h22v2H18zm5 4h17v2H23zm-5 8h22v2H18zm5 4h17v2H23zM12.9 8.9H14v5.6h1.1v1.1h-3.7v-1.1h1.1v-3.9c-.3.3-.7.6-1.1.8v-1.3c.6-.3 1.1-.7 1.5-1.2zm-.8 14.8-1.3-.3c.2-1.5 1-2.2 2.2-2.2.7 0 1.2.2 1.5.6.4.4.5.8.5 1.4s-.2 1.1-.6 1.6-1.1 1.2-2.2 1.9h2.9L15 28h-4.3v-1.3c1.2-1 2-1.8 2.3-2.2s.5-.8.5-1.2c0-.6-.2-.8-.6-.8-.3 0-.4.1-.5.3-.2.2-.3.5-.3.9zM12 35.2l-1.3-.2c.3-1.1 1.1-1.7 2.2-1.7.6 0 1.1.2 1.4.5.3.3.5.8.5 1.3 0 .7-.3 1.2-1 1.5.7.2 1.1.8 1.1 1.6 0 .7-.2 1.2-.6 1.5s-.9.5-1.6.5c-.6 0-1.1-.2-1.5-.4-.4-.3-.7-.8-.8-1.5l1.3-.2c.1.7.4 1 .9 1 .2 0 .4-.1.6-.2.1-.2.2-.4.2-.7 0-.6-.3-.9-1-.9H12V36h.4c.2 0 .4 0 .5-.1.1 0 .2-.1.3-.3.1-.1.1-.3.1-.5 0-.5-.2-.8-.7-.8-.2.1-.5.3-.6.9z" class="msportalfx-svg-c01" fill="#ffffff"></path></g><defs>
</defs>
</svg>