<svg viewBox="0 0 16 16" class="" role="presentation" focusable="false" xmlns="http://www.w3.org/2000/svg" xmlns:xlink="http://www.w3.org/1999/xlink" id="FxSymbol0-08c" data-type="1"><g><title></title><g clip-path="url(#7ff74168-cfe6-46be-8ebb-61852f7db2c8)"><path d="M3.636.445H1.885v.507h1.75V.445Zm11.146.507h.285v.276h.489V.445h-.774v.507ZM1.253 15.015h-.249v-.285h-.56v.827h.81v-.542Zm13.814-.257v.258h-.285v.542h.774v-.8h-.49ZM1.004 1.21V.952h.25V.445h-.81v.765h.56Zm9.546 1.946H3.254a.258.258 0 0 0-.258.258v4.711c0 .143.116.258.258.258h7.298a.258.258 0 0 0 .258-.258V3.414a.258.258 0 0 0-.258-.258Z" fill="#0078D4"></path><path d="M8.204 5.016v1.52L6.906 7.3V5.771l1.298-.755Z" fill="#50E6FF"></path><path d="m8.204 5.014-1.298.765L5.6 5.014l1.306-.764 1.298.764Z" fill="#C3F1FF"></path><path d="M6.906 5.78V7.3L5.6 6.536v-1.52l1.306.764Z" fill="#9CEBFF"></path><path d="M12.809 6.07H5.51a.258.258 0 0 0-.258.258v4.711c0 .143.115.258.258.258h7.298a.258.258 0 0 0 .257-.258V6.33a.258.258 0 0 0-.258-.259Z" fill="url(#7ff74168-cfe6-46be-8ebb-61852f7db2c6)"></path><path d="M10.462 7.922v1.52l-1.298.764v-1.52l1.298-.764Z" fill="#50E6FF"></path><path d="m10.462 7.92-1.298.765-1.307-.764 1.307-.765 1.298.765Z" fill="#C3F1FF"></path><path d="M9.164 8.686v1.52l-1.307-.764v-1.52l1.307.764Z" fill="#9CEBFF"></path><path d="m7.857 9.44 1.307-.756v1.52l-1.307-.765Z" fill="#C3F1FF"></path><path d="m10.462 9.44-1.298-.756v1.52l1.298-.765Z" fill="#9CEBFF"></path><path d="M10.729 12.871c-.773-.124-.8-.684-.8-1.582H8.391c0 .889 0 1.458-.8 1.582a.453.453 0 0 0-.382.436h3.911a.453.453 0 0 0-.391-.436Z" fill="url(#7ff74168-cfe6-46be-8ebb-61852f7db2c7)"></path><path d="M6.258.445H4.507v.507h1.751V.445Zm2.613 0h-1.75v.507h1.75V.445Zm2.622 0h-1.75v.507h1.75V.445Zm2.622 0h-1.75v.507h1.75V.445ZM3.653 15.016h-1.75v.506h1.75v-.506Zm2.614 0H4.516v.506h1.75v-.506Zm2.622 0H7.138v.506h1.75v-.506Zm2.621 0H9.76v.506h1.75v-.506Zm2.614 0h-1.751v.506h1.751v-.506Zm1.432-13.192h-.507v1.751h.507v-1.75Zm0 2.614h-.507v1.75h.507v-1.75Zm0 2.621h-.507v1.75h.507V7.06Zm0 2.613h-.507v1.751h.507V9.672Zm0 2.621h-.507v1.751h.507v-1.751ZM.951 1.805H.444v1.75h.507v-1.75Zm0 2.621H.444v1.75h.507v-1.75Zm0 2.614H.444v1.75h.507V7.04Zm0 2.624H.444v1.751h.507v-1.75Zm0 2.613H.444v1.752h.507v-1.752Z" fill="#0078D4"></path></g><defs></defs></g><defs>
<linearGradient id="7ff74168-cfe6-46be-8ebb-61852f7db2c6" x1="9.164" y1="11.288" x2="9.164" y2="6.07" gradientUnits="userSpaceOnUse"><stop stop-color="#0078D4"></stop><stop offset=".82" stop-color="#5EA0EF"></stop></linearGradient>
<linearGradient id="7ff74168-cfe6-46be-8ebb-61852f7db2c7" x1="9.165" y1="13.307" x2="9.165" y2="11.289" gradientUnits="userSpaceOnUse"><stop offset=".15" stop-color="#CCC"></stop><stop offset="1" stop-color="#707070"></stop></linearGradient>
<clipPath id="7ff74168-cfe6-46be-8ebb-61852f7db2c8"><path d="M0 0h16v16H0z" class="msportalfx-svg-c01"></path></clipPath>
</defs>
</svg>