<svg viewBox="0 0 12 16" class="" role="presentation" focusable="false" xmlns="http://www.w3.org/2000/svg" xmlns:xlink="http://www.w3.org/1999/xlink" id="FxSymbol0-082" data-type="119"><g><title></title><path d="M12 2v14H0V2h4a2.4 2.4 0 0 1 .2-.8l.4-.6.6-.4L6 0l.8.2.6.4.4.6A2.4 2.4 0 0 1 8 2zm-1 1h-1v2H2V3H1v12h10zM2 7h1v1H2zm0 3h1v1H2zm0 3h1v1H2zm1-9h6V3H7V2a.6.6 0 0 0-.1-.4c0-.1-.1-.2-.2-.3l-.3-.2h-.8l-.3.2c-.1.1-.2.2-.2.3A.6.6 0 0 0 5 2v1H3zm1 3h6v1H4zm0 3h6v1H4zm0 3h6v1H4z"></path></g><defs>
</defs>
</svg>