<svg viewBox="0 0 18 18" class="" role="presentation" focusable="false" xmlns="http://www.w3.org/2000/svg" xmlns:xlink="http://www.w3.org/1999/xlink" id="FxSymbol0-0d9" data-type="310"><g><title>MsPortalFx.base.images-35</title><path fill="url(#d4744416-c399-4fb9-95a4-f6f6206a3702)" d="M18 8.1a3.138 3.138 0 0 0-2.723-3.016A3.954 3.954 0 0 0 11.2 1.3a4.057 4.057 0 0 0-3.873 2.644 3.744 3.744 0 0 0-3.291 3.6A3.8 3.8 0 0 0 7.968 11.2c.116 0 .232-.006.346-.015h6.367a.615.615 0 0 0 .168-.025A3.175 3.175 0 0 0 18 8.1z"></path><path fill="url(#d4744416-c399-4fb9-95a4-f6f6206a3703)" d="M14.345 13.515a3.223 3.223 0 0 0-2.8-3.1 4.062 4.062 0 0 0-4.181-3.883 4.168 4.168 0 0 0-3.983 2.716A3.846 3.846 0 0 0 0 12.948 3.9 3.9 0 0 0 4.039 16.7c.12 0 .239-.005.356-.015h6.541a.664.664 0 0 0 .173-.026 3.26 3.26 0 0 0 3.236-3.144z"></path><path d="m6.634 13.64-1.975-2.03c-.214-.214-.136-.4.206-.4h.877A.252.252 0 0 0 6 10.952c-.03-1.309.338-4.943 5.3-5.067a.256.256 0 0 1 .262.254v1.285a.253.253 0 0 1-.277.252c-.9-.087-3.682-.084-3.678 3.278a.254.254 0 0 0 .254.255h.811c.413 0 .482.125.206.4l-1.83 2.03a.253.253 0 0 1-.414.001z" class="msportalfx-svg-c01" fill="#ffffff"></path></g><defs>
<linearGradient id="d4744416-c399-4fb9-95a4-f6f6206a3702" x1="11.018" x2="11.018" y1="11.198" y2="1.301" gradientUnits="userSpaceOnUse"><stop offset="0" stop-color="#0078d4"></stop><stop offset=".156" stop-color="#1380da"></stop><stop offset=".528" stop-color="#3c91e5"></stop><stop offset=".822" stop-color="#559cec"></stop><stop offset="1" stop-color="#5ea0ef"></stop></linearGradient>
<linearGradient id="d4744416-c399-4fb9-95a4-f6f6206a3703" x1="7.173" x2="7.173" y1="16.699" y2="6.532" gradientUnits="userSpaceOnUse"><stop offset="0" stop-color="#198ab3"></stop><stop offset=".001" stop-color="#198ab3"></stop><stop offset=".112" stop-color="#22a5cb"></stop><stop offset=".232" stop-color="#29bade"></stop><stop offset=".367" stop-color="#2ec9eb"></stop><stop offset=".527" stop-color="#31d1f3"></stop><stop offset=".775" stop-color="#32d4f5"></stop></linearGradient>
</defs>
</svg>