<svg elementtiming="1" version="1.1" id="Layer_1" xmlns="http://www.w3.org/2000/svg" xmlns:xlink="http://www.w3.org/1999/xlink" x="0px" y="0px" width="50px" height="50px" viewBox="0 0 50 50" enable-background="new 0 0 50 50" xml:space="preserve"><polygon elementtiming="1" fill="#59B4D9" points="44,7.8 39.2,3 37.2,1 37,1 4,1 4,49 46,49 46,10 46,9.8 "></polygon><polygon elementtiming="1" opacity="0.8" fill="#FFFFFF" enable-background="new    " points="37,3 6,3 6,47 44,47 44,10 37,10 "></polygon><path elementtiming="1" fill="#3999C6" d="M15,21.371v11.258c0,0.089,0.048,0.172,0.125,0.217l9.75,5.629c0.077,0.045,0.173,0.045,0.25,0l9.75-5.629
	C34.952,32.801,35,32.718,35,32.629V21.371c0-0.089-0.048-0.172-0.125-0.217l-9.75-5.629c-0.077-0.045-0.173-0.045-0.25,0
	l-9.75,5.629C15.048,21.199,15,21.282,15,21.371z"></path></svg>