<svg xmlns="http://www.w3.org/2000/svg" xmlns:xlink="http://www.w3.org/1999/xlink" viewBox="0 0 51 81" fill="#fff" fill-rule="evenodd" stroke="#000" stroke-linecap="round" stroke-linejoin="round"><use xlink:href="#A" x=".5" y=".5"/><symbol id="A" overflow="visible"><g stroke="none"><path d="M42.763 78.913h-5.921c-2.851 0-6.798-2.391-6.798-6.739V48.696h2.412v-1.739h-2.412v-8.913h4.824V17.609l-1.096-7.174V0h12.5v10.87l-1.097 6.957v20.218H50v8.913h-2.412v1.739H50v23.478c-.219 4.348-4.386 6.739-7.237 6.739zM12.938 0H5.701l.878 1.522-1.535 1.739c-.219.217-6.14 7.174-2.412 15.652L0 20v2.174c0 3.696 4.167 7.174 8.333 8.696v41.087c0 4.783 3.289 8.044 8.114 8.044s8.114-3.261 8.114-8.044V28.478c3.07-2.826 4.824-7.174 4.824-12.174C29.386 6.957 22.368 0 12.938 0z"/><path d="M46.71 52.174v20.217c0 2.391-2.193 3.478-3.509 3.478H37.28c-1.315 0-3.508-1.087-3.508-3.478V52.174h2.412v-8.261h-2.412v-2.391h4.824V17.609L37.5 10.652V3.478h5.921v7.174l-1.096 7.174v23.696h4.824v2.391h-2.412v8.261h1.974 0zM13.377 3.478h-1.974l6.579 13.044-14.255 5.87c0 2.391 4.825 5.87 8.334 5.87v44.13c0 2.391 1.096 4.783 4.824 4.783 3.509 0 4.824-2.391 4.824-4.783v-45c2.851-1.739 4.825-5.87 4.825-10.652 0-8.043-6.14-13.261-13.158-13.261zm3.509 71.087c-1.316 0-2.412-1.087-2.412-2.391s1.096-2.391 2.412-2.391 2.412 1.087 2.412 2.391-1.096 2.391-2.412 2.391zM6.579 18.913C2.632 11.739 7.895 5.652 7.895 5.652l5.044 10-6.36 3.261h0z" fill="#515150"/></g></symbol></svg>