<svg xmlns="http://www.w3.org/2000/svg" xmlns:xlink="http://www.w3.org/1999/xlink" viewBox="0 0 82 81" fill="#fff" fill-rule="evenodd" stroke="#000" stroke-linecap="round" stroke-linejoin="round"><use xlink:href="#A" x=".5" y=".5"/><symbol id="A" overflow="visible"><g stroke="none"><path d="M40 80C17.94 80 0 62.06 0 40S17.94 0 40 0s40 17.939 40 40-17.939 40-40 40z"/><path d="M40 3.636C19.878 3.636 3.636 19.878 3.636 40S19.878 76.363 40 76.363 76.363 60.121 76.363 40 60.121 3.636 40 3.636zm4.848 60.606h-9.697V32.727h9.697v31.515zM40 25.454a6 6 0 0 1-6.061-6.061A6 6 0 0 1 40 13.333a6 6 0 0 1 6.06 6.061A6 6 0 0 1 40 25.454z" fill="#515150"/></g></symbol></svg>