<svg xmlns="http://www.w3.org/2000/svg" xmlns:xlink="http://www.w3.org/1999/xlink" viewBox="0 0 101 81" fill="#fff" fill-rule="evenodd" stroke="#000" stroke-linecap="round" stroke-linejoin="round"><use xlink:href="#A" x=".5" y=".5"/><symbol id="A" overflow="visible"><g stroke="none"><path d="M91.809 80H8.191C3.62 80 0 76.284 0 71.589V8.411C0 3.716 3.62 0 8.191 0h83.619C96.38 0 100 3.716 100 8.411v63.178C100 76.284 96.38 80 91.809 80z"/><g fill="#515150"><path d="M4.953 30.318h88.951v4.108H4.953z"/><path d="M30.286 33.056h4v41.271h-4z"/><use xlink:href="#C"/><use xlink:href="#C" x="10.666"/><use xlink:href="#C" x="21.333"/><use xlink:href="#D"/><use xlink:href="#D" x="10.667"/><path d="M10.286 40.098h14.667v2.739H10.286zm5.333 8.215h9.333v2.738h-9.333zm0 8.215h9.333v2.739h-9.333zm-5.333 8.215h14.667v2.739H10.286zM91.81 2.934H8.191c-2.857 0-5.333 2.543-5.333 5.477V71.59c0 2.934 2.476 5.477 5.333 5.477H91.81c2.857 0 5.334-2.543 5.334-5.477V8.411c0-2.934-2.286-5.477-5.334-5.477zM81.333 7.041h4v4.108h-4V7.041zm-8 0h4v4.108h-4V7.041zM6.858 71.589V34.425h23.81v38.533H8.191c-.762 0-1.333-.587-1.333-1.369zm86.286 0c0 .782-.572 1.369-1.333 1.369H34.667V34.425h58.476v37.164zm0-41.272H6.858V16.626h86.286v13.692zm0-19.169h-4V7.041h4v4.108z"/><use xlink:href="#D" x="-31.238"/><use xlink:href="#D" x="-20.571"/><use xlink:href="#C" x="21.904"/><use xlink:href="#C" x="32.38"/><path d="M56 20.734h5.333v5.477H56zM10.857 40.098h14.667v2.739H10.857zm5.334 8.215h9.333v2.738h-9.333zm0 8.215h9.333v2.739h-9.333zm-5.334 8.215h14.667v2.739H10.857z"/></g></g></symbol><defs ><path id="C" d="M12.953 20.734h5.334v5.477h-5.334z"/><path id="D" d="M44.762 20.734h5.333v5.477h-5.333z"/></defs></svg>