<svg xmlns="http://www.w3.org/2000/svg" xmlns:xlink="http://www.w3.org/1999/xlink" viewBox="0 0 91 81" fill="#fff" fill-rule="evenodd" stroke="#000" stroke-linecap="round" stroke-linejoin="round"><use xlink:href="#A" x=".5" y=".5"/><symbol id="A" overflow="visible"><g stroke="none"><path d="M83.968 80H47.52c-2.46 0-4.46-1.933-4.46-4.312v-8.327c-6.92.149-13.072.744-15.84 1.041v1.189h-2.307-6.305c-1.384 0-2.614-.595-3.537-1.636s-1.23-2.379-.922-3.569c.461-1.933 1.384-3.718 2.768-5.056 2.614-2.676 6.92-4.015 13.994-4.61v-2.231L4.46 52.64C1.999 52.64 0 50.706 0 48.327V4.312C0 1.933 1.999 0 4.46 0h66.897c2.461 0 4.46 1.933 4.46 4.312v31.524h1.384c2.46 0 4.46 1.933 4.46 4.312 0 .446 0 .744-.154 1.19 1.538-.892 3.845-.892 5.229.297l1.692 1.338c1.845 1.487 2.153 4.312.461 6.097l-.461.892v25.725c0 2.379-1.999 4.312-4.46 4.312z"/><path d="M18.608 67.36c-1.384 0-2.46-1.19-2.153-2.528.307-1.19.922-2.677 2.153-3.866 2.307-2.23 5.998-3.42 12.764-3.866 1.077-.149 1.999-1.041 1.999-2.082V52.49c0-1.19-.923-2.082-2.153-2.082l-26.605.149c-1.23 0-2.153-.892-2.153-2.082V4.461c0-1.19.923-2.082 2.153-2.082H71.51c1.23 0 2.153.892 2.153 2.082v26.766c0 1.189-.923 2.082-2.153 2.082h-4.306c-1.23 0-2.153-.892-2.153-2.082V12.788c0-1.19-.923-2.082-2.153-2.082H13.071c-1.23 0-2.153.892-2.153 2.082v27.36c0 1.19.923 2.082 2.153 2.082l26.605-.149c1.23 0 2.153.892 2.153 2.082v18.885c0 1.19-.923 2.082-2.153 2.082h-2.153c-9.381.149-11.995 1.041-12.764 1.487 0 .149-.154.595 0 .743h-6.152zm65.359 10.409H47.52c-1.23 0-2.153-.892-2.153-2.082V40.446c0-1.189.923-2.082 2.153-2.082h29.681c1.23 0 2.153.892 2.153 2.082h0c0 1.19-.923 2.082-2.153 2.082H51.826c-1.231 0-2.153.892-2.153 2.082v27.063c0 1.19.922 2.082 2.153 2.082h27.835c1.23 0 2.153-.892 2.153-2.082v-9.666c0-1.19.922-2.082 2.153-2.082h0c1.23 0 2.153.892 2.153 2.082v13.829c0 1.041-1.077 1.933-2.153 1.933zM67.359 67.212l-10.611-9.517c-.923-.744-.923-2.082-.154-2.974l1.538-1.487c.769-.892 2.153-.892 3.076-.149l5.537 5.056c.922.743 2.306.743 3.076-.149l12.303-14.126c.769-.892 2.153-1.041 3.076-.297l1.692 1.338c.923.744 1.076 2.082.307 2.974L70.588 67.063c-.922.744-2.307.892-3.229.149z" fill="#515150"/></g></symbol></svg>