<svg xmlns="http://www.w3.org/2000/svg" xmlns:xlink="http://www.w3.org/1999/xlink" viewBox="0 0 207 81" fill="#fff" fill-rule="evenodd" stroke="#000" stroke-linecap="round" stroke-linejoin="round"><use xlink:href="#A" x=".5" y=".5"/><symbol id="A" overflow="visible"><g stroke="none"><path d="M204.526 41.429h-61.832c-2.379-3.334-5.709-5.714-10.941-5.714h-10.94V0h-38.05v35.715h-9.989-.951c-3.806.476-7.611 2.381-9.989 5.714H0v32.38h61.834C64.211 77.142 67.541 80 72.773 80h59.454c4.757 0 8.561-2.382 10.94-6.191H205v-32.38z"/><path d="M7.135 48.572h53.747v18.095H7.135zm125.093-5.715h-18.075V7.143h-23.78v35.714H72.774s-6.183.953-6.183 5.715v17.619s.951 5.714 6.183 5.714h59.455c5.233 0 6.184-5.714 6.184-5.714V48.572c-.477 0-.951-5.715-6.184-5.715zm11.89 5.715h53.748v18.095h-53.748z" fill="#515150"/></g></symbol></svg>