<svg xmlns="http://www.w3.org/2000/svg" xmlns:xlink="http://www.w3.org/1999/xlink" viewBox="0 0 102 81" fill="#fff" fill-rule="evenodd" stroke="#000" stroke-linecap="round" stroke-linejoin="round"><use xlink:href="#A" x=".5" y=".5"/><symbol id="A" overflow="visible"><g stroke="none"><path d="M6.888 80C2.551 80 0 76.467 0 73.186V6.309C0 3.028 2.551.252 5.867 0h.511 87.244C97.194 0 100 2.776 100 6.309v67.13c0 3.533-2.806 6.31-6.378 6.31L6.888 80z"/><path d="M69.133 57.034V45.678h11.479v11.356H69.133zm-15.306 0V45.678h11.479v11.356H53.827zm15.306-15.142V30.536h11.479v11.357H69.133zM19.132 57.034v-26.75h27.041v26.75H19.132zm34.694-15.142V30.536h11.479v11.357H53.827zM88.52 18.927H11.481v49.464H88.52V18.927zm5.103 57.287H6.888c-3.062 0-3.062-3.028-3.062-3.028V6.309c0-1.262 1.021-2.524 2.296-2.524h.256 87.244c1.531 0 2.551 1.262 2.551 2.524v67.13c0 1.514-1.02 2.776-2.551 2.776z" fill="#515150"/></g></symbol></svg>