<svg xmlns="http://www.w3.org/2000/svg" xmlns:xlink="http://www.w3.org/1999/xlink" viewBox="0 0 81 81" fill="#fff" fill-rule="evenodd" stroke="#000" stroke-linecap="round" stroke-linejoin="round"><use xlink:href="#A" x=".5" y=".5"/><symbol id="A" overflow="visible"><g stroke="none"><path d="M29.292 80H5.146C2.311 80 0 77.72 0 74.922V26.425c0-2.798 2.311-5.078 5.146-5.078h8.293V5.078C13.439 2.28 15.749 0 18.583 0h56.272C77.69 0 80 2.28 80 5.078v40.518c0 2.798-2.31 5.077-5.144 5.077h-40.42v24.249c0 2.798-2.31 5.078-5.144 5.078z"/><path d="M29.292 66.943H5.146V29.948h7.244v-7.046H5.146c-1.995 0-3.57 1.554-3.57 3.523v48.497c0 1.968 1.575 3.523 3.57 3.523h24.146c1.994 0 3.57-1.555 3.57-3.523V51.813h-3.57v15.129zm-8.923 6.218c0 .518-.316.933-.946.933h-4.514c-.525 0-.945-.311-.945-.933v-1.762a.87.87 0 0 1 .945-.932h4.514c.525 0 .946.311.946.932v1.762z" fill="#515050"/><path d="M74.855 1.555H18.583c-1.995 0-3.57 1.554-3.57 3.524v40.518c0 1.968 1.575 3.523 3.57 3.523h56.272c1.994 0 3.57-1.555 3.57-3.523V5.079c0-1.969-1.576-3.524-3.57-3.524zm-7.14 2.591h2.729V6.84h-2.729V4.146zm-5.355 0h2.731V6.84h-2.731V4.146zM75.8 45.596a.87.87 0 0 1-.945.932H18.583c-.525 0-.945-.311-.945-.932V10.363h58.056v35.233zm0-38.756H73.07V4.146H75.8V6.84z" fill="#515150"/></g></symbol></svg>