<svg xmlns="http://www.w3.org/2000/svg" xmlns:xlink="http://www.w3.org/1999/xlink" viewBox="0 0 76 81" fill="#fff" fill-rule="evenodd" stroke="#000" stroke-linecap="round" stroke-linejoin="round"><use xlink:href="#A" x=".5" y=".5"/><symbol id="A" overflow="visible"><g stroke="none"><path d="M67.315 13.197H52.523C48.68 5.372 40.645 0 31.328 0h-.816l-1.98.117v2.336l-.816-.117c-.115 0-.814-.117-1.862-.117-3.261 0-9.318.701-13.743 5.138-3.144 3.154-4.774 7.708-5.008 13.314H0l12.461 14.832h0l.233.234-1.398.817 1.165 1.518c4.542 6.073 11.413 9.577 18.983 9.577 1.048 0 1.98-.117 3.028-.233v23.942c0 4.088 3.261 8.642 7.57 8.642h25.389C71.739 80 75 75.445 75 71.358v-50.57c-.117-4.204-3.493-7.591-7.685-7.591z"/><path d="M66.848 14.949H52.524c.35.934.582 1.868.816 2.803h2.562v1.518h-2.213a18.15 18.15 0 0 1 .35 3.62h11.18v21.84.117 22.774H42.974V43.913c-2.212 1.401-4.658 2.453-7.337 3.153v24.292c0 3.153 2.562 6.891 5.823 6.891h15.257.931 9.2c3.144 0 5.823-3.737 5.823-6.891V44.847v-.117-23.942a5.77 5.77 0 0 0-5.823-5.839zm-9.083 59.445H50.66v-1.752h7.105v1.752zM30.978 1.752H29.93v5.489h1.048c9.085 0 16.421 7.358 16.421 16.467s-7.337 16.467-16.421 16.467c-5.24 0-9.899-2.453-12.927-6.307l-4.659 2.92c3.96 5.372 10.366 8.876 17.586 8.876 12.112 0 22.011-9.927 22.011-22.073-.115-11.912-9.899-21.84-22.011-21.84zm-3.843 2.336S8.152 1.752 8.501 22.541H3.493l8.618 10.16 9.433-10.16h-6.172c0 .117-2.096-11.095 11.763-18.453zm11.647 31.533l-11.646-7.708V14.716h5.59v10.277l9.083 6.073z" fill="#515150"/></g></symbol></svg>