<svg xmlns="http://www.w3.org/2000/svg" xmlns:xlink="http://www.w3.org/1999/xlink" viewBox="0 0 81 81" fill="#fff" fill-rule="evenodd" stroke="#000" stroke-linecap="round" stroke-linejoin="round"><use xlink:href="#A" x=".5" y=".5"/><symbol id="A" overflow="visible"><g stroke="none"><path d="M75.875 80H44.051a3.96 3.96 0 0 1-3.978-3.978V54.07H4.568C1.621 54.07 0 51.713 0 49.503V4.567C0 2.357 1.621 0 4.568 0h66.151c2.21 0 4.567 1.62 4.567 4.567v14.291h.736A3.96 3.96 0 0 1 80 22.836v53.186C79.852 78.232 78.085 80 75.875 80z"/><path d="M75.875 77.79H44.052c-.883 0-1.768-.737-1.768-1.768V22.836c0-1.031.884-1.768 1.768-1.768h31.823c1.032 0 1.768.737 1.768 1.768v53.186c0 1.031-.736 1.768-1.768 1.768h0zm-19.447-4.715H63.5v-2.357h-7.072v2.357h0zm16.501-47.293h-25.93v40.074h25.93V25.783h0zM68.214 6.925H6.778v37.716h33.001v7.072H4.42c-2.357 0-2.357-2.357-2.357-2.357V4.42s0-2.357 2.357-2.357h66.151s2.357 0 2.357 2.357v14.143h-4.714V6.925h0z" fill="#515150"/></g></symbol></svg>