<svg xmlns="http://www.w3.org/2000/svg" xmlns:xlink="http://www.w3.org/1999/xlink" viewBox="0 0 81 81" fill="#fff" fill-rule="evenodd" stroke="#000" stroke-linecap="round" stroke-linejoin="round"><use xlink:href="#A" x=".5" y=".5"/><symbol id="A" overflow="visible"><g stroke="none"><path d="M56.054 65c-.926-1.297-2.226-2.223-4.268-2.223h-4.268V51.852c.37.186.928.186 1.484.186h12.807c2.414 0 4.454-1.852 4.454-4.445V35.37c0-2.407-1.67-3.89-3.526-5.556l-4.268-3.334c.742-.185 1.298-.37 1.67-.926l4.64-5c.372-.555 1.484-1.482 1.484-3.333V4.444C66.263 2.037 64.407 0 61.809 0H49.558c-2.412 0-3.898 1.666-5.568 3.518l-3.342 4.26c-.186-.556-.372-1.297-.928-1.667l-5.012-4.63C34.153 1.11 33.225 0 31.368 0H18.561c-2.414 0-4.454 1.852-4.454 4.444v12.222c0 2.407 1.67 3.889 3.526 5.556l4.27 3.333c-.744.186-1.3.37-1.672.926l-4.64 5c-.372.557-1.484 1.482-1.484 3.334v12.777c0 2.408 1.854 4.445 4.454 4.445h12.251c.742 0 1.3-.186 1.856-.371v11.111H28.4h-.372c-1.486.186-2.97.926-3.898 2.223H0v12.592h24.13C25.058 78.888 26.356 80 28.4 80h23.2c1.858 0 3.342-.927 4.27-2.408H80V65H56.054z"/><path d="M51.972 65.37h-7.053v-13.89h-9.281v13.89h-7.054s-2.414.37-2.414 2.222v6.852s.372 2.222 2.414 2.222h23.202c2.042 0 2.414-2.222 2.414-2.222v-6.852c0 .186-.186-2.222-2.228-2.222zM3.156 74.63H24.13v-7.038H3.156v7.038zm53.456-6.853v7.037h20.976v-7.037H56.612zM19.675 20.185c2.97 2.593 7.981 6.296 11.693 8.519 1.672.927 3.528 1.852 3.714 2.037.184 0 .37-.186.556-.186l.556-.555s.186-.37 0-.556L23.758 17.037c-.186-.185-.186-.927-.186-1.297V10c0-.37.186-.556.558-.556h7.795c.186 0 .742 0 .742.186l2.598 2.592c.186.185.372.185.558 0l2.042-2.963c.186-.186.186-.741 0-.741l-4.826-4.63c-.372-.37-.742-.74-1.486-.74H18.747c-.928 0-1.67.556-1.67 1.667v12.223c0 .74.928 1.666 2.598 3.148zm15.963.74c0 .186.186.371.186.556l.556.557s.372.185.558 0L49.373 9.63c.186-.186.928-.186 1.3-.186h5.754c.372 0 .558.186.558.556v7.777c0 .186 0 .74-.186.74L54.2 21.111c-.186.185-.186.37 0 .556l2.97 2.037c.186.185.742.185.742 0l4.642-4.815c.37-.37.742-.74.742-1.48V4.63c0-.927-.558-1.667-1.672-1.667H49.373c-1.112 0-1.854.74-3.526 2.592-2.598 2.963-6.312 7.963-8.537 11.667-.558 1.666-1.486 3.518-1.672 3.703zm12.065 27.593c.372.37.744.741 1.486.741h12.807c.928 0 1.67-.556 1.67-1.667V35.37c0-1.111-.742-1.853-2.6-3.519-2.968-2.593-7.979-6.297-11.693-8.519-1.67-.926-3.526-1.852-3.712-2.037-.186 0-.372.185-.556.185l-.558.557s-.186.37 0 .555L56.984 35c.186.185.186.925.186 1.296v5.741c0 .37-.186.555-.558.555h-7.795c-.186 0-.742 0-.742-.185l-2.6-2.593c-.186-.185-.37-.185-.556 0l-2.042 2.963c-.186.185-.186.74 0 .74-.186.37 4.456 4.63 4.826 5zM23.758 33.703l2.598-2.593c.186-.186.186-.37 0-.556l-2.968-2.037c-.186-.185-.744-.185-.744 0l-4.64 4.815c-.372.37-.742.74-.742 1.481v12.777c0 .926.556 1.667 1.67 1.667h12.249c1.116 0 1.858-.741 3.528-2.593 2.6-2.963 6.31-7.963 8.539-11.666.928-1.667 1.856-3.52 2.04-3.704 0-.185-.184-.371-.184-.556l-.558-.556s-.37-.185-.556 0L31.554 42.592c-.186.186-.928.186-1.3.186H24.5c-.37 0-.556-.186-.556-.556v-7.777c-.372 0-.372-.557-.186-.741z" fill="#515150"/></g></symbol></svg>