<svg xmlns="http://www.w3.org/2000/svg" xmlns:xlink="http://www.w3.org/1999/xlink" viewBox="0 0 86 81" fill="#fff" fill-rule="evenodd" stroke="#000" stroke-linecap="round" stroke-linejoin="round"><use xlink:href="#A" x=".5" y=".5"/><symbol id="A" overflow="visible"><g stroke="none"><path d="M68.596 80H23.711l.149-2.349c0-1.174-.448-2.788-.896-3.816H0l.149-2.349c.149-3.229.895-9.835 1.64-12.917s1.64-6.018 5.069-7.78c2.238-1.027 3.58-1.615 4.624-1.761l.596-2.496c-1.194-1.908-1.939-4.109-1.939-6.459 0-3.963 1.939-7.485 5.071-9.688V7.193C15.21 1.908 19.535 0 22.517 0h55.176C80.675 0 85 1.908 85 7.193v34.642c0 5.285-4.325 7.193-7.307 7.193h-20.58c-.148.293-.297.44-.297.734l1.938 4.991c.746.294 1.64.734 2.685 1.174 3.727 1.762 4.622 4.698 5.368 8.074.745 3.229 1.493 10.129 1.64 13.505L68.596 80z"/><path d="M77.693 2.349H22.368s-5.069 0-5.069 4.991v20.991h3.727V6.166h57.709v34.642h-21.77v6.165h2.982 17.746s5.069 0 5.069-4.991V7.34c-.149-4.991-5.069-4.991-5.069-4.991zM25.947 77.798c.149-3.376 1.043-10.129 1.64-13.21.745-3.524 1.64-5.285 4.176-6.606s3.877-1.761 4.772-1.761 1.341.441 1.788.88c.149 0 .149.147.299.147 2.535 2.055 4.921 2.642 7.307 2.642 2.535 0 4.921-.441 7.307-2.642.149 0 .149-.147.299-.147.596-.44 1.043-.88 1.788-.88.896 0 2.238.441 4.773 1.761s3.429 3.082 4.176 6.606c.745 3.082 1.489 9.981 1.639 13.21H25.947h0zm20.131-23.486c-5.517 0-9.99-4.991-9.99-11.156S40.561 32 46.078 32s9.992 4.991 9.992 11.157c0 6.311-4.475 11.156-9.992 11.156h0zm-16.553 1.467c2.984-1.467 4.624-2.054 5.966-2.054h.448c-.448-.294-.896-.734-1.493-.881-2.384-1.174-3.727-1.615-4.473-1.615s-1.192.44-1.79.881l-.148.147c-2.387 2.055-4.624 2.349-6.86 2.349s-4.622-.44-6.86-2.349c-.149 0-.149-.147-.149-.147-.596-.441-.893-.881-1.788-.881s-2.089.44-4.473 1.615-3.133 2.935-3.878 6.312c-.596 2.936-1.343 9.395-1.491 12.477h20.727c.299-2.788.747-5.724 1.194-7.632.299-3.229 1.342-6.312 5.069-8.221zm-8.499-6.312c4.921 0 8.798-4.11 8.798-9.247s-3.877-9.248-8.798-9.248-8.798 4.11-8.798 9.248 4.026 9.247 8.798 9.247z" fill="#515150"/></g></symbol></svg>