<svg xmlns="http://www.w3.org/2000/svg" xmlns:xlink="http://www.w3.org/1999/xlink" viewBox="0 0 117 81" fill="#fff" fill-rule="evenodd" stroke="#000" stroke-linecap="round" stroke-linejoin="round"><use xlink:href="#A" x=".5" y=".5"/><symbol id="A" overflow="visible"><g stroke="none"><path d="M102.736 49.458c-1.553-1.562-3.624-2.604-5.696-3.124-.346-.695-.519-1.388-1.036-2.083h5.006l12.261-13.015-12.261-13.015h4.145V7.809H85.471L93.239 0H79.426L67.515 12.668c0-2.95-2.418-4.513-4.662-4.513H4.662C1.555 8.156 0 10.585 0 12.841v39.567c0 2.256 1.555 4.685 4.662 4.685h30.563v18.742c0 2.256 1.899 4.165 4.145 4.165h25.726 2.245 32.978c8.117 0 14.676-6.941 14.676-15.445.173-7.636-5.179-14.056-12.26-15.097z"/><g fill="#515150"><path d="M67.514 77.223H39.543c-.863 0-1.555-.695-1.555-1.562V28.806c0-.868.692-1.562 1.555-1.562h27.972c.861 0 1.553.695 1.553 1.562v46.855c0 .868-.692 1.562-1.553 1.562h0zM50.42 73.058h6.215v-2.083H50.42v2.083h0zM64.923 31.41H42.13v35.401h22.793V31.41h0zm-4.145-16.833H6.736v33.319h29.006v6.248H4.662c-2.071 0-2.071-2.083-2.071-2.083V12.494s0-2.082 2.071-2.082h58.191s2.071 0 2.071 2.082v12.494h-4.145V14.577h0zm41.786-4.338h-16.92-6.39l7.771-7.809h-6.56l-9.843 10.412 9.843 10.412h6.56l-7.771-7.809h6.39 16.92zM77.873 33.666h16.921 6.388l-7.771 7.809h6.563l9.841-10.412-9.841-10.413h-6.563l7.771 7.81h-6.388-16.921z"/><path d="M101.529 51.887c-1.726-1.909-3.972-3.124-6.561-3.471-1.728-6.073-6.907-10.238-12.95-10.238-3.972 0-7.426 1.735-10.014 4.858-.863-.174-1.901-.347-2.764-.347-.517 0-1.034 0-1.553.173v3.818c.519 0 1.036-.174 1.553-.174 1.036 0 2.074.174 2.937.522l1.38.52.863-1.214c1.899-2.776 4.662-4.339 7.771-4.339 4.662 0 8.634 3.644 9.495 8.503l.346 1.562h1.553c2.072 0 4.316 1.041 5.7 2.776l.517.694h.863c4.489 0 8.115 3.992 8.115 8.85s-3.799 9.024-8.288 9.024H67.859v3.818h32.634c6.561 0 12.087-5.727 12.087-12.842 0-6.594-4.835-11.974-11.05-12.494z"/></g></g></symbol></svg>