<svg xmlns="http://www.w3.org/2000/svg" xmlns:xlink="http://www.w3.org/1999/xlink" viewBox="0 0 101 81" fill="#fff" fill-rule="evenodd" stroke="#000" stroke-linecap="round" stroke-linejoin="round"><use xlink:href="#A" x=".5" y=".5"/><symbol id="A" overflow="visible"><g stroke="none"><path d="M91.659 80H8.333C3.75 80 0 76.129 0 71.398V8.602C0 3.871 3.75 0 8.333 0h83.325c4.583 0 8.333 3.871 8.333 8.602v62.796c.207 4.516-3.75 8.602-8.333 8.602z"/><path d="M38.123 42.365v8.172h2.707v-8.172h-2.707zm21.039 0v8.172h2.707v-8.172h-2.707zm5.416 10.968h-7.916v-5.377H43.539v5.377h-7.918v-5.377H24.998v13.549h50.203V47.956H64.578v5.377zm-5.416-19.14v-6.452l-1.25-1.72H42.08l-1.25 1.72v6.452H24.998v10.968h10.623v-5.377h7.918v5.377h13.123v-5.377h7.916v5.377h10.623V34.193H59.162zm-2.5 0H43.539v-5.377h13.123v5.377zM91.659 2.796H8.333c-2.915 0-5.207 2.366-5.207 5.376v62.797c0 3.01 2.292 5.375 5.207 5.375h83.326c2.915 0 5.207-2.366 5.207-5.375V8.172c.209-2.796-2.292-5.376-5.207-5.376zM81.034 6.882h3.959v4.086h-3.959V6.882zm-7.916 0h3.959v4.086h-3.959V6.882zm20 64.301c0 .86-.626 1.29-1.252 1.29H8.542c-.835 0-1.25-.645-1.25-1.29V16.559h86.034v54.624zm0-60.001h-3.959V7.098h3.959v4.085z" fill="#515150"/></g></symbol></svg>