<svg xmlns="http://www.w3.org/2000/svg" xmlns:xlink="http://www.w3.org/1999/xlink" viewBox="0 0 67 81" fill="#fff" fill-rule="evenodd" stroke="#000" stroke-linecap="round" stroke-linejoin="round"><use xlink:href="#A" x=".5" y=".5"/><symbol id="A" overflow="visible"><g stroke="none"><path d="M53.78 58.046c2.805-2.728 4.391-6.573 4.391-10.542 0-1.116-.122-2.357-.367-3.349V0H0v69.333h28.415l-3.17 6.078 9.389-1.612L40.487 80l3.658-13.147 4.635 12.9 5.365-7.566L65 74.79 53.78 58.046z"/><path d="M4.633 64.621V4.589h48.66v30.884c1.097.868 1.951 1.861 2.805 2.977V1.737H1.951v65.612h26.951l1.462-2.853H4.633zm51.83-17.117c0-7.069-5.61-12.899-12.683-12.899-6.951 0-12.683 5.83-12.683 12.899 0 4.341 2.073 8.186 5.366 10.542L28.78 72.93l6.585-1.117 4.269 4.59 4.268-15.628 5.366 15.131 4.145-5.705 7.439 1.736-9.389-14.015c3.048-2.48 4.999-6.202 4.999-10.419zM43.78 57.923c-5.609 0-10.243-4.713-10.243-10.419s4.634-10.418 10.243-10.418 10.243 4.713 10.243 10.418S49.39 57.923 43.78 57.923zm0-18.357c-4.268 0-7.805 3.597-7.805 7.938s3.537 7.938 7.805 7.938 7.806-3.597 7.806-7.938c-.122-4.341-3.537-7.938-7.806-7.938zm0 14.14c-3.415 0-6.098-2.853-6.098-6.202s2.805-6.202 6.098-6.202 6.098 2.853 6.098 6.202-2.683 6.202-6.098 6.202zM15.122 11.783h27.683v3.1H15.122zm0 7.566h27.683v3.101H15.122zm0 7.442h27.683v3.1H15.122z" fill="#515150"/></g></symbol></svg>