<svg xmlns="http://www.w3.org/2000/svg" xmlns:xlink="http://www.w3.org/1999/xlink" viewBox="0 0 71 81" fill="#fff" fill-rule="evenodd" stroke="#000" stroke-linecap="round" stroke-linejoin="round"><use xlink:href="#A" x=".5" y=".5"/><symbol id="A" overflow="visible"><g stroke="none"><path d="M66.59 52.043v-4.445c0-3.154-1.189-6.165-2.967-8.458V0H0v72.401h34.408v3.298c0 2.438 1.927 4.301 4.448 4.301H65.55c2.521 0 4.45-1.864 4.45-4.301V56.344c0-2.151-1.483-3.727-3.41-4.301zm-1.04 25.663v-2.151h0v2.151z"/><path d="M5.487 66.953V5.305h52.5v28.387c1.187.43 2.373 1.147 3.41 1.864V2.151H2.077v68.1h31.144v-3.298H5.487zm11.271-54.336h30.107v3.298H16.758zm0 7.742h30.107v3.298H16.758zm0 7.742h30.107v3.298H16.758zM65.55 54.05h-1.186v-6.451c0-6.594-5.487-11.899-12.31-11.899s-12.308 5.305-12.308 11.899v6.451H38.56c-1.189 0-2.226 1.004-2.226 2.151v19.355c0 1.147 1.037 2.151 2.226 2.151h26.694c1.187 0 2.224-1.004 2.224-2.151V56.201c.297-1.147-.741-2.151-1.929-2.151zm-5.634 0H44.343v-6.451c0-4.157 3.411-7.598 7.86-7.598 4.301 0 7.86 3.298 7.86 7.598v6.451z" fill="#515150"/></g></symbol></svg>