<svg xmlns="http://www.w3.org/2000/svg" xmlns:xlink="http://www.w3.org/1999/xlink" viewBox="0 0 71 81" fill="#fff" fill-rule="evenodd" stroke="#000" stroke-linecap="round" stroke-linejoin="round"><use xlink:href="#A" x=".5" y=".5"/><symbol id="A" overflow="visible"><g stroke="none"><path d="M62.019 44.514h0-1.72V0H0v71.469h33.526v1.854h0V80h9.947.246c6.141-1.483 11.667-4.699 16.088-9.15 2.333-2.349 4.298-5.07 5.895-7.913 2.702-5.07 4.175-10.758 4.298-16.569v-1.854h-7.981z"/><g fill="#515150"><path d="M4.544 66.893V4.574h51.088v39.32h2.825V1.854H1.843v67.76h30.21v-2.721zm11.175-54.776h28.984v3.215H15.719zm0 7.79h28.984v3.215H15.719zm0 7.666h28.984v3.215H15.719zm26.773 25.843c-1.965 1.978-4.667 2.968-7.246 2.968v4.575c3.807 0 7.613-1.483 10.438-4.328a14.87 14.87 0 0 0 4.298-10.386H45.44c.122 2.596-.983 5.193-2.948 7.171zm6.385 6.43c-3.807 3.709-8.72 5.687-13.631 5.687v4.575c6.018 0 12.157-2.349 16.702-6.924s6.876-10.634 6.999-16.693h-4.544c.123 4.699-1.842 9.645-5.527 13.354z"/><path d="M64.105 46.368h-.491c0 7.295-2.825 14.466-8.35 20.031s-12.772 8.284-20.018 8.284v3.586h7.983c5.527-1.36 10.929-4.328 15.228-8.655 2.333-2.35 4.176-4.823 5.648-7.543 2.579-4.822 3.931-10.263 4.054-15.579l-4.054-.124zm-24.806-2.102c-.123-.124-.369-.247-.491-.495a4.22 4.22 0 0 0-5.036 0c-.123.124-.369.248-.491.371-.614.619-.983 1.36-1.228 2.226v1.607a3.4 3.4 0 0 0 1.228 2.226c1.72 1.731 4.421 1.731 6.018 0 1.719-1.483 1.719-4.204 0-5.935z"/></g></g></symbol></svg>