<svg xmlns="http://www.w3.org/2000/svg" xmlns:xlink="http://www.w3.org/1999/xlink" viewBox="0 0 81 81" fill="#fff" fill-rule="evenodd" stroke="#000" stroke-linecap="round" stroke-linejoin="round"><use xlink:href="#A" x=".5" y=".5"/><symbol id="A" overflow="visible"><g stroke="none"><path d="M76.262 44.76H61.084V0H0v71.592h33.838v4.699c0 2.102 1.743 3.71 3.733 3.71h38.691c2.114 0 3.732-1.731 3.732-3.71V48.47c.125-2.102-1.618-3.71-3.732-3.71z"/><path d="M32.097 69.613H1.866V1.855h57.352v41.669h-2.737V4.575H4.726v62.319h27.371zM15.924 12.118h29.36v3.215h-29.36zm0 7.789h29.36v3.215h-29.36zm0 7.666h29.36v3.215h-29.36zm60.338 19.042H37.571a1.91 1.91 0 0 0-1.866 1.855v27.82a1.91 1.91 0 0 0 1.866 1.855h38.691a1.91 1.91 0 0 0 1.864-1.855V48.47c.125-1.113-.745-1.855-1.864-1.855zm-1.867 3.709v2.72L56.729 64.791 39.561 53.045v-2.72h34.834zM39.561 74.312V57.62L55.61 68.625c.374.247.747.37 1.119.37s.747-.123.996-.37l16.67-11.005v16.816H39.561z" fill="#515050"/></g></symbol></svg>