<svg xmlns="http://www.w3.org/2000/svg" xmlns:xlink="http://www.w3.org/1999/xlink" viewBox="0 0 111 81" fill="#fff" fill-rule="evenodd" stroke="#000" stroke-linecap="round" stroke-linejoin="round"><use xlink:href="#A" x=".5" y=".5"/><symbol id="A" overflow="visible"><g stroke="none"><path d="M108.124 59.968l-3.103-1.284v-.129-2.954-.128-.129l3.103-1.284c.776-.257 1.293-.899 1.682-1.669.259-.771.259-1.541 0-2.312l-1.682-4.109c-.517-1.155-1.551-1.926-2.845-1.926-.387 0-.775.129-1.164.257l-3.103 1.284-.13-.128-2.199-2.183-.13-.129-.13-.128 1.295-3.082c.647-1.541-.13-3.339-1.682-3.981l-2.329-.899-1.423-2.054c-1.164-1.798-2.716-3.339-4.526-4.495v-.899c0-10.915-8.407-19.775-18.755-19.775-2.197 0-4.267.385-6.207 1.156C61.176 3.467 55.226 0 48.889 0c-9.441 0-17.59 7.32-19.141 17.079h-.518c-4.656 0-9.052 2.182-12.157 6.035h-.13C7.631 23.242 0 31.332 0 41.092c0 9.887 7.631 17.849 17.073 17.849h13.451v3.595h-2.975-.259c-1.034.129-2.069.642-2.716 1.541H7.76v8.732h16.814c.647.899 1.552 1.669 2.975 1.669h16.167c1.293 0 2.327-.642 2.974-1.669h16.814v-8.732H46.69c-.647-.899-1.551-1.541-2.974-1.541h-2.975v-3.595h27.16l-2.716 1.156c-.776.257-1.293.899-1.682 1.669a3.55 3.55 0 0 0 0 2.311l1.682 4.109c.647 1.541 2.457 2.312 4.009 1.669l3.105-1.284.13.129 2.068 2.054.13.129.13.128-1.293 3.082c-.647 1.541.13 3.339 1.682 3.981l4.139 1.669c1.551.642 3.362-.129 4.009-1.669l1.293-3.082h.13c.128 0 .776.129 1.682.129s1.551-.129 1.681-.129h.13l1.293 3.082C90.018 79.23 91.052 80 92.345 80c.389 0 .776-.129 1.165-.257l4.139-1.669c1.551-.642 2.328-2.44 1.681-3.981l-1.293-3.082.13-.128 2.069-2.055.13-.129.13-.129 3.103 1.284c.389.129.776.257 1.164.257 1.293 0 2.328-.77 2.845-1.926l1.682-4.109c1.165-1.669.387-3.467-1.165-4.109z"/><g fill="#515150"><path d="M10.218 65.875h14.615v4.88H10.218zm33.885-1.541h-4.915v-9.631h-6.467v9.631h-4.913s-1.682.257-1.682 1.541v4.751s.259 1.541 1.682 1.541h16.167c1.421 0 1.681-1.541 1.681-1.541v-4.751c.13 0-.13-1.541-1.552-1.541zm3.235 1.541h14.615v4.88H47.338z"/><path d="M68.807 55.218l-3.105-1.285c-.775-.257-1.293-.899-1.682-1.669a3.55 3.55 0 0 1 0-2.311l1.682-4.11c.647-1.541 2.458-2.311 4.01-1.669l3.103 1.285.13-.129.13-.129 2.069-2.055.13-.128-1.294-3.082a3.55 3.55 0 0 1 0-2.311c.259-.771.906-1.285 1.682-1.67l4.139-1.669c.389-.128.776-.257 1.164-.257 1.294 0 2.328.77 2.845 1.926l1.293 3.082h.13c.13 0 .648-.129 1.682-.129.904 0 1.551.129 1.681.129h.13l1.294-3.082c.517-1.156 1.681-1.926 2.846-1.797-1.295-1.926-2.975-3.467-4.916-4.495.13-.642.13-1.284.13-1.926 0-9.888-7.501-17.849-16.814-17.849-2.457 0-4.785.513-6.984 1.669-3.103-5.779-8.794-9.503-15.132-9.503-9.313 0-16.814 7.705-17.46 17.336-.776-.129-1.423-.257-2.199-.257-4.398 0-8.536 2.311-11.123 6.035h-1.034C9.057 25.297 2.33 32.488 2.33 41.22s6.726 15.923 15.132 15.923h51.347v-1.541-.385zm38.671 6.548l-3.492-1.413c-.517-.257-1.035-.514-1.035-.643s.13-.77.13-1.283v-2.826c0-.641-.13-1.156-.13-1.284s.389-.385 1.035-.642l3.492-1.413c.517-.257.904-.899.645-1.413l-1.681-4.109c-.259-.513-.906-.899-1.423-.642l-3.492 1.412c-.517.257-1.034.386-1.164.257s-.517-.514-.906-1.027l-2.069-2.183c-.517-.386-.906-.771-1.034-.899s0-.642.258-1.156l1.423-3.467c.258-.514 0-1.284-.647-1.412l-4.139-1.67c-.517-.257-1.295 0-1.423.642l-1.423 3.467c-.259.513-.517 1.028-.647 1.028s-.776-.129-1.295-.129c0 0-.647-.129-1.421-.129s-1.423.129-1.423.129c-.648.129-1.165.129-1.294.129s-.387-.386-.647-1.028l-1.421-3.467c-.259-.513-.906-.899-1.424-.642l-4.137 1.67c-.518.257-.906.898-.647 1.412l1.421 3.467c.259.514.387 1.027.259 1.156a9.57 9.57 0 0 1-1.034.899l-2.071 2.055c-.387.513-.776.898-.904 1.027s-.647 0-1.164-.257l-3.492-1.413c-.517-.257-1.295 0-1.424.643l-1.681 4.108c-.259.514 0 1.285.647 1.413l3.492 1.413c.517.257 1.034.513 1.034.641s-.13.771-.13 1.285v2.825c0 .642.13 1.155.13 1.284s-.387.385-1.034.642l-3.492 1.413c-.517.257-.906.899-.647 1.413l1.681 4.109c.259.514.907.899 1.424.642l3.492-1.413c.517-.257 1.034-.385 1.164-.257a9.42 9.42 0 0 1 .904 1.027l2.071 2.054c.517.385.904.771 1.034.899s0 .643-.259 1.156l-1.421 3.467c-.259.513 0 1.285.647 1.413l4.137 1.669c.518.257 1.294 0 1.424-.642l1.421-3.467c.259-.514.518-1.027.647-1.027s.776.129 1.294.129c0 0 .647.128 1.423.128s1.421-.128 1.421-.128c.648-.129 1.165-.129 1.295-.129s.387.385.647 1.027l1.423 3.467c.258.514.906.899 1.423.642l4.139-1.669c.517-.257.904-.899.647-1.413l-1.423-3.467c-.258-.513-.387-1.027-.258-1.156a9.64 9.64 0 0 1 1.034-.899l2.069-2.054a9.59 9.59 0 0 1 .906-1.027c.13-.128.647 0 1.164.257l3.492 1.413c.517.257 1.293 0 1.423-.642l1.681-4.109c.13-.385-.128-1.155-.645-1.284zm-20.565 6.292c-6.208 0-11.252-5.008-11.252-11.171s5.044-11.172 11.252-11.172 11.252 5.008 11.252 11.172-5.044 11.171-11.252 11.171z"/></g></g></symbol></svg>