<svg xmlns="http://www.w3.org/2000/svg" xmlns:xlink="http://www.w3.org/1999/xlink" viewBox="0 0 81 81" fill="#fff" fill-rule="evenodd" stroke="#000" stroke-linecap="round" stroke-linejoin="round"><use xlink:href="#A" x=".5" y=".5"/><symbol id="A" overflow="visible"><g stroke="none"><path d="M74.478 0H19.033c-3.034 0-5.654 2.449-5.654 5.578v15.51H5.654C2.621 21.089 0 23.537 0 26.667v47.755C0 77.415 2.483 80 5.654 80h23.724c3.034 0 5.654-2.449 5.654-5.578V51.02H74.34c3.034 0 5.654-2.449 5.654-5.578v-40C80.133 2.586 77.651 0 74.478 0z"/><path d="M29.653 66.531H5.931V30.069h7.033V23.13H5.931c-1.93 0-3.586 1.497-3.586 3.537v47.755c0 1.905 1.517 3.537 3.586 3.537h23.723c1.93 0 3.586-1.497 3.586-3.537V51.701h-3.586v14.83zm-8.827 6.122c0 .544-.415.816-.828.816h-4.413c-.551 0-.828-.408-.828-.816v-1.769c0-.545.415-.817.828-.817h4.413c.551 0 .828.408.828.817v1.769zM74.478 2.041H19.033c-1.93 0-3.586 1.497-3.586 3.537v40c0 1.905 1.517 3.538 3.586 3.538h55.446c1.93 0 3.586-1.497 3.586-3.538v-40c0-1.905-1.655-3.537-3.586-3.537zm-7.035 2.721h2.621v2.584h-2.621V4.762zm-5.24 0h2.62v2.584h-2.62V4.762zm13.239 40.68c0 .544-.413.816-.826.816H19.171c-.551 0-.828-.409-.828-.816V10.748h57.238v34.694zm0-38.095h-2.62V4.762h2.62v2.584zM38.894 28.3v5.17h1.794V28.3h-1.794zm14.069 0v5.17h1.794V28.3h-1.794zm3.448 6.939h-5.24v-3.402h-8.69v3.402H37.24v-3.402h-7.035v8.571h33.24v-8.571H56.41v3.402zM52.963 23.13v-4.082l-.828-1.089h-10.62l-.828 1.089v4.082H30.205v6.939h7.035v-3.402h5.241v3.402h8.69v-3.402h5.24v3.402h7.035V23.13H52.963zm-1.792 0h-8.69v-3.401h8.69v3.401z" fill="#515150"/></g></symbol></svg>