<svg xmlns="http://www.w3.org/2000/svg" xmlns:xlink="http://www.w3.org/1999/xlink" viewBox="0 0 91 81" fill="#fff" fill-rule="evenodd" stroke="#000" stroke-linecap="round" stroke-linejoin="round"><use xlink:href="#A" x=".5" y=".5"/><symbol id="A" overflow="visible"><g stroke="none"><path d="M84.031 50.815c.514-1.03.856-2.233.856-3.433a7.36 7.36 0 0 0-1.704-4.635 7.37 7.37 0 0 0 1.704-4.635 7.36 7.36 0 0 0-1.704-4.635 7.37 7.37 0 0 0 1.704-4.635c0-1.718-.683-3.435-1.704-4.635a7.37 7.37 0 0 0 1.704-4.635c0-2.062-.856-3.777-2.218-5.151 1.363-1.546 2.218-3.605 2.218-5.665C84.887 3.947 80.964 0 76.193 0c-2.215 0-4.092.858-5.627 2.231C69.203.858 67.499 0 65.453 0c-1.704 0-3.409.686-4.602 1.717C59.657.686 57.953 0 56.249 0s-3.409.686-4.602 1.717C50.453.686 48.748 0 47.044 0s-3.409.686-4.602 1.717C41.248.686 39.544 0 37.839 0s-3.409.686-4.602 1.717C32.043.686 30.339 0 28.635 0s-3.409.686-4.602 1.717C22.839.686 21.135 0 19.43 0c-2.042 0-3.75.858-5.113 2.231C12.786.858 10.736 0 8.69 0 3.919 0 0 3.947 0 8.754c0 2.233.849 4.119 2.215 5.665C.849 15.794 0 17.509 0 19.571a7.35 7.35 0 0 0 1.704 4.635A7.34 7.34 0 0 0 0 28.841a7.35 7.35 0 0 0 1.704 4.635A7.34 7.34 0 0 0 0 38.112a7.35 7.35 0 0 0 1.704 4.635A7.34 7.34 0 0 0 0 47.382c0 2.059.849 3.777 2.215 5.149C.849 54.076 0 56.136 0 58.197c0 4.807 3.919 8.754 8.69 8.754 2.218 0 4.095-.856 5.627-2.231 1.363 1.374 3.071 2.231 5.113 2.231 1.704 0 3.409-.686 4.602-1.715 1.194 1.028 2.898 1.715 4.602 1.715s3.409-.686 4.602-1.715c1.194 1.028 2.898 1.715 4.602 1.715s3.409-.686 4.602-1.715c1.194 1.028 2.898 1.715 4.602 1.715a7.09 7.09 0 0 0 5.965-3.261L71.418 80 90 63.004V44.805l-5.969 6.009z"/><g fill="#515150"><path d="M1.873 58.711c0-3.424 2.736-6.18 6.138-6.18s6.138 2.756 6.138 6.18-2.74 6.181-6.138 6.181-6.138-2.757-6.138-6.181zm0-10.987c0 2.575 2.046 4.635 4.602 4.635s4.602-2.06 4.602-4.635-2.046-4.635-4.602-4.635-4.602 2.06-4.602 4.635z"/><use xlink:href="#C"/><use xlink:href="#C" x="9.205"/><path d="M11.078 38.454c0-2.575-2.046-4.635-4.602-4.635s-4.602 2.06-4.602 4.635 2.046 4.635 4.602 4.635 4.602-2.06 4.602-4.635zm7.841-26.609c2.556 0 4.602-2.061 4.602-4.635s-2.046-4.635-4.602-4.635-4.602 2.061-4.602 4.635 2.046 4.635 4.602 4.635z"/><use xlink:href="#D"/><path d="M11.078 29.013c0-2.576-2.046-4.635-4.602-4.635s-4.602 2.059-4.602 4.635 2.046 4.635 4.602 4.635 4.602-2.062 4.602-4.635z"/><use xlink:href="#D" x="9.374"/><path d="M1.873 8.755c0-3.422 2.736-6.18 6.138-6.18s6.138 2.758 6.138 6.18-2.74 6.181-6.138 6.181-6.138-2.758-6.138-6.181zm9.205 10.988c0-2.577-2.046-4.635-4.602-4.635s-4.602 2.059-4.602 4.635 2.046 4.635 4.602 4.635 4.602-2.062 4.602-4.635z"/><use xlink:href="#E"/><use xlink:href="#E" x="9.204"/><path d="M42.1 7.21c0-2.568 2.053-4.635 4.602-4.635s4.602 2.068 4.602 4.635-2.053 4.635-4.602 4.635S42.1 9.778 42.1 7.21zm38.354 46.865c-.683-.514-1.366-1.03-2.215-1.372v3.605l2.215-2.233zm-2.215-11.157c2.215-.344 4.088-2.234 4.088-4.635s-1.704-4.293-4.088-4.635v.17 9.1z"/><use xlink:href="#F"/><path d="M77.384 31.758c.514.516.856 1.202.856 1.89 2.215-.344 4.088-2.234 4.088-4.635 0-2.576-2.042-4.635-4.602-4.635s-4.602 2.059-4.602 4.635c0 .686.173 1.2.342 1.887h1.877c.68 0 1.535.344 2.042.858z"/><path d="M82.328 19.743c0-2.577-2.042-4.635-4.602-4.635s-4.602 2.059-4.602 4.635 2.046 4.635 4.602 4.635 4.602-2.062 4.602-4.635zm-.001 27.981c0-2.404-1.704-4.291-4.088-4.635v9.27c2.384-.342 4.088-2.233 4.088-4.635z"/><use xlink:href="#F" x="9.204"/><path d="M70.056 8.755c0-3.422 2.74-6.18 6.138-6.18s6.134 2.758 6.134 6.18-2.736 6.181-6.134 6.181-6.138-2.758-6.138-6.181zm-16.533 40c1.19-.514 2.553-.172 3.409.686l3.067 3.091h4.092V34.163c0-1.717 1.363-3.091 3.067-3.091h2.898V15.108H14.317v37.423h24.716 12.613v-.858c0-1.374.683-2.404 1.877-2.919zm4.088-13.561H26.592v-3.091h31.019v3.091zM20.455 21.288h43.294v4.635H20.455v-4.635zm6.138 23.346v-3.089h31.019v3.089h-31.02zm48.575 19.399l.173-30.042h-8.183v30.042l-12.445-12.36v10.643L71.08 77.08l16.191-14.764V51.673z"/></g></g></symbol><defs ><path id="C" d="M14.317 60.257c0-2.569 2.053-4.635 4.602-4.635s4.602 2.066 4.602 4.635-2.053 4.635-4.602 4.635-4.602-2.068-4.602-4.635z"/><path id="D" d="M23.522 7.21c0-2.568 2.053-4.635 4.602-4.635s4.602 2.068 4.602 4.635-2.053 4.635-4.602 4.635-4.602-2.068-4.602-4.635z"/><path id="E" d="M37.498 55.45c-2.042 0-3.75 1.202-4.433 3.089 0 .858 0 1.546-.169 2.232.342 2.233 2.218 3.949 4.602 3.949 2.56 0 4.602-2.061 4.602-4.635 0-2.404-2.042-4.635-4.602-4.635z"/><path id="F" d="M51.474 7.21c0-2.568 2.053-4.635 4.602-4.635s4.602 2.068 4.602 4.635-2.049 4.635-4.602 4.635-4.602-2.068-4.602-4.635z"/></defs></svg>