<svg xmlns="http://www.w3.org/2000/svg" xmlns:xlink="http://www.w3.org/1999/xlink" viewBox="0 0 71 81" fill="#fff" fill-rule="evenodd" stroke="#000" stroke-linecap="round" stroke-linejoin="round"><use xlink:href="#A" x=".5" y=".5"/><symbol id="A" overflow="visible"><g stroke="none"><path d="M66.941 80H26.924v-7.849H7.956C3.428 72.151 0 67.215 0 62.785V8.229C0 3.671 3.549 0 7.956 0h26.555c4.406 0 7.953 3.671 7.953 8.229v30.38h18.604v5.189l1.712-2.152L70 47.974l-2.938 3.671V80z"/><path d="M65.594 78.607H29.126v-37.72h30.35v3.924H33.042v29.747h28.635V61.266h3.916zm-15.298-8.733L38.058 57.848l3.919-4.304 7.832 7.722 13.583-16.582 4.285 3.798zM34.877 2.279H8.32c-3.304 0-6.118 2.786-6.118 6.329v54.557c0 3.418 2.695 7.467 6.118 7.467h17.011V59.115H9.913V10.76h23.375v23.67h7.711V8.483c0-3.418-2.695-6.204-6.121-6.204zM15.909 64.683h7.465v1.9h-7.465v-1.9zm7.589-57.721h-3.795V5.318h3.795v1.645z" fill="#515150"/></g></symbol></svg>