<svg xmlns="http://www.w3.org/2000/svg" xmlns:xlink="http://www.w3.org/1999/xlink" viewBox="0 0 81 81" fill="#fff" fill-rule="evenodd" stroke="#000" stroke-linecap="round" stroke-linejoin="round"><use xlink:href="#A" x=".5" y=".5"/><symbol id="A" overflow="visible"><g stroke="none"><path d="M55.285 80l-.911-.35c-.367-.175-7.507-2.445-14.099-10.306H0V0h72.315v36.679c.182 0 .363-.175.363-.175.367-.173.915-.523 1.468-.698.363-.173 1.097-.523 2.012-.523 2.012 0 3.842 1.396 3.842 4.366 0 26.202-17.389 37.729-24.163 40.001l-.552.35z"/><path d="M2.927 2.793V66.9h34.968c-1.649-2.272-3.116-4.716-4.395-7.513H10.797V10.481h51.265v23.231c1.645 1.396 4.024 2.793 7.685 2.968V2.968H2.927zm11.717 11.181h19.772v18.69H14.644zm40.64 14.149c1.101 0 2.016.523 2.746 1.396V13.974H38.258v18.69h10.438c2.56-2.271 4.391-4.541 6.588-4.541zm-40.64 8.381v18.691h17.208c-1.831-5.241-3.113-11.354-3.113-18.691H14.644zm60.965 1.748c-2.564 1.048-3.479 2.096-7.14 2.096-9.152 0-9.338-6.986-12.999-6.986s-5.862 6.986-12.999 6.986c-3.846 0-4.758-.873-7.14-2.096 0 0-2.016-1.048-2.016 1.572 0 27.424 18.861 36.508 22.336 37.554 3.298-1.046 22.336-10.304 22.336-37.554-.367-2.445-2.016-1.746-2.379-1.572zM64.437 64.278c-.363.35-1.097.698-1.645.698s-1.282-.173-1.649-.698l-5.858-5.764-5.854 5.939c-.552.523-1.101.698-1.649.698s-1.101-.175-1.649-.523c-.915-.873-.915-2.27-.182-3.143l6.04-6.116-6.04-5.938c-.919-.873-.919-2.27 0-3.145a2.4 2.4 0 0 1 3.294 0l5.858 5.766 5.858-5.941c.915-.873 2.379-.873 3.298-.175.911.875.911 2.273.178 3.147l-6.04 6.113 6.04 5.939c.919.873.919 2.27 0 3.143z" fill="#515150"/></g></symbol></svg>