<svg xmlns="http://www.w3.org/2000/svg" xmlns:xlink="http://www.w3.org/1999/xlink" viewBox="0 0 81 81" fill="#fff" fill-rule="evenodd" stroke="#000" stroke-linecap="round" stroke-linejoin="round"><use xlink:href="#A" x=".5" y=".5"/><symbol id="A" overflow="visible"><g stroke="none"><path d="M39.906 80l-.92-.357C28.086 76.064 0 57.273 0 13.602c0-4.117 2.592-5.55 4.809-5.55.92 0 1.843.179 2.401.538l.183.179c.924.357 1.847.895 2.584 1.252 2.405 1.253 3.882 1.969 8.316 1.969 5.912 0 9.24-3.4 12.564-6.622C33.628 2.682 36.216 0 39.906 0c3.698 0 5.916 2.505 7.95 5.01 2.767 3.222 5.908 6.98 13.854 6.98 4.248 0 5.912-.715 8.313-1.969a33.55 33.55 0 0 0 2.404-1.251c.37-.179 1.477-.717 2.767-.717.74 0 4.805.359 4.805 5.727 0 43.314-28.266 62.285-38.983 66.041L39.906 80z"/><path d="M39.907 77.138C34.369 75.347 2.775 59.955 2.775 13.602c0-4.296 3.511-2.507 3.511-2.507 4.061 1.79 5.542 3.402 12.007 3.402 12.007 0 15.518-11.992 21.613-11.992s6.469 11.992 21.617 11.992c6.286 0 7.946-1.612 12.011-3.402.553-.179 3.511-1.61 3.511 2.507 0 46.174-31.781 61.745-37.14 63.536h0z" fill="#515150"/></g></symbol></svg>