<svg xmlns="http://www.w3.org/2000/svg" xmlns:xlink="http://www.w3.org/1999/xlink" viewBox="0 0 81 81" fill="#fff" fill-rule="evenodd" stroke="#000" stroke-linecap="round" stroke-linejoin="round"><use xlink:href="#A" x=".5" y=".5"/><symbol id="A" overflow="visible"><g stroke="none"><path d="M29.67 80c-.672 0-1.344-.225-2.015-.45l-7.166-2.925c-2.687-1.125-4.031-4.276-2.911-6.976l2.239-5.401-.224-.225-.224-.225-3.583-3.601-.224-.225-5.374 2.25a6.18 6.18 0 0 1-4.031 0c-1.344-.45-2.239-1.575-2.911-2.925L.336 52.096c-.448-1.35-.448-2.7 0-4.051s1.568-2.25 2.911-2.925l5.374-2.25v-.225-.225-5.176-.225l-5.374-2.25c-1.344-.45-2.239-1.575-2.911-2.925-.448-1.35-.448-2.7 0-4.051l2.911-7.201c.448-1.35 1.567-2.25 2.911-2.925 1.344-.45 2.687-.45 4.031 0l5.374 2.25.224-.225.224-.225 3.583-3.601.224-.225-2.239-5.401c-1.12-2.701.224-5.851 2.911-6.976L27.654.338c1.343-.45 2.687-.45 4.031 0s2.239 1.575 2.911 2.926l2.239 5.401h.224c.224 0 1.12-.225 2.911-.225 1.568 0 2.687.225 2.911.225h.224l2.239-5.401c.448-1.35 1.568-2.25 2.911-2.925 1.344-.45 2.687-.45 4.031 0l7.166 2.926c2.687 1.125 4.031 4.276 2.911 6.976l-2.239 5.401.224.225.224.225 3.583 3.6.224.225 5.374-2.25c1.343-.45 2.687-.45 4.031 0s2.239 1.575 2.911 2.925l2.911 7.201c.448 1.35.448 2.701 0 4.051s-1.568 2.251-2.911 2.925l-5.374 2.25v.225.225 5.176.225l5.374 2.25c2.687 1.125 4.031 4.276 2.911 6.976l-2.911 7.201c-.448 1.35-1.568 2.25-2.911 2.925a6.18 6.18 0 0 1-4.031 0l-5.374-2.25-.224.225-.224.225-3.583 3.601-.224.225 2.239 5.401c1.12 2.7-.224 5.851-2.911 6.976l-7.166 2.925c-2.687 1.125-5.822-.225-6.942-2.925l-2.239-5.401h-.224c-.224 0-1.119.225-2.911.225-1.568 0-2.687-.225-2.911-.225h-.224l-2.239 5.401c-.448 1.35-1.568 2.251-2.911 2.925-.672.225-1.344.45-2.015.45z"/><path d="M75.349 48.269l-6.046-2.475c-.895-.45-1.791-.9-1.791-1.125s.224-1.35.224-2.25v-4.951c0-1.125-.224-2.025-.224-2.25s.672-.675 1.791-1.125l6.046-2.475c.896-.45 1.568-1.575 1.12-2.475l-2.911-7.201c-.448-.9-1.568-1.575-2.464-1.125l-6.046 2.476c-.895.45-1.791.675-2.015.45a16.87 16.87 0 0 1-1.567-1.8l-3.583-3.6c-.896-.675-1.568-1.35-1.791-1.575s0-1.125.448-2.025l2.463-6.076c.448-.9 0-2.25-1.119-2.475l-7.166-2.925c-.895-.45-2.239 0-2.463 1.125l-2.463 6.076c-.448.9-.896 1.8-1.12 1.8s-1.343-.225-2.239-.225c0 0-1.119-.225-2.463-.225s-2.463.225-2.463.225c-1.12.225-2.015.225-2.24.225s-.672-.675-1.119-1.8l-2.463-6.076c-.448-.9-1.568-1.575-2.463-1.125l-7.166 2.925c-.895.45-1.568 1.575-1.12 2.475l2.464 6.076c.448.9.672 1.8.448 2.025s-.896.9-1.791 1.575l-3.583 3.6c-.672.9-1.343 1.575-1.568 1.8s-1.119 0-2.015-.45l-6.046-2.476c-.895-.45-2.239 0-2.463 1.125l-2.911 7.201c-.448.9 0 2.25 1.119 2.475l6.046 2.475c.896.45 1.791.9 1.791 1.125s-.224 1.35-.224 2.25v4.951c0 1.125.224 2.025.224 2.25s-.672.675-1.791 1.125L4.59 48.269c-.895.45-1.567 1.575-1.119 2.476l2.911 7.201c.448.9 1.568 1.575 2.463 1.125l6.046-2.475c.896-.45 1.791-.675 2.015-.45a16.8 16.8 0 0 1 1.568 1.8l3.583 3.6a16.86 16.86 0 0 1 1.791 1.575c.224.225 0 1.125-.448 2.025l-2.464 6.076c-.448.9 0 2.25 1.12 2.475l7.166 2.925c.895.45 2.239 0 2.463-1.125l2.463-6.076c.448-.9.896-1.8 1.119-1.8s1.344.225 2.24.225c0 0 1.119.225 2.463.225s2.463-.225 2.463-.225c1.12-.225 2.015-.225 2.239-.225s.672.675 1.12 1.8l2.463 6.076c.448.9 1.568 1.575 2.463 1.125l7.166-2.925c.895-.45 1.568-1.575 1.119-2.475l-2.463-6.076c-.448-.9-.672-1.8-.448-2.025s.895-.9 1.791-1.575l3.583-3.6c.672-.9 1.343-1.575 1.567-1.8s1.12 0 2.015.45l6.046 2.475c.896.45 2.239 0 2.464-1.125l2.911-7.201c.224-.9-.224-2.25-1.12-2.476zM39.746 59.296c-10.749 0-19.481-8.776-19.481-19.578S28.997 20.14 39.746 20.14s19.481 8.776 19.481 19.578-8.733 19.578-19.481 19.578z" fill="#515150"/></g></symbol></svg>