<svg xmlns="http://www.w3.org/2000/svg" xmlns:xlink="http://www.w3.org/1999/xlink" viewBox="0 0 81 81" fill="#fff" fill-rule="evenodd" stroke="#000" stroke-linecap="round" stroke-linejoin="round"><use xlink:href="#A" x=".5" y=".5"/><symbol id="A" overflow="visible"><g stroke="none"><path d="M66.373 13.825C59.365 5.529 49.634.79 39.321.79 21.998.79 6.232 14.417 2.533 32.394l-.78 3.554v5.927H0V80l12.847-13.237c7.201 7.508 16.932 12.05 26.667 12.05 17.129 0 32.115-13.233 36.007-31.406l.587-2.962.193-6.717H80V0L66.373 13.825z"/><path d="M66.176 18.567C59.951 9.875 50.221 4.146 39.513 4.146c-15.959 0-30.559 12.644-34.061 29.235h11.291c2.525-11.852 11.09-17.777 22.577-17.777 8.758 0 15.766 3.356 19.658 10.073l-9.538 9.679h27.246V7.702l-10.51 10.865zm-4.085 28.641C59.562 59.06 50.997 64.789 39.513 64.789c-8.372 0-15.183-3.163-19.268-9.285l10.121-10.271H3.112v27.85l9.932-10.271c6.614 8.1 16.156 13.433 26.47 13.433 15.963 0 29.783-12.642 33.088-29.037H62.091z" fill="#515150"/></g></symbol></svg>