<svg data-slug-id="integration" viewBox="0 0 44 44" xmlns="http://www.w3.org/2000/svg">
<path d="M14.7142 29.0174H0.5V15.9557C0.506715 15.573 0.663478 15.2082 0.936526 14.94C1.20957 14.6717 1.57706 14.5214 1.95983 14.5215H14.7654L14.7142 29.0174ZM28.9539 29.0174H14.7142V43.5389H27.5197C27.9069 43.5389 28.2782 43.3851 28.552 43.1113C28.8258 42.8375 28.9796 42.4662 28.9796 42.079L28.9539 29.0174Z" fill="#005BA1"/>
<path d="M28.9539 29.0174H14.7142V14.5215H28.9539V29.0174ZM14.7142 29.0174H0.5V42.079C0.5 42.4662 0.653803 42.8375 0.927575 43.1113C1.20135 43.3851 1.57266 43.5389 1.95983 43.5389H14.7654L14.7142 29.0174Z" fill="#0078D4"/>
<path d="M28.9536 14.5215H14.7139V1.45983C14.7139 1.07266 14.8677 0.701347 15.1414 0.427575C15.4152 0.153803 15.7865 0 16.1737 0H28.9793L28.9536 14.5215ZM43.1678 14.5215H28.9536V29.0174H41.9897C42.2978 29.0175 42.5936 28.8969 42.8138 28.6814C43.034 28.466 43.1611 28.1729 43.1678 27.8649V14.5215Z" fill="#0078D4"/>
<path d="M43.1678 14.5215H28.9536V3.29428e-08H41.9897C42.2978 -7.27702e-05 42.5936 0.120528 42.8138 0.335957C43.034 0.551387 43.1611 0.844505 43.1678 1.1525V14.5215ZM28.9536 14.5215H14.7139V27.5832C14.7206 27.9659 14.8773 28.3307 15.1504 28.5989C15.4234 28.8672 15.7909 29.0174 16.1737 29.0174H28.9793L28.9536 14.5215Z" fill="url(#integration_paint0_linear_66_1080)"/>
<defs>
<linearGradient id="integration_paint0_linear_66_1080" x1="28.9536" y1="3.29428e-08" x2="28.9536" y2="29.0174" gradientUnits="userSpaceOnUse">
<stop stop-color="#32D4F5"/>
<stop offset="0.23" stop-color="#31D0F1"/>
<stop offset="0.46" stop-color="#2CC3E6"/>
<stop offset="0.7" stop-color="#25AFD4"/>
<stop offset="0.94" stop-color="#1C92BA"/>
<stop offset="1" stop-color="#198AB3"/>
</linearGradient>
</defs>
</svg>
