<svg version="1.1" id="Layer_1" xmlns:x="ns_extend;" xmlns:i="ns_ai;" xmlns:graph="ns_graphs;" xmlns="http://www.w3.org/2000/svg" xmlns:xlink="http://www.w3.org/1999/xlink" x="0px" y="0px" viewBox="0 0 452.5 56" style="enable-background:new 0 0 452.5 56;" xml:space="preserve">
 <style type="text/css">
  .st0{fill:#0067B1;}
	.st1{fill:#D11141;}
 </style>
 <metadata>
  <sfw xmlns="ns_sfw;">
   <slices>
   </slices>
   <sliceSourceBounds bottomLeftOrigin="true" height="56" width="452.5" x="-26.2" y="-228">
   </sliceSourceBounds>
  </sfw>
 </metadata>
 <g>
  <g>
   <path class="st0" d="M196.8,3.7c-1.2,4.1-2,8.1-3.2,12.2c-0.4,0-0.8,0-1.2,0c-1.2-1.6-3.2-3.2-6.1-4.1c-2.4-1.2-5.3-2-8.1-2
			c-1.2,0-2.4,0-3.2,0c-0.8,0.4-2,0.4-3.2,1.2c-0.8,0.4-1.6,0.8-2.4,1.6c-0.8,0.8-1.2,1.6-1.2,2.4c-0.4,1.6-0.4,2.4,0.4,3.2
			c0.8,0.8,2.8,1.6,5.3,2.4c1.6,0.4,3.2,0.8,4.9,1.2c1.2,0.4,2.8,0.8,4.5,1.6c3.2,1.2,5.7,3.2,6.9,5.3c0.8,2.4,0.8,5.3,0,9.3
			c-1.6,5.3-4.9,9.7-10.1,13c-5.3,3.2-11.8,4.9-19.1,4.9c-3.7,0-7.7-0.4-10.1-1.2c-3.2-0.8-5.7-1.6-7.7-2.8
			c1.6-4.1,2.8-8.1,4.1-12.6c0.4,0,0.8,0,1.2,0c2,2.4,4.5,3.7,7.3,5.3c2.8,1.2,6.1,1.6,8.9,1.6c0.8,0,2,0,3.2,0
			c1.2-0.4,2.4-0.8,3.2-1.2c1.2-0.4,2-0.8,2.8-1.6c0.8-0.8,1.6-1.6,1.6-2.8c0.8-1.2,0.4-2.4-0.4-3.7c-0.8-0.4-1.6-1.2-3.2-1.6
			c-1.6-0.4-3.2-0.8-5.3-1.2c-2-0.8-3.7-1.2-5.3-1.6c-3.7-1.6-6.1-3.7-7.3-6.1c-1.2-2.8-1.2-5.7-0.4-9.7c1.2-4.9,4.1-8.9,8.9-12.2
			c4.9-2.8,10.5-4.5,17-4.5c3.2,0,6.5,0.4,9.3,0.8C191.9,1.6,194.7,2.4,196.8,3.7z">
   </path>
  </g>
  <path class="st1" d="M69.8,55.2h-0.4c-4.5,0-9.3,0-13.8,0h-0.4v-0.4c3.2-17,8.5-36.9,14.6-54c0.4,0,0.4,0,0.4,0h0.4
		c11.8,0,23.9,0,36.1,0h0.8c-0.4,0-0.4,0-0.4,0.4c-0.8,3.2-1.6,6.5-2.4,9.7c-0.4,0.4-0.4,0.4-0.4,0.4h-0.4c-7.3,0-15,0-22.7,0
		c-1.2,3.7-2.4,7.7-3.2,11.4c6.9,0,13.8,0,20.7,0h0.8v0.4c-1.2,3.7-2,7.3-2.8,11c-0.4,0-0.4,0-0.4,0.4h-0.4c-6.9,0-13.8,0-21.1,0
		C73,41.4,71,48.3,69.8,54.8C69.8,55.2,69.8,55.2,69.8,55.2z">
  </path>
  <path class="st0" d="M26,33.7c3.2,0,6.5,0,9.7,0c-0.4-5.3-0.4-10.5-0.4-16.2C32,23.1,28.8,28.4,26,33.7z M52.3,55.2h-0.4
		c-4.5,0-9.3,0-13.8,0h-0.4c0,0,0,0,0-0.4c-0.8-3.2-1.2-6.5-1.2-10.1c-5.7,0-11,0-16.2,0c-2,3.7-3.7,6.9-5.7,10.5h-0.4
		c-4.5,0-8.9,0-13.4,0H0c0,0,0.4-0.4,0.4-0.8C11,36.9,20.3,18.3,32.9,0.8c0.4,0,0.4,0,0.4,0h0.4c4.9,0,9.7,0,14.6,0h0.4
		c0,0,0,0,0,0.4c-0.4,17,0.8,36.5,3.7,53.5V55.2z">
  </path>
  <path class="st0" d="M116.4,33.7c3.7,0,6.9,0,10.1,0c0-5.3-0.4-11-0.4-16.2C122.9,22.7,119.7,28.4,116.4,33.7z M141.6,55.2h-0.8
		c-4.5,0-9.3,0-13.8,0h-0.4c0,0,0,0,0-0.4c0-3.2,0-6.5,0-9.7c-5.3,0-11,0-16.6,0c-2,3.2-4.5,6.9-6.5,10.1H103c-4.5,0-8.9,0-13.4,0
		h-0.8c0,0,0-0.4,0.4-0.4c10.5-17,22.7-37.3,32.9-54h0.4c4.9,0,9.7,0,14.6,0h0.4c0,0,0,0,0,0.4c2.8,16.6,4.1,36.5,4.1,53.5V55.2z">
  </path>
  <path class="st0" d="M206.9,43l-0.4,1.2c-1.6,7.3,0,11.8,11,11.8c8.1,0,15-3.7,17-11.4c1.6-5.7,0-8.9-5.3-10.5l-5.7-2
		c-2.8-1.2-3.2-2.8-2.8-4.5c0.8-2.4,3.2-4.1,5.7-4.1c3.2,0,3.7,2,2.8,5.7h8.5l0.4-1.6c2-6.5-1.2-10.5-10.1-10.5
		c-9.7,0-15,5.3-16.6,11.4c-1.6,5.3,0.4,8.5,5.3,10.1l6.1,2.4c1.6,0.8,2.8,2,2.4,4.5c-0.8,2.8-3.2,4.1-6.1,4.1c-3.2,0-4.5-2-3.7-5.3
		l0.4-1.2H206.9z M240.2,36.5c-3.2,13-2,19.9,9.7,19.5c11,0,16.6-6.5,19.9-19.5c3.7-12.6,2.4-19.5-9.3-19.5
		C249.1,17,243.8,23.9,240.2,36.5z M249.9,36.5c2-7.3,4.1-13,8.5-13c4.1,0,4.5,4.1,2,13c-2.8,9.3-4.9,13-8.9,13
		C246.6,49.5,247.9,44.2,249.9,36.5z M271,55.2h9.7l8.1-30.4h5.7l1.6-6.5h-5.7l0.8-2c0.4-2,1.6-2.8,4.5-2.8c0.4,0,1.2,0,1.6,0l2-6.9
		c-1.6,0-3.2,0-5.3,0c-6.1,0-10.5,2-12.6,8.9l-0.8,2.8h-4.9l-1.6,6.5h4.9L271,55.2z M303,18.3h-4.9l-1.6,6.5h4.9l-5.7,21.1
		c-2,7.7-1.2,9.7,6.1,9.7c2.4,0,4.5,0,6.5-0.4l1.6-6.5c-0.4,0-1.2,0-2,0c-2.8,0-3.2-1.2-2.4-4.1l5.7-19.9h5.3l2-6.5h-5.7l2-8.1h-9.7
		L303,18.3z M317.2,55.2h11.4l11.8-26.4l-2,26.4h11l18.3-36.9h-9.3l-11.8,26.4l2-26.4h-10.5l-11.8,26.4l2.4-26.4h-9.7L317.2,55.2z
		 M376.9,29.6v-1.2c0.8-2.8,2.8-4.9,6.1-4.9c2.8,0,3.7,1.6,3.2,4.5c-0.8,2.8-2,3.7-5.3,4.5l-5.7,1.6c-7.3,1.6-11,4.5-12.6,11.4
		c-1.6,5.3-0.8,10.5,6.1,10.5c4.5,0,7.7-0.8,11-4.5c0,1.2,0,2.4,0.4,3.7h8.9c-0.4-2,0-3.7,0.8-7.3l5.3-19.5
		c2-6.5,0.8-11.4-10.5-11.4c-7.3,0-14.2,2.8-16.2,11.4l-0.4,1.2H376.9z M381.7,43.8c-1.2,4.1-4.9,5.7-7.3,5.7c-2.8,0-3.2-2-2.4-4.9
		c0.8-3.2,2.8-5.3,7.3-6.1c1.2-0.4,2.8-0.8,4.5-2L381.7,43.8z M394.7,55.2h9.7l6.1-22.3c1.2-4.9,5.7-6.5,8.9-6.5c1.2,0,2,0,3.2,0
		l2.4-8.9c-0.8-0.4-1.2-0.4-2-0.4c-4.1,0-7.3,2.4-10.1,6.1l1.2-4.9h-9.3L394.7,55.2z M450.3,38.1l0.4-2c3.2-11.4,2.8-19.1-8.5-19.1
		c-13,0-17.4,9.3-20.3,19.1c-2.4,9.3-4.9,19.9,9.3,19.9c8.9,0,14.6-4.5,17.4-13.4h-8.9c-1.6,4.9-3.7,6.9-6.9,6.9
		c-3.7,0-3.7-4.1-2.4-8.5l0.8-2.8H450.3z M432.9,32.5l0.4-1.6c0.8-3.2,2.8-7.3,6.9-7.3c4.1,0,3.7,3.2,2.4,8.9H432.9z">
  </path>
 </g>
</svg>