<?xml version="1.0" encoding="UTF-8"?>
<!-- Generator: Adobe Illustrator 27.0.0, SVG Export Plug-In . SVG Version: 6.00 Build 0)  -->
<svg xmlns="http://www.w3.org/2000/svg" xmlns:xlink="http://www.w3.org/1999/xlink" version="1.1" x="0px" y="0px" viewBox="0 0 965.83 316.97" style="enable-background:new 0 0 965.83 316.97;" xml:space="preserve">
<style type="text/css">
	.st0{fill:#22346E;}
	.st1{fill:#33B2E5;}
	.st2{fill:#C8E2F3;}
	.st3{fill:#1587C1;}
	.st4{fill:#5C6871;}
	.st5{display:none;}
</style>
<g id="Schild">
	<path id="Links_Boven_2_" class="st0" d="M51.71,59.91c0,0,4.58-6.61,11.35-13.24c7.57-7.42,17.48-15,18.92-16.08   c5.96-4.47,15.43-9.52,19.19-11.47c2.37-1.23,5.3-0.88,7.21,0.98c0.03,0.03,0.06,0.06,0.09,0.08c0,0,3.5,2.42,5.67,10.4   c2.34,8.6,3.39,23.09,3.78,31.21c0.41,8.4,0.8,17.72,0.95,26.48c0.32,19.27,0,36.56,0,40.67c0,8.51,0,9.46,0,9.46s0,7.57-0.95,9.46   c-0.95,1.89-0.95,4.73-7.57,5.67c-2.43,0.35-16.94,1.76-29.32,0.95c-11.9-0.78-21.75-3.78-21.75-3.78s-3.78-1.89-5.67-4.73   c-3.06-4.59-3.78-10.4-4.73-15.13c-0.95-4.73-4.73-26.48-4.73-39.72s0-11.35,0.95-17.02C46.04,68.42,51.71,59.91,51.71,59.91z"></path>
	<g id="Rechts_Boven">
		<path class="st1" d="M151.97,22.08c0,0,14.19,0.95,21.75,2.84s11.35,1.89,27.43,8.51s20.81,13.24,21.75,17.97    c0.2,1.01,4.87,18.97,5.67,37.83c1.05,24.46-1.74,51.11-1.74,51.11c-0.16,1.9-0.55,3.78-1.26,5.55c-0.44,1.11-1.02,2.22-1.73,2.93    c-1.89,1.89-3.78,3.78-8.51,4.73c-4.73,0.95-28.37,2.84-28.37,2.84s-9.46,0.95-21.75,0.95s-21.75,0-26.48-0.95    c-4.73-0.95-5.67-1.89-7.57-4.73s-1.89-9.46-1.89-12.3c0-1.45-1.65-23.34-1.89-45.4c-0.23-21.02-0.35-58.17,2.84-63.37    c3.19-5.2,10.88-8.04,12.3-8.51C144.52,21.41,151.97,22.08,151.97,22.08"></path>
	</g>
	<g id="Links_Onder">
		<path class="st2" d="M64.96,164.9c0,0,4.73-0.95,14.19-1.89c9.46-0.95,28.37,0,28.37,0s2.84,0,6.62,0.95    c3.78,0.95,5.67,2.84,6.62,4.73c0.95,1.89,1.89,9.46,1.89,12.3s0.95,51.07,0.95,64.31c0,13.24,0,23.65-0.95,28.37    c-0.63,3.17-3.39,5.91-5.14,7.38c-0.96,0.8-1.48,1.14-3.44,0.98c-0.89-0.07-1.93-0.36-2.78-0.79c-1.89-0.95-6.62-5.67-8.51-7.57    c0,0-8.12-9.57-16.08-21.75c-7.68-11.76-15.17-26.09-17.02-30.27c-3.78-8.51-3.84-8.49-7.57-18.92    c-4.73-13.24-4.73-14.19-5.67-17.97c-0.95-3.78-1.89-8.51-1.89-10.4c0-1.89,0.95-4.73,2.84-6.62    C59.28,165.84,64.96,164.9,64.96,164.9z"></path>
	</g>
	<g id="Rechts_onder">
		<path class="st3" d="M207.77,164.9c0,0,11.35,0,15.13,2.84c3.78,2.84,1.89,9.46,1.89,9.46s-2.31,8.99-6.62,18.92    c-4.23,9.74-10.43,20.38-13.24,25.54c-5.67,10.4-33.1,49.18-49.18,60.53c-7.03,4.97-17.45-6.31-18.92-15.13    c-1.89-11.35-4.73-73.77-4.73-85.12c0-8.56,1.89-15.13,6.62-16.08C143.46,164.9,192.64,163.95,207.77,164.9z"></path>
	</g>
</g>
<g id="Laag_7">
	<g>
		<path class="st4" d="M317.53,30.16h17.19l30.68,84.66l30.51-84.66h17.16v105.11h-10.05V39.66l-34.71,95.61h-6.02l-34.57-95.61    v95.61h-10.19V30.16z"></path>
		<path class="st4" d="M459.64,136.8c-9.57,0-17.61-3.49-24.13-10.47c-6.52-6.98-9.78-16.36-9.78-28.15c0-7.86,1.44-14.83,4.33-20.9    c2.89-6.08,6.92-10.61,12.1-13.59c5.18-2.98,10.68-4.47,16.5-4.47c5.64,0,11.04,1.54,16.19,4.61c5.15,3.07,9.23,7.72,12.24,13.94    c3,6.22,4.51,13.16,4.51,20.84c0,11.69-3.17,20.99-9.5,27.87C475.77,133.36,468.28,136.8,459.64,136.8z M458.74,128.2    c6.1,0,11.41-2.63,15.91-7.9c4.51-5.27,6.76-12.83,6.76-22.67c0-9.71-2.2-17.1-6.59-22.19c-4.39-5.08-9.68-7.63-15.88-7.63    c-6.56,0-12.08,2.59-16.54,7.77c-4.46,5.18-6.69,12.57-6.69,22.19c0,9.85,2.24,17.38,6.73,22.6    C446.92,125.59,452.36,128.2,458.74,128.2z"></path>
		<path class="st4" d="M512.58,69.33c5.45-3.23,10.74-5.73,15.84-7.49c5.11-1.76,9.26-2.63,12.45-2.63c3.56,0,6.85,0.75,9.88,2.25    c3.03,1.5,5.65,4.09,7.87,7.77s3.33,8.24,3.33,13.69v52.35h-10.12V83.69c0-5.13-1.13-8.94-3.4-11.44    c-2.27-2.5-5.34-3.74-9.22-3.74c-3.56,0-7.56,0.76-12,2.29s-9.31,3.84-14.63,6.93v57.55h-10.12V60.74h10.12V69.33z"></path>
		<path class="st4" d="M581.47,33.56h9.98v27.18h18.51v9.22h-18.51v46.32c0,3.84,1.02,6.83,3.05,8.98c2.03,2.15,4.76,3.22,8.18,3.22    c1.85,0,4.28-0.37,7.28-1.11v9.08c-3.47,0.42-6.38,0.62-8.74,0.62c-7.12,0-12.19-1.48-15.22-4.44s-4.54-7.81-4.54-14.56V69.96    h-13.04v-9.22h13.04V33.56z"></path>
		<path class="st4" d="M614.86,73.63c4.76-4.95,9.92-8.59,15.46-10.92c5.55-2.33,10.98-3.5,16.29-3.5c6.15,0,11.38,1.36,15.7,4.09    c4.32,2.73,7.32,6.1,8.98,10.12c1.25,3.1,1.87,7.23,1.87,12.41v31.62c0,6.29,0.72,12.23,2.15,17.82h-10.33    c-1.25-4.39-1.92-8.55-2.01-12.48c-4.62,4.67-9.33,8.17-14.11,10.5c-4.78,2.33-9.67,3.5-14.66,3.5c-6.33,0-11.44-1.91-15.32-5.72    c-3.88-3.82-5.82-8.61-5.82-14.39c0-4.72,1.5-9.14,4.51-13.26c3-4.12,7.67-7.36,14.01-9.72c4.62-1.71,15.09-4.34,31.41-7.9v-4.64    c0-3.92-1.38-7.2-4.13-9.83c-2.75-2.63-6.23-3.94-10.43-3.94c-3.79,0-7.73,0.94-11.82,2.81c-4.09,1.87-8.86,5.12-14.32,9.74    L614.86,73.63z M662.98,116.96V93.22c-11.23,2.68-18.63,4.65-22.19,5.9c-5.69,1.94-9.86,4.45-12.51,7.53    c-2.66,3.08-3.99,6.35-3.99,9.82c0,3.29,1.14,6,3.43,8.16c2.29,2.15,5.35,3.23,9.19,3.23c3.65,0,7.65-0.91,12-2.74    C653.25,123.29,657.94,120.57,662.98,116.96z"></path>
		<path class="st4" d="M745.6,118.56c-4.58,6.15-9.45,10.72-14.63,13.73c-5.18,3-10.54,4.51-16.09,4.51    c-8.78,0-16.32-3.46-22.6-10.37c-6.29-6.91-9.43-16.54-9.43-28.88c0-11.88,3.11-21.24,9.33-28.08    c6.22-6.84,13.49-10.26,21.81-10.26c5.55,0,10.89,1.63,16.02,4.89s8.98,7.66,11.54,13.21c2.56,5.55,3.92,12.76,4.06,21.63h-52.63    c0.23,5.92,1.13,10.77,2.7,14.56c2.08,4.99,4.88,8.63,8.39,10.92c3.51,2.29,6.91,3.43,10.19,3.43c8.23,0,15.92-5.04,23.09-15.12    L745.6,118.56z M735.06,89.86c-0.74-7.03-3.13-12.54-7.18-16.54c-4.04-4-8.61-6-13.69-6c-6.19,0-11.15,2.37-14.87,7.11    c-3.72,4.74-5.7,9.88-5.93,15.43H735.06z"></path>
		<path class="st4" d="M333.82,212.74c-2.73-4.48-4.55-8.09-5.48-10.82c-1.29-3.84-1.94-7.6-1.94-11.3c0-7.3,2.18-13.21,6.55-17.71    s10-6.76,16.88-6.76c6.7,0,12.09,1.97,16.16,5.9c4.07,3.93,6.1,8.97,6.1,15.12c0,2.77-0.5,5.46-1.49,8.04s-2.64,5.23-4.93,7.91    c-2.29,2.68-4.8,5.11-7.53,7.28l-8.88,6.1c0.28,0.37,1.13,1.57,2.57,3.61c6.01,8.69,13.59,17.89,22.74,27.6    c2.64-3.56,4.91-7.8,6.81-12.73c1.9-4.92,3.13-9.56,3.68-13.91h11.23c-0.79,4.81-1.92,9.51-3.4,14.11s-3.24,8.96-5.27,13.07    c-0.65,1.34-2.2,3.77-4.65,7.28c5.92,5.08,11.95,7.79,18.1,8.11v11.3c-4.39-0.28-8.48-1.23-12.27-2.84    c-3.79-1.62-8.14-4.37-13.04-8.25c-3.24,3.24-7.42,5.96-12.55,8.18s-11.26,3.33-18.37,3.33c-12.34,0-21.86-3.77-28.57-11.3    c-4.99-5.59-7.49-12-7.49-19.21c0-6.19,1.96-11.87,5.89-17.02C318.61,222.67,324.99,217.64,333.82,212.74z M339.78,222.17    c-6.01,3.79-9.98,6.45-11.93,7.97c-2.59,2.08-4.58,4.4-5.96,6.97c-1.39,2.56-2.08,5.28-2.08,8.15c0,4.99,2.4,9.57,7.21,13.73    c4.81,4.16,10.93,6.24,18.37,6.24c3.79,0,7.33-0.65,10.61-1.94c3.28-1.29,7.1-3.63,11.44-7    C358.57,247.46,349.35,236.09,339.78,222.17z M343.32,207.06c0.55-0.42,1.62-1.13,3.19-2.15c5.64-3.84,9.45-7.25,11.44-10.23    c1.99-2.98,2.98-5.88,2.98-8.7c0-2.63-1.07-4.99-3.22-7.07s-4.63-3.12-7.45-3.12c-3.37,0-6.39,1.43-9.05,4.3    c-2.66,2.87-3.99,6.45-3.99,10.75c0,2.13,0.4,4.31,1.21,6.55C339.24,199.63,340.87,202.85,343.32,207.06z"></path>
		<path class="st4" d="M445.46,168.16h34.81c12.2,0,21.5,2.8,27.91,8.39c6.4,5.59,9.6,12.2,9.6,19.83c0,4.44-0.86,8.36-2.57,11.75    c-1.71,3.4-4.24,6.41-7.59,9.05s-7.34,4.73-11.96,6.27c-4.62,1.55-10.35,2.32-17.2,2.32h-22.88v47.5h-10.12V168.16z     M455.45,177.24v39.38h22.26c10.31,0,17.63-1.83,21.98-5.48c4.34-3.65,6.52-8.43,6.52-14.35c0-6.75-2.89-11.9-8.67-15.46    c-4.44-2.73-11.53-4.09-21.29-4.09H455.45z"></path>
		<path class="st4" d="M518.58,211.63c4.76-4.95,9.92-8.59,15.46-10.92s10.98-3.5,16.29-3.5c6.15,0,11.38,1.36,15.7,4.09    c4.32,2.73,7.32,6.1,8.98,10.12c1.25,3.1,1.87,7.23,1.87,12.41v31.62c0,6.29,0.72,12.23,2.15,17.82h-10.33    c-1.25-4.39-1.92-8.55-2.01-12.48c-4.62,4.67-9.33,8.17-14.11,10.5c-4.78,2.33-9.67,3.5-14.66,3.5c-6.33,0-11.44-1.91-15.32-5.72    s-5.82-8.61-5.82-14.39c0-4.72,1.5-9.14,4.51-13.26c3-4.12,7.67-7.36,14.01-9.72c4.62-1.71,15.09-4.34,31.41-7.9v-4.64    c0-3.92-1.38-7.2-4.13-9.83c-2.75-2.63-6.23-3.94-10.43-3.94c-3.79,0-7.73,0.94-11.82,2.81c-4.09,1.87-8.86,5.12-14.32,9.74    L518.58,211.63z M566.7,254.96v-23.74c-11.23,2.69-18.63,4.65-22.19,5.9c-5.69,1.94-9.86,4.45-12.51,7.53    c-2.66,3.08-3.99,6.35-3.99,9.82c0,3.29,1.14,6,3.43,8.16c2.29,2.15,5.35,3.23,9.19,3.23c3.65,0,7.65-0.91,12-2.74    C556.97,261.29,561.66,258.57,566.7,254.96z"></path>
		<path class="st4" d="M602.73,215.59c4.16-6.38,8.52-11.05,13.07-14.01c4.55-2.96,9.74-4.44,15.57-4.44c0.65,0,1.57,0.02,2.77,0.07    l-1.46,11.16l-3.67-0.21c-2.68-0.14-5.69,0.5-9.01,1.91s-6.3,3.64-8.91,6.69s-4.66,6.84-6.14,11.37c-1.48,4.53-2.22,8.53-2.22,12    v33.14h-10.12v-74.54h10.12V215.59z"></path>
		<path class="st4" d="M651.31,171.56h9.98v27.18h18.51v9.22h-18.51v46.32c0,3.84,1.02,6.83,3.05,8.98    c2.03,2.15,4.76,3.22,8.18,3.22c1.85,0,4.28-0.37,7.28-1.11v9.08c-3.47,0.42-6.38,0.62-8.74,0.62c-7.12,0-12.19-1.48-15.22-4.44    s-4.54-7.81-4.54-14.56v-48.12h-13.04v-9.22h13.04V171.56z"></path>
		<path class="st4" d="M698.5,207.33c5.45-3.23,10.74-5.73,15.84-7.49c5.11-1.76,9.26-2.63,12.45-2.63c3.56,0,6.85,0.75,9.88,2.25    c3.03,1.5,5.65,4.09,7.87,7.76c2.22,3.68,3.33,8.24,3.33,13.69v52.35h-10.12v-51.59c0-5.13-1.13-8.94-3.4-11.44    c-2.27-2.5-5.34-3.74-9.22-3.74c-3.56,0-7.56,0.76-12,2.29s-9.31,3.84-14.63,6.93v57.55h-10.12v-74.54h10.12V207.33z"></path>
		<path class="st4" d="M819.87,256.56c-4.58,6.15-9.45,10.72-14.63,13.73c-5.18,3-10.54,4.51-16.09,4.51    c-8.78,0-16.32-3.46-22.6-10.37c-6.29-6.91-9.43-16.54-9.43-28.88c0-11.88,3.11-21.24,9.33-28.08    c6.22-6.84,13.49-10.26,21.81-10.26c5.55,0,10.89,1.63,16.02,4.89s8.98,7.66,11.54,13.21c2.56,5.55,3.92,12.76,4.06,21.63h-52.63    c0.23,5.92,1.13,10.77,2.7,14.56c2.08,4.99,4.88,8.63,8.39,10.92c3.51,2.29,6.91,3.43,10.19,3.43c8.23,0,15.92-5.04,23.09-15.12    L819.87,256.56z M809.33,227.86c-0.74-7.03-3.13-12.54-7.18-16.54s-8.61-6-13.69-6c-6.19,0-11.15,2.37-14.87,7.11    s-5.7,9.88-5.93,15.43H809.33z"></path>
		<path class="st4" d="M840.16,215.59c4.16-6.38,8.52-11.05,13.07-14.01c4.55-2.96,9.74-4.44,15.57-4.44c0.65,0,1.57,0.02,2.77,0.07    l-1.46,11.16l-3.67-0.21c-2.68-0.14-5.69,0.5-9.01,1.91s-6.3,3.64-8.91,6.69s-4.66,6.84-6.14,11.37c-1.48,4.53-2.22,8.53-2.22,12    v33.14h-10.12v-74.54h10.12V215.59z"></path>
		<path class="st4" d="M878.2,230.08c-3.65-3.84-5.48-8.11-5.48-12.83c0-5.45,2.24-10.16,6.73-14.11    c4.48-3.95,10.72-5.93,18.72-5.93c5.32,0,10.34,0.97,15.08,2.9c4.74,1.94,8.77,4.79,12.1,8.57l-7.66,6.48    c-2.87-3.28-5.83-5.7-8.88-7.25c-3.05-1.55-6.55-2.32-10.48-2.32c-5.04,0-8.87,1.09-11.49,3.26c-2.61,2.17-3.92,4.69-3.92,7.56    c0,2.45,1.02,4.65,3.05,6.59c1.99,1.94,6.65,3.87,14,5.77c11.32,2.93,18.95,6.48,22.88,10.63c3.93,4.16,5.9,8.73,5.9,13.71    c0,5.96-2.35,11.06-7.04,15.31c-4.69,4.25-11.08,6.37-19.17,6.37c-5.92,0-11.37-1.11-16.36-3.34s-10.26-5.93-15.81-11.12l8.7-6.07    c4.16,4.16,8.06,7.13,11.71,8.91c3.65,1.78,7.5,2.67,11.57,2.67c5.17,0,9.18-1.24,12.02-3.71c2.84-2.47,4.26-5.37,4.26-8.7    c0-2.77-1.06-5.15-3.19-7.14c-3-2.82-9.04-5.41-18.1-7.77c-5.59-1.48-10.24-3.12-13.94-4.92    C881.55,232.73,879.82,231.56,878.2,230.08z"></path>
	</g>
</g>
<g id="Laag_1" class="st5">
</g>
<g id="Laag_5" class="st5">
</g>
</svg>
