<svg width="2000" height="2000" viewBox="0 0 2000 2000" fill="none" xmlns="http://www.w3.org/2000/svg">
    <path d="M1000 2000V961.444H1979.54C1895.53 1383.67 1551.14 1704.89 1034.79 1991.22C1024.15 1997.11 1012.02 2000 999.884 2000H1000Z" fill="#114A8B"/>
    <path d="M1000 961.444V2000C987.865 2000 975.847 1997.11 965.214 1991.22C448.862 1705 104.472 1383.67 20.4553 961.444H1000Z" fill="#0669BC"/>
    <path d="M1000 0C1139.6 0 1265.8 39.5556 1357.1 103.556C1511.15 203.556 1621.63 255.444 1933.9 261.556C1970.65 262.333 2000 291.667 2000 327.111V759.667C2000 827.889 1992.72 895.111 1979.54 961.444H1000V0Z" fill="#0078D4"/>
    <path d="M20.4553 961.444C7.28071 895.222 0 827.889 0 759.667V327.111C0 291.667 29.2384 262.333 66.1042 261.556C378.366 255.444 488.848 203.556 642.898 103.556C734.196 39.5556 860.511 0 1000 0V961.444H20.4553Z" fill="#28AFEA"/>
</svg>
