<svg fill="none" viewBox="0 0 220 270" class="msportalfx-svg-placeholder" xmlns='http://www.w3.org/2000/svg'><path fill="url(#pOpY05ZJT__a)" d="M220 126.035c0 72.62-87.37 131.077-106.385 142.93a6.83 6.83 0 0 1-7.23 0C87.37 257.112 0 198.655 0 126.035V38.741a6.96 6.96 0 0 1 1.972-4.845 6.9 6.9 0 0 1 4.78-2.087C74.718 30.009 59.063 0 110 0s35.282 30.008 103.248 31.809a6.9 6.9 0 0 1 4.78 2.087A6.96 6.96 0 0 1 220 38.74z"/><path fill="url(#pOpY05ZJT__b)" d="M210.887 126.846c0 66.588-80.14 120.198-97.572 131.076a6.22 6.22 0 0 1-6.632 0C89.251 247.044 9.111 193.404 9.111 126.846V46.724a6.4 6.4 0 0 1 1.817-4.438 6.33 6.33 0 0 1 4.382-1.91C77.645 38.682 63.29 11.21 110 11.21s32.355 27.472 94.689 29.168a6.34 6.34 0 0 1 4.383 1.909 6.4 6.4 0 0 1 1.816 4.438z"/><path fill="#fff" stroke="#5191FB" stroke-width="4" d="m96 94.979.02-27.975a6 6 0 0 0-6-6.004H58a6 6 0 0 0-6 6v30.311a6 6 0 0 0 6 6h29.646c2.41 0 4.354 1.947 4.354 4.333v40.488c0 1.154-.446 1.972-1.133 2.539-.726.598-1.838 1.002-3.221 1.002H58a6 6 0 0 0-6 6V190a6 6 0 0 0 6 6h32a6 6 0 0 0 6-6v-29.975c0-2.386 1.943-4.332 4.354-4.332h42.979a6 6 0 0 0 6-6v-42.049c0-2.386 1.944-4.333 4.354-4.333H170a6 6 0 0 0 6-6v-17.54a6 6 0 0 0-6-6h-18.667a6 6 0 0 0-6 6v15.208c0 2.386-1.943 4.332-4.354 4.332h-40.625c-2.41 0-4.353-1.945-4.354-4.33z"/><defs><linearGradient id="pOpY05ZJT__a" x1="20.373" x2="170.569" y1="35.01" y2="224.412" gradientUnits="userSpaceOnUse"><stop stop-color="#59B8FF"/><stop offset="1" stop-color="#508DFA"/></linearGradient><linearGradient id="pOpY05ZJT__b" x1="214.561" x2="4.343" y1="260.073" y2="10.925" gradientUnits="userSpaceOnUse"><stop stop-color="#79CFFF"/><stop offset="1" stop-color="#648EFA"/></linearGradient></defs><style>.msportalfx-svg-c01{fill:#fff}.msportalfx-svg-c02{fill:#e5e5e5}.msportalfx-svg-c03{fill:#a0a1a2}.msportalfx-svg-c04{fill:#7a7a7a}.msportalfx-svg-c05{fill:#3e3e3e}.msportalfx-svg-c06{fill:#1e1e1e}.msportalfx-svg-c07{fill:#0f0f0f}.msportalfx-svg-c08{fill:#ba141a}.msportalfx-svg-c09{fill:#dd5900}.msportalfx-svg-c10{fill:#ff8c00}.msportalfx-svg-c11{fill:#fcd116}.msportalfx-svg-c12{fill:#fee087}.msportalfx-svg-c13{fill:#b8d432}.msportalfx-svg-c14,.msportalfx-svg-c32{fill:#57a300}.msportalfx-svg-c15{fill:#59b4d9}.msportalfx-svg-c16{fill:#3999c6}.msportalfx-svg-c17{fill:#804998}.msportalfx-svg-c18{fill:#ec008c}.msportalfx-svg-c19{fill:#0072c6}.msportalfx-svg-c20{fill:#68217a}.msportalfx-svg-c21{fill:#00188f}.msportalfx-svg-c22{fill:#e81123}.fxs-mode-light .msportalfx-svg-c22{fill:#a4262c}.msportalfx-svg-c23{fill:#cae3f3}.msportalfx-svg-c24{fill:#59aed3}.msportalfx-svg-c25{fill:#4c3b12}.msportalfx-svg-c26{fill:#be9555}.msportalfx-svg-c27{fill:#4f4d52}.msportalfx-svg-c28{fill:#ef6f59}.msportalfx-svg-c29{fill:#f7cb64}.msportalfx-svg-c30{fill:#fdd8db}.msportalfx-svg-c31{fill:#f6ffec}.msportalfx-svg-c33{fill:#8a2da5}.msportalfx-svg-c34{fill:#e00b1c}.msportalfx-svg-c35{fill:#015cda}.msportalfx-svg-c36{fill:#5db300}.msportalfx-svg-c97{fill:#ffb900}.msportalfx-svg-c98{fill:#00a4ef}.msportalfx-svg-c99{fill:#f25022}.msportalfx-inverted-theme .msportalfx-svg-c05,.fxs-theme-dark .msportalfx-svg-c05{fill:#777}.msportalfx-inverted-theme .msportalfx-svg-c07,.fxs-theme-dark .msportalfx-svg-c07{fill:#f2f2f2}.msportalfx-svg-palette-white{fill:#fff}.msportalfx-svg-palette-blue{fill:#015cda}.msportalfx-svg-palette-black{fill:#1e1e1e}.msportalfx-svg-palette-green{fill:#57a300}.msportalfx-svg-palette-gray{fill:#a0a1a2}.msportalfx-svg-palette-inherit{fill:inherit}.msportalfx-svg-badge{position:absolute;left:0;bottom:0;min-height:10px;min-width:10px}.fxc-menu-icon>.msportalfx-svg-badge{left:-2px;bottom:-2px;min-height:8px;min-width:8px}.msportalfx-svg-disabled{filter:grayscale(100%)}.msportalfx-svg-loading-square{animation:ProgressFlagAnimation 1.45s infinite ease-in-out;transform-origin:50%}.msportalfx-svg-loading-square:nth-child(1){animation-delay:0s}.msportalfx-svg-loading-square:nth-child(2){animation-delay:.2s}.msportalfx-svg-loading-square:nth-child(3){animation-delay:.4s}@keyframes ProgressFlagAnimation{0%{transform:scale(1);opacity:.3}36.1%{transform:scale(1.06);opacity:1}50%{transform:scale(1.06);opacity:1}86.1%{transform:scale(1);opacity:.3}}.msportalfx-svg-flip-horizontal>svg,svg.msportalfx-svg-flip-horizontal{transform:scaleX(-1)}.msportalfx-svg-fabric-rotate360{animation:ImageRotation 1.3s cubic-bezier(.53,.21,.29,.67) infinite}@keyframes ImageRotation{0%{transform:rotate(-45deg)}100%{transform:rotate(315deg)}}.fxs-svg-number .msportalfx-font-bold{font-size:10px;fill:#0065ad}.fxs-svg-number .fxs-svg-circle{stroke-width:0%;fill:#0078d4}.fxs-svg-number .fxs-svg-text{fill:#fff;font-size:10px}.fxs-svg-number.msportalfx-svg-disabled{filter:grayscale(0%)}.fxs-svg-number.msportalfx-svg-disabled .fxs-svg-circle{fill:#fff;stroke-width:1px;stroke:#949494}.fxs-svg-number.msportalfx-svg-disabled .fxs-svg-text{fill:#949494}.fxs-theme-dark .fxs-svg-number .fxs-svg-text{fill:#0f0f0f}.fxs-theme-dark .fxs-svg-number .fxs-svg-circle{stroke-width:0%;fill:#0078d4}.fxs-theme-dark .fxs-svg-number.msportalfx-svg-disabled .fxs-svg-circle{fill:#0f0f0f;stroke-width:1px;stroke:#949494}.fxs-theme-dark .fxs-svg-number.msportalfx-svg-disabled .fxs-svg-text{fill:#949494}</style></svg>