<svg viewBox="0 0 18 18" class="" role="presentation" focusable="false" xmlns="http://www.w3.org/2000/svg" xmlns:xlink="http://www.w3.org/1999/xlink" id="FxSymbol0-082" data-type="1"><g><path d="M2.727 9.641.41 9.646c-.282 0-.477-.136-.376-.263l2.71-2.648a.122.122 0 0 0 0-.189L.027 3.844c-.1-.126.093-.263.376-.263H2.72a.506.506 0 0 1 .38.119l2.827 2.841a.121.121 0 0 1 0 .187L3.1 9.516a.508.508 0 0 1-.373.125Z" fill="url(#7abb1304-1bf8-43d3-8cab-eeec490c349f)"></path><path d="m8.777 9.635-3.829.005c-.282 0-.477-.136-.376-.263l2.71-2.648a.121.121 0 0 0 0-.188l-2.719-2.7c-.1-.127.093-.264.376-.264l3.831-.008a.513.513 0 0 1 .376.124l2.831 2.842a.119.119 0 0 1 0 .186L9.153 9.51a.513.513 0 0 1-.376.125Z" fill="url(#7abb1304-1bf8-43d3-8cab-eeec490c34a0)"></path><path d="m14.266 5.646-5.412 5.412.215.359.669 1.086L15.43 6.81l-1.164-1.164zm1.507.821L17 5.239l-.888-.886a.387.387 0 0 0-.547 0l-.955.955Z" opacity=".9" fill="#0078d4"></path><path fill="#0078d4" d="m16.594 7.973-5.414 5.411-.357-.216-1.087-.666 5.694-5.694 1.164 1.165zm-.823-1.506L17 5.238l.887.887a.388.388 0 0 1 0 .548l-.955.955Z"></path><path d="m11.179 13.39-2.971 1.04a.388.388 0 0 1-.394-.38v-.012l1.04-2.973.887 1.44Z" fill="#83b9f9"></path></g><defs>
<linearGradient id="7abb1304-1bf8-43d3-8cab-eeec490c349f" x1="3.501" y1="-407.372" x2="3.501" y2="-394.561" gradientTransform="matrix(1 -.001 .001 .481 -.277 199.684)" gradientUnits="userSpaceOnUse"><stop offset="0" stop-color="#32bedd"></stop><stop offset="1" stop-color="#198ab3"></stop></linearGradient>
<linearGradient id="7abb1304-1bf8-43d3-8cab-eeec490c34a0" x1="8.795" y1="-408.51" x2="8.795" y2="-393.542" gradientTransform="matrix(1 -.001 .001 .481 -.277 199.684)" gradientUnits="userSpaceOnUse"><stop offset="0" stop-color="#50e6ff"></stop><stop offset="1" stop-color="#32bedd"></stop></linearGradient>
</defs>
</svg>