<svg viewBox="0 0 18 18" class="" role="presentation" focusable="false" xmlns="http://www.w3.org/2000/svg" xmlns:xlink="http://www.w3.org/1999/xlink" id="FxSymbol0-06e" data-type="1"><g><path d="M13.166 12.325A6.908 6.908 0 0 1 4.7 1.408l.07-.054a6.908 6.908 0 0 1 8.4 10.971" fill="url(#7abb1304-1bf8-43d3-8cab-eeec490c32e0)"></path><path d="M9.839 15.735h-.074a.1.1 0 0 1-.1-.1v-1.9a6.908 6.908 0 0 1-1.459 0v1.9a.1.1 0 0 1-.1.1H6.914a.1.1 0 0 0-.073.175l2.019 2.018a.1.1 0 0 0 .145 0l2.019-2.018a.1.1 0 0 0-.073-.175Z" fill="#50e6ff"></path><path d="M6.1 13.165a6.82 6.82 0 0 1-1.419-.865v1.036a.151.151 0 0 1-.152.151h-.982a.1.1 0 0 1-.1-.1v-1.151a.1.1 0 0 0-.171-.071l-1.925 1.926a.151.151 0 0 0 0 .214l1.925 1.926a.1.1 0 0 0 .171-.071v-1.153a.1.1 0 0 1 .1-.1h2.4a.151.151 0 0 0 .152-.151v-1.268Zm10.549.926-1.925-1.926a.1.1 0 0 0-.171.071v1.153a.1.1 0 0 1-.1.1h-.982a.151.151 0 0 1-.152-.151v-1.145c-.052.043-.1.09-.153.132a6.921 6.921 0 0 1-1.266.775v1.655a.151.151 0 0 0 .152.151h2.4a.1.1 0 0 1 .1.1v1.154a.1.1 0 0 0 .171.071l1.925-1.926a.151.151 0 0 0 .001-.214Z" fill="#9cebff"></path><circle cx="5.176" cy="6.607" r="2.22" fill="url(#7abb1304-1bf8-43d3-8cab-eeec490c32dd)"></circle><circle cx="9.855" cy="10.662" r="1.443" fill="url(#7abb1304-1bf8-43d3-8cab-eeec490c32de)"></circle><circle cx="13.143" cy="7.084" r="1.532" fill="url(#7abb1304-1bf8-43d3-8cab-eeec490c32df)"></circle><path d="M3.635 8.2a2.212 2.212 0 0 0 1.157.588 14.57 14.57 0 0 0-.881 2.819 6.822 6.822 0 0 1-.45-.526 7.484 7.484 0 0 1-.506-.749 15.337 15.337 0 0 1 .68-2.132ZM6.8 8.121a2.207 2.207 0 0 1-1.213.667 9.672 9.672 0 0 0 1.175 1.045 10.123 10.123 0 0 0 1.664 1.014 1.413 1.413 0 0 1-.014-.185 1.435 1.435 0 0 1 .436-1.032A9.732 9.732 0 0 1 6.8 8.121Zm-2.365-3.6a9.665 9.665 0 0 1-.56-2.394 6.827 6.827 0 0 0-.895 1.185 10.742 10.742 0 0 0 .461 1.919 2.231 2.231 0 0 1 .99-.713Zm11.02 3.459-.025-.013-.24-.13-.045-.025-.217-.121-.053-.029-.256-.146a1.448 1.448 0 0 1-.517.751l.3.174.069.039.282.157.028.015c.227.124.461.247.7.37a6.816 6.816 0 0 0 .23-.9Zm-4.162 2.593v.089a1.436 1.436 0 0 1-.411 1.007 11.28 11.28 0 0 0 2.773.2 6.863 6.863 0 0 0 .935-1.092 9.94 9.94 0 0 1-1.064.059 9.726 9.726 0 0 1-2.233-.263ZM12.127 6A21.38 21.38 0 0 1 9.47 3.694a11.011 11.011 0 0 1 4.83-1.175 6.781 6.781 0 0 0-1.208-1.174 11.7 11.7 0 0 0-3.815.9c-.267.113-.525.244-.78.379A13.762 13.762 0 0 1 6.888.258 6.977 6.977 0 0 0 6 .6a14.513 14.513 0 0 0 1.679 2.512 10.079 10.079 0 0 0-1.719 1.42 2.228 2.228 0 0 1 1.095.9 9.624 9.624 0 0 1 1.568-1.256 22.324 22.324 0 0 0 3.006 2.631A1.5 1.5 0 0 1 12.127 6Z" opacity=".45" class="msportalfx-svg-c01" fill="#ffffff"></path></g><defs>
<linearGradient id="7abb1304-1bf8-43d3-8cab-eeec490c32dd" x1="5.193" y1="8.885" x2="5.168" y2="5.668" gradientUnits="userSpaceOnUse"><stop offset="0" stop-color="#ccc"></stop><stop offset="1" stop-color="#fcfcfc"></stop></linearGradient>
<linearGradient id="7abb1304-1bf8-43d3-8cab-eeec490c32de" x1="9.855" y1="12.104" x2="9.855" y2="9.219" gradientUnits="userSpaceOnUse"><stop offset="0" stop-color="#ccc"></stop><stop offset="1" stop-color="#fcfcfc"></stop></linearGradient>
<linearGradient id="7abb1304-1bf8-43d3-8cab-eeec490c32df" x1="13.143" y1="8.616" x2="13.143" y2="5.552" gradientUnits="userSpaceOnUse"><stop offset="0" stop-color="#ccc"></stop><stop offset="1" stop-color="#fcfcfc"></stop></linearGradient>
<radialGradient id="7abb1304-1bf8-43d3-8cab-eeec490c32e0" cx="1211.822" cy="2809.012" r="46.051" gradientTransform="matrix(.15 0 0 .15 -172.842 -414.488)" gradientUnits="userSpaceOnUse"><stop offset=".183" stop-color="#a67af4"></stop><stop offset="1" stop-color="#773adc"></stop></radialGradient>
</defs>
</svg>