<svg viewBox="0 0 112 112" class="" role="presentation" focusable="false" xmlns="http://www.w3.org/2000/svg" xmlns:xlink="http://www.w3.org/1999/xlink" id="FxSymbol0-06f" data-type="1"><g><title></title><path d="M86.489 96.443a52.96 52.96 0 0 1-74.157-9.177 52.963 52.963 0 0 1 8.824-74.2l.622-.623a53.02 53.02 0 0 1 64.711 84Z" fill="url(#7abb1304-1bf8-43d3-8cab-eeec490c32e6)"></path><path d="M13.066 65.333a160.691 160.691 0 0 0-4.978 16.178l3.734 5.6 3.733 3.733a88.66 88.66 0 0 1 6.844-21.777 15.736 15.736 0 0 1-9.333-3.734Zm6.222-28.622a84.96 84.96 0 0 1-4.355-18.044 46.98 46.98 0 0 0-6.845 8.71 65.629 65.629 0 0 0 3.734 14.934 16.987 16.987 0 0 1 7.466-5.6Z" fill="#83B9F9"></path><path d="M24.888 69.688c9.279 0 16.8-7.521 16.8-16.8 0-9.278-7.521-16.8-16.8-16.8-9.278 0-16.8 7.522-16.8 16.8 0 9.279 7.522 16.8 16.8 16.8Z" fill="url(#7abb1304-1bf8-43d3-8cab-eeec490c32e7)"></path><path d="M49.778 84a13.104 13.104 0 0 1 3.11-8.09 57.243 57.243 0 0 1-15.555-11.822A17.117 17.117 0 0 1 28 69.066a119.473 119.473 0 0 0 9.333 8.711 50.867 50.867 0 0 0 12.445 7.467v-1.245Zm39.2 1.246a82.934 82.934 0 0 1-17.422-1.867V84a10.304 10.304 0 0 1-3.112 7.467A80.683 80.683 0 0 0 89.6 92.712c2.489-2.489 4.978-5.6 7.467-8.089-2.66.541-5.378.75-8.09.623ZM57.867 30.488a83.8 83.8 0 0 1 36.71-8.71 41.875 41.875 0 0 0-9.333-8.712A95.417 95.417 0 0 0 56 19.91a57.573 57.573 0 0 0-6.222 3.112A116.496 116.496 0 0 1 37.333 4.977a11.83 11.83 0 0 0-5.6 1.867A131.435 131.435 0 0 0 44.8 26.133 61.233 61.233 0 0 0 31.111 36.71a17.733 17.733 0 0 1 8.089 6.844 55.76 55.76 0 0 1 11.822-9.333 139.153 139.153 0 0 0 23.022 19.91 12.912 12.912 0 0 1 3.734-6.221 173.54 173.54 0 0 1-19.911-17.423Z" fill="#83B9F9"></path><path d="M85.866 68.445c6.53 0 11.823-5.293 11.823-11.822 0-6.53-5.293-11.822-11.823-11.822-6.529 0-11.822 5.293-11.822 11.822 0 6.53 5.293 11.822 11.822 11.822Z" fill="#F2F2F2"></path><path d="M105.778 64.71c-.622-.622-1.245-.622-1.867-1.244-.622-.623-1.244-.623-1.867-1.245h-.622l-1.867-1.244h-.622l-1.866-1.245a9.06 9.06 0 0 1-3.734 5.6c.623.622 1.245.622 2.49 1.245h.621c.623.622 1.245.622 1.867 1.244 1.867 1.245 3.733 1.867 5.6 3.111.622-1.867 1.245-4.355 1.867-6.222Z" fill="#83B9F9"></path><path d="M24.888 69.688c9.279 0 16.8-7.521 16.8-16.8 0-9.278-7.521-16.8-16.8-16.8-9.278 0-16.8 7.522-16.8 16.8 0 9.279 7.522 16.8 16.8 16.8ZM60.978 95.2c6.185 0 11.2-5.014 11.2-11.2 0-6.185-5.015-11.2-11.2-11.2-6.186 0-11.2 5.015-11.2 11.2 0 6.186 5.014 11.2 11.2 11.2Z" fill="#F2F2F2"></path><path d="M32.356 65.333h75.289c1.244 0 3.111 1.245 3.111 2.49v39.821a3.337 3.337 0 0 1-3.111 3.112h-75.29a2.85 2.85 0 0 1-2.488-3.112v-39.2a2.85 2.85 0 0 1 2.489-3.11Z" fill="#821010"></path><path d="M55.377 70.31h-22.4v9.956h22.4V70.31Z" fill="#E62323"></path><path d="M81.511 70.31h-22.4v9.956h22.4V70.31Z" fill="#FF7381"></path><path d="M107.023 70.31h-22.4v9.956h22.4V70.31ZM42.31 83.379h-9.333v9.956h9.334v-9.956Z" fill="#E62323"></path><path d="M107.023 83.379h-9.334v9.956h9.334v-9.956Zm-38.579 0h-22.4v9.956h22.4v-9.956Z" fill="#FF7381"></path><path d="M93.956 83.379h-22.4v9.956h22.4v-9.956ZM55.377 96.445h-22.4v9.955h22.4v-9.956Z" fill="#E62323"></path><path d="M81.511 96.445h-22.4v9.955h22.4v-9.956Z" fill="#FF7381"></path><path d="M107.023 96.445h-22.4v9.955h22.4v-9.956Z" fill="#E62323"></path><defs></defs></g><defs>
<radialGradient id="7abb1304-1bf8-43d3-8cab-eeec490c32e6" cx="0" cy="0" r="1" gradientUnits="userSpaceOnUse" gradientTransform="translate(53.882 54.734) scale(52.8509)"><stop offset=".183" stop-color="#5EA0EF"></stop><stop offset="1" stop-color="#0078D4"></stop></radialGradient>
<linearGradient id="7abb1304-1bf8-43d3-8cab-eeec490c32e7" x1="25.025" y1="70.292" x2="24.832" y2="45.658" gradientUnits="userSpaceOnUse"><stop stop-color="#CCC"></stop><stop offset=".123" stop-color="#D7D7D7"></stop><stop offset=".421" stop-color="#EBEBEB"></stop><stop offset=".716" stop-color="#F8F8F8"></stop><stop offset="1" stop-color="#FCFCFC"></stop></linearGradient>
</defs>
</svg>