<svg viewBox="0 0 18 18" class="" role="presentation" focusable="false" xmlns="http://www.w3.org/2000/svg" xmlns:xlink="http://www.w3.org/1999/xlink" id="FxSymbol0-083" data-type="1"><g><path d="M.181 8.566 8.568.179a.61.61 0 0 1 .864 0l8.387 8.387a.611.611 0 0 1 0 .863l-8.395 8.4a.6.6 0 0 1-.848 0l-8.4-8.4a.611.611 0 0 1 .005-.863Z" fill="url(#7abb1304-1bf8-43d3-8cab-eeec490c34a1)"></path><circle cx="9.077" cy="8.902" r="1.331" fill="#198ab3"></circle><path d="M14.093 7.56a1.4 1.4 0 0 0-1.179.642h-1.525a2.412 2.412 0 0 0-1.64-1.564V5.046a1.41 1.41 0 1 0-1.535 0v1.663A2.423 2.423 0 0 0 6.805 8.2H5.091a1.409 1.409 0 1 0 0 1.535h1.717a2.42 2.42 0 0 0 1.429 1.489v1.662a1.409 1.409 0 1 0 1.535 0v-1.603a2.415 2.415 0 0 0 1.615-1.547h1.528a1.408 1.408 0 1 0 1.178-2.176Z" class="msportalfx-svg-c01" fill="#ffffff"></path><circle cx="9.111" cy="9" r="1.409" fill="#50e6ff"></circle></g><defs>
<linearGradient id="7abb1304-1bf8-43d3-8cab-eeec490c34a1" x1="9" y1="19.848" x2="9" y2="-1.014" gradientUnits="userSpaceOnUse"><stop offset="0" stop-color="#0078d4"></stop><stop offset=".817" stop-color="#5ea0ef"></stop></linearGradient>
</defs>
</svg>