<svg viewBox="0 0 17 14.167" class="" role="presentation" focusable="false" xmlns="http://www.w3.org/2000/svg" xmlns:xlink="http://www.w3.org/1999/xlink" id="FxSymbol0-16a" data-type="1"><g><title>Icon-nameAsset 7</title><path d="M14.733 8.5A1.133 1.133 0 0 1 13.6 9.633H1.133A1.133 1.133 0 0 1 0 8.5V1.133A1.133 1.133 0 0 1 1.133 0H13.6a1.133 1.133 0 0 1 1.133 1.133Z" fill="#0078d4"></path><path d="M17 13.033a1.134 1.134 0 0 1-1.133 1.134H3.4a1.134 1.134 0 0 1-1.133-1.134V5.667A1.134 1.134 0 0 1 3.4 4.533h12.467A1.134 1.134 0 0 1 17 5.667Z" fill="url(#d0f06fb4-549a-44a3-b767-5f49602636a5)"></path><path d="M9.917 9.633h1.7a.284.284 0 0 1 .283.284v.566a.284.284 0 0 1-.283.284h-1.7a.284.284 0 0 1-.284-.284v-.566a.284.284 0 0 1 .284-.284Zm2.833 0h1.7a.284.284 0 0 1 .283.284v.566a.284.284 0 0 1-.283.284h-1.7a.284.284 0 0 1-.283-.284v-.566a.284.284 0 0 1 .283-.284Zm-8.5 0h1.7a.284.284 0 0 1 .283.284v.566a.284.284 0 0 1-.283.284h-1.7a.284.284 0 0 1-.283-.284v-.566a.284.284 0 0 1 .283-.284Zm0 2.267h3.967a.283.283 0 0 1 .283.283.284.284 0 0 1-.283.284H4.25a.284.284 0 0 1-.283-.284.283.283 0 0 1 .283-.283Zm5.667 0h1.133a.283.283 0 0 1 .283.283.284.284 0 0 1-.283.284H9.917a.284.284 0 0 1-.284-.284.284.284 0 0 1 .284-.283ZM7.083 9.633h1.7a.284.284 0 0 1 .284.284v.566a.284.284 0 0 1-.284.284h-1.7a.284.284 0 0 1-.283-.284v-.566a.284.284 0 0 1 .283-.284ZM6.8 8.059a.462.462 0 0 1-.481.441H4.448a.462.462 0 0 1-.481-.441V6.8c0-.244.215-.567.481-.567h1.871a.463.463 0 0 1 .481.442Z" class="msportalfx-svg-c01" fill="#ffffff"></path><path fill="#e6e6e6" d="M0 1.7h14.733v1.133H0z"></path></g><defs>
<linearGradient id="d0f06fb4-549a-44a3-b767-5f49602636a5" x1="9.633" y1="4.533" x2="9.633" y2="14.167" gradientUnits="userSpaceOnUse"><stop offset=".225" stop-color="#32d4f5"></stop><stop offset=".473" stop-color="#31d1f3"></stop><stop offset=".633" stop-color="#2ec9eb"></stop><stop offset=".768" stop-color="#29bade"></stop><stop offset=".888" stop-color="#22a5cb"></stop><stop offset=".999" stop-color="#198ab3"></stop><stop offset="1" stop-color="#198ab3"></stop></linearGradient>
</defs>
</svg>