<svg viewBox="0 0 25 30" class="" role="presentation" focusable="false" xmlns="http://www.w3.org/2000/svg" xmlns:xlink="http://www.w3.org/1999/xlink" id="FxSymbol0-169" data-type="1"><g><title></title><title></title><path d="M25 13.941c0 8.118-9.821 14.47-11.964 15.882-.357.177-.536.177-.893 0C10 28.588 0 22.06 0 13.941V4.235c0-.353.357-.706.714-.706C8.571 3.353 6.786 0 12.5 0c5.714 0 3.929 3.353 11.607 3.53.536 0 .893.352.893.705v9.706z" fill="#1B93EB"></path><path d="M23.928 14.118c0 7.411-9.107 13.411-11.071 14.47-.179.177-.536.177-.714 0C10.178 27.353 1.07 21.53 1.07 14.118V5.294c0-.353.179-.706.536-.882C8.57 4.235 6.963 1.235 12.32 1.235s3.75 3.177 10.715 3.177c.357 0 .714.353.714.706l.178 9z" fill="url(#d0f06fb4-549a-44a3-b767-5f49602636a4)"></path><path d="M12.232 7.596a.3.3 0 0 1 .536 0l1.761 3.526a.3.3 0 0 0 .226.163l3.93.564a.3.3 0 0 1 .166.513l-2.84 2.736a.3.3 0 0 0-.087.267l.67 3.867a.3.3 0 0 1-.433.317l-3.523-1.83a.3.3 0 0 0-.276 0l-3.523 1.83a.3.3 0 0 1-.434-.317l.671-3.867a.3.3 0 0 0-.087-.267l-2.84-2.736a.3.3 0 0 1 .165-.513l3.931-.564a.3.3 0 0 0 .226-.163l1.76-3.526z" class="msportalfx-svg-c01" fill="#ffffff"></path><defs></defs></g><defs>
<linearGradient id="d0f06fb4-549a-44a3-b767-5f49602636a4" x1="7.502" y1="17.383" x2="7.502" y2=".367" gradientUnits="userSpaceOnUse"><stop stop-color="#1B93EB"></stop><stop offset=".21" stop-color="#2095EB"></stop><stop offset=".44" stop-color="#2E9CED"></stop><stop offset=".69" stop-color="#45A7EF"></stop><stop offset=".95" stop-color="#64B6F1"></stop><stop offset="1" stop-color="#6BB9F2"></stop></linearGradient>
</defs>
</svg>