<svg viewBox="0 0 15.583 17" class="" role="presentation" focusable="false" xmlns="http://www.w3.org/2000/svg" xmlns:xlink="http://www.w3.org/1999/xlink" id="FxSymbol0-16e" data-type="1"><g><title>Icon-nameAsset 5</title><path fill="#b796f9" d="m13.518 1.122-3.988 7.1-4.217-4.299L.957 9.557l1.029.802 3.443-4.454 4.386 4.472 4.837-8.612-1.134-.643z"></path><ellipse cx="5.364" cy="4.909" rx="1.639" ry="1.646" fill="url(#d0f06fb4-549a-44a3-b767-5f49602636a8)"></ellipse><ellipse cx="9.814" cy="9.005" rx="1.639" ry="1.646" fill="url(#d0f06fb4-549a-44a3-b767-5f49602636a9)"></ellipse><ellipse cx="13.945" cy="1.646" rx="1.639" ry="1.646" fill="url(#d0f06fb4-549a-44a3-b767-5f49602636aa)"></ellipse><ellipse cx="1.639" cy="9.715" rx="1.639" ry="1.646" fill="url(#d0f06fb4-549a-44a3-b767-5f49602636ab)"></ellipse><rect x="4.461" y="9.418" width="2.576" height="7.582" rx=".283" fill="#0078d4"></rect><rect x="8.572" y="12.042" width="2.576" height="4.958" rx=".283" fill="#005ba1"></rect><rect x="12.683" y="6.881" width="2.576" height="10.119" rx=".283" fill="#005ba1"></rect><rect x=".35" y="12.042" width="2.576" height="4.958" rx=".283" fill="#5ea0ef"></rect></g><defs>
<linearGradient id="d0f06fb4-549a-44a3-b767-5f49602636a8" x1="5.364" y1="6.555" x2="5.364" y2="3.263" gradientUnits="userSpaceOnUse"><stop offset=".003" stop-color="#773adc"></stop><stop offset=".246" stop-color="#9255e6"></stop><stop offset=".502" stop-color="#a669ee"></stop><stop offset=".755" stop-color="#b376f2"></stop><stop offset="1" stop-color="#b77af4"></stop></linearGradient>
<linearGradient id="d0f06fb4-549a-44a3-b767-5f49602636a9" x1="9.814" y1="10.651" x2="9.814" y2="7.359"></linearGradient>
<linearGradient id="d0f06fb4-549a-44a3-b767-5f49602636aa" x1="13.945" y1="3.292" x2="13.945" y2="0"></linearGradient>
<linearGradient id="d0f06fb4-549a-44a3-b767-5f49602636ab" x1="1.639" y1="11.361" x2="1.639" y2="8.069"></linearGradient>
</defs>
</svg>