<svg viewBox="0 0 18 18" class="" role="presentation" focusable="false" xmlns="http://www.w3.org/2000/svg" xmlns:xlink="http://www.w3.org/1999/xlink" id="FxSymbol0-06f" data-type="1"><g><path d="M6.919 7.7A1.305 1.305 0 1 0 8.226 9a1.3 1.3 0 0 0-1.307-1.3Z" fill="url(#e84a01f4-62dd-4bbe-b923-2c6fb826e491)"></path><path d="m6.34 13.375-.626.629a.284.284 0 0 1-.402 0L.673 9.38a.568.568 0 0 1 0-.804l.626-.629 5.04 5.027a.284.284 0 0 1 .002.402Z" fill="#50e6ff"></path><path d="m5.62 3.996.627.626a.284.284 0 0 1 0 .402L1.295 9.99l-.626-.624a.568.568 0 0 1 0-.803L5.22 3.999a.284.284 0 0 1 .401 0Z" fill="#1490df"></path><path d="m16.702 7.947.627.629a.568.568 0 0 1-.001.803l-4.639 4.626a.284.284 0 0 1-.402 0l-.627-.63a.284.284 0 0 1 .001-.401l5.041-5.027Z" fill="#50e6ff"></path><path d="m17.333 9.364-.629.627-4.953-4.967a.284.284 0 0 1 0-.402l.628-.626a.284.284 0 0 1 .402 0l4.552 4.566a.568.568 0 0 1 0 .803Z" fill="#1490df"></path><path d="M11.119 7.7A1.305 1.305 0 1 0 12.426 9a1.3 1.3 0 0 0-1.307-1.3Z" fill="url(#e84a01f4-62dd-4bbe-b923-2c6fb826e492)"></path></g><defs>
<linearGradient id="e84a01f4-62dd-4bbe-b923-2c6fb826e491" x1="6.921" y1="10.305" x2="6.921" y2="7.695" gradientUnits="userSpaceOnUse"><stop offset="0" stop-color="#5e9624"></stop><stop offset=".241" stop-color="#6fb02a"></stop><stop offset=".501" stop-color="#7cc52f"></stop><stop offset=".756" stop-color="#83d232"></stop><stop offset="1" stop-color="#86d633"></stop></linearGradient>
<linearGradient id="e84a01f4-62dd-4bbe-b923-2c6fb826e492" x1="11.121" y1="10.305" x2="11.121" y2="7.695" gradientUnits="userSpaceOnUse"><stop offset="0" stop-color="#5e9624"></stop><stop offset=".241" stop-color="#6fb02a"></stop><stop offset=".501" stop-color="#7cc52f"></stop><stop offset=".756" stop-color="#83d232"></stop><stop offset="1" stop-color="#86d633"></stop></linearGradient>
</defs>
</svg>