<svg viewBox="0 0 18 18" class="" role="presentation" focusable="false" xmlns="http://www.w3.org/2000/svg" xmlns:xlink="http://www.w3.org/1999/xlink" id="FxSymbol0-085" data-type="1"><g><path fill="url(#7abb1304-1bf8-43d3-8cab-eeec490c34a3)" d="M16.256 5.432 8.999 1.244 1.744 5.432v8.38L8.999 18l7.266-4.188-.009-8.38z"></path><path fill="url(#7abb1304-1bf8-43d3-8cab-eeec490c34a4)" d="M9.009 1.239 1.744 5.433l7.265 4.195 7.247-4.197-7.247-4.192z"></path><path fill="#0078d4" d="M8.999 9.622v8.372l-7.258-4.185V5.431l7.258 4.191z"></path><path d="M1.743 5.427 9 9.621l-1.722 3.6L.017 9.109S1.74 5.461 1.743 5.427Zm14.515.004L9 9.625l1.723 3.6 7.26-4.1s-1.722-3.661-1.725-3.694Z" fill="#5ea0ef"></path><path d="M6.191 4.12a.247.247 0 0 0-.178.42l2.918 2.954a.333.333 0 0 0 .47 0l2.918-2.954a.247.247 0 0 0 0-.349.25.25 0 0 0-.175-.071l-2.092.021V.182A.182.182 0 0 0 9.867 0H8.474A.181.181 0 0 0 8.3.184v3.957Z" fill="#c3f1ff"></path><path fill="#42e8ca" d="m7.934.05-.001.001.001-.001z"></path></g><defs>
<linearGradient id="7abb1304-1bf8-43d3-8cab-eeec490c34a3" x1="9.004" y1="791.492" x2="9.004" y2="773.659" gradientTransform="matrix(1 0 0 -1 0 791.516)" gradientUnits="userSpaceOnUse"><stop offset="0" stop-color="#5ea0ef"></stop><stop offset="1" stop-color="#0078d4"></stop></linearGradient>
<linearGradient id="7abb1304-1bf8-43d3-8cab-eeec490c34a4" x1="9" y1="791.575" x2="9" y2="781.849" gradientTransform="matrix(1 0 0 -1 0 791.516)" gradientUnits="userSpaceOnUse"><stop offset="0" stop-color="#5ea0ef"></stop><stop offset="1" stop-color="#0078d4"></stop></linearGradient>
</defs>
</svg>