<svg viewBox="0 0 18 18" class="" role="presentation" focusable="false" xmlns="http://www.w3.org/2000/svg" xmlns:xlink="http://www.w3.org/1999/xlink" id="FxSymbol0-0a8" data-type="197"><g><title>MsPortalFx.base.images-64</title><g fill="#999"><path d="M1.313 1.746h1.236V5.2a.274.274 0 0 1-.274.274H1.039A.274.274 0 0 1 .765 5.2V2.294a.548.548 0 0 1 .548-.548z"></path><path d="M1.313 1.746h1.236V5.2a.274.274 0 0 1-.274.274H1.039A.274.274 0 0 1 .765 5.2V2.294a.548.548 0 0 1 .548-.548z" opacity=".5"></path></g><g fill="#999"><path d="M15.271 1.746h1.236a.548.548 0 0 1 .548.548V5.2a.274.274 0 0 1-.274.274h-1.236a.274.274 0 0 1-.274-.274V1.746z"></path><path d="M15.271 1.746h1.236a.548.548 0 0 1 .548.548V5.2a.274.274 0 0 1-.274.274h-1.236a.274.274 0 0 1-.274-.274V1.746z" opacity=".5"></path></g><path fill="#949494" d="M17.055 2.289v1.2H.765v-1.2a.543.543 0 0 1 .543-.543h15.2a.543.543 0 0 1 .547.543z"></path><g fill="#999"><path d="M1.039 12.526h1.237a.274.274 0 0 1 .274.274v3.454H1.313a.548.548 0 0 1-.548-.548V12.8a.274.274 0 0 1 .274-.274z"></path><path d="M1.039 12.526h1.237a.274.274 0 0 1 .274.274v3.454H1.313a.548.548 0 0 1-.548-.548V12.8a.274.274 0 0 1 .274-.274z" opacity=".5"></path></g><g fill="#999"><path d="M15.545 12.526h1.236a.274.274 0 0 1 .274.274v2.907a.548.548 0 0 1-.548.548h-1.236V12.8a.274.274 0 0 1 .274-.274z"></path><path d="M15.545 12.526h1.236a.274.274 0 0 1 .274.274v2.907a.548.548 0 0 1-.548.548h-1.236V12.8a.274.274 0 0 1 .274-.274z" opacity=".5"></path></g><path fill="#949494" d="M.765 15.711v-1.2h16.29v1.2a.543.543 0 0 1-.543.543H1.308a.543.543 0 0 1-.543-.543z"></path><path fill="url(#a43c101f-1c71-44f7-9b52-f4a76cd10684)" d="m4.989 5.484 3.125 3.125a.372.372 0 0 1 0 .527l-3.125 3.125a.166.166 0 0 1-.284-.118v-1.921a.166.166 0 0 0-.166-.167H.633A.132.132 0 0 1 .5 9.922v-2.1a.132.132 0 0 1 .133-.132h3.906a.166.166 0 0 0 .166-.167V5.6a.166.166 0 0 1 .284-.116z"></path><path fill="url(#a43c101f-1c71-44f7-9b52-f4a76cd10685)" d="m14.266 5.484 3.125 3.125a.374.374 0 0 1 0 .527l-3.125 3.125a.166.166 0 0 1-.284-.118v-1.921a.167.167 0 0 0-.167-.167H9.909a.132.132 0 0 1-.132-.133v-2.1a.132.132 0 0 1 .132-.133h3.906a.167.167 0 0 0 .167-.167V5.6a.166.166 0 0 1 .284-.116z"></path></g><defs>
<linearGradient id="a43c101f-1c71-44f7-9b52-f4a76cd10684" x1="-1803.596" x2="-1810.471" y1="-323.82" y2="-323.82" gradientTransform="rotate(90 -1067.682 748.224)" gradientUnits="userSpaceOnUse"><stop offset="0" stop-color="#773adc"></stop><stop offset="1" stop-color="#a67af4"></stop></linearGradient>
<linearGradient id="a43c101f-1c71-44f7-9b52-f4a76cd10685" x1="-1803.596" x2="-1810.471" y1="-333.097" y2="-333.097" gradientTransform="rotate(90 -1067.682 748.224)" gradientUnits="userSpaceOnUse"><stop offset="0" stop-color="#1b93eb"></stop><stop offset="1" stop-color="#6bb9f2"></stop></linearGradient>
</defs>
</svg>