<svg viewBox="0 0 18 18" class="" role="presentation" focusable="false" xmlns="http://www.w3.org/2000/svg" xmlns:xlink="http://www.w3.org/1999/xlink" id="FxSymbol0-0b2" data-type="68"><g><title>MsPortalFx.base.images-78</title><path fill="#a3a3a3" d="M13.135 4.659h-.85V2.422a.1.1 0 0 0-.026 0H5.845a.093.093 0 0 0-.026 0v2.237h-.85v-2.28a.846.846 0 0 1 .876-.81h6.414a.846.846 0 0 1 .876.81z"></path><rect width="17" height="11.872" x=".5" y="4.559" fill="url(#75d1e67a-110d-4f1b-8600-774991f5962e)" rx=".567"></rect><path fill="#9cebff" d="M.5 7.594h17v1.311H.5z"></path><path fill="#005ba1" d="M6.617 8.905H11.5v1.531a.281.281 0 0 1-.281.281H6.9a.281.281 0 0 1-.281-.281V8.905h-.002z"></path><path fill="#83b9f9" d="M.5 10.894v2.995l4.644 1.489.871-2.716L.5 10.894z"></path><path fill="#5ea0ef" d="M17.5 10.745a2.718 2.718 0 1 0 0 4.837z"></path></g><defs>
<linearGradient id="75d1e67a-110d-4f1b-8600-774991f5962e" x1="9" x2="9" y1="16.431" y2="4.559" gradientUnits="userSpaceOnUse"><stop offset="0" stop-color="#0078d4"></stop><stop offset=".156" stop-color="#1380da"></stop><stop offset=".528" stop-color="#3c91e5"></stop><stop offset=".822" stop-color="#559cec"></stop><stop offset="1" stop-color="#5ea0ef"></stop></linearGradient>
</defs>
</svg>