<svg xmlns:xlink="http://www.w3.org/1999/xlink" xmlns="http://www.w3.org/2000/svg" data-slug-id="security07" viewBox="0 0 48 49" width="256"  height="261.3333333333333" >
<path d="M23.9422 0.895592C18.9382 3.78252 13.4723 5.86111 7.65991 7.01588V35.8082L23.8652 48.5877L40.3399 35.8467V7.01588C34.5661 5.86111 29.0617 3.78252 24.0577 0.895592H23.9422Z" fill="#0078D4"/>
<path d="M30.1394 17.4862C30.1394 14.0604 27.3295 11.212 23.8652 11.212C20.7858 11.212 18.2068 13.483 17.7064 16.447H20.2469C20.4393 15.8311 20.7473 15.2922 21.2092 14.8303C21.9405 14.0989 22.8644 13.714 23.8652 13.714C24.866 13.714 25.7898 14.0989 26.5211 14.8303C27.2525 15.5616 27.6374 16.4854 27.6374 17.4862C27.6374 17.6787 27.6374 18.2561 27.6374 18.9875H17.6294V31.536H30.1394C30.1394 31.536 30.1394 17.7557 30.1394 17.4862Z" fill="#50E6FF"/>
<path d="M23.8652 26.7652C24.6943 26.7652 25.3664 26.0931 25.3664 25.264C25.3664 24.4349 24.6943 23.7628 23.8652 23.7628C23.0361 23.7628 22.364 24.4349 22.364 25.264C22.364 26.0931 23.0361 26.7652 23.8652 26.7652Z" fill="#0078D4"/>
</svg>