<svg xmlns:xlink="http://www.w3.org/1999/xlink" aria-hidden="false" aria-labelledby="svg-title-IPAddresses-c930021b-4e00-4066-ba3b-ece264ab3f4b" id="svg-IPAddresses-c930021b-4e00-4066-ba3b-ece264ab3f4b" viewBox="0 0 18 18" xmlns="http://www.w3.org/2000/svg" data-slug-id="ip-addresses" role="img" width="256"  height="256" ><title id="svg-title-IPAddresses-c930021b-4e00-4066-ba3b-ece264ab3f4b">IP Addresses</title><defs><linearGradient id="svg-gradient1-IPAddresses-c930021b-4e00-4066-ba3b-ece264ab3f4b" x1="9" y1="15.83" x2="9" y2="5.79" gradientUnits="userSpaceOnUse"><stop offset="0" stop-color="#32bedd"></stop><stop offset="0.18" stop-color="#32caea"></stop><stop offset="0.41" stop-color="#32d2f2"></stop><stop offset="0.78" stop-color="#32d4f5"></stop></linearGradient><linearGradient id="svg-gradient1-IPAddresses-c930021b-4e00-4066-ba3b-ece264ab3f4b" x1="9" y1="15.83" x2="9" y2="5.79" gradientUnits="userSpaceOnUse"><stop offset="0" stop-color="#32bedd"></stop><stop offset="0.18" stop-color="#32caea"></stop><stop offset="0.41" stop-color="#32d2f2"></stop><stop offset="0.78" stop-color="#32d4f5"></stop></linearGradient></defs><path d="M.5,5.79h17a0,0,0,0,1,0,0v9.48a.57.57,0,0,1-.57.57H1.07a.57.57,0,0,1-.57-.57V5.79A0,0,0,0,1,.5,5.79Z" fill="url(&quot;#svg-gradient1-IPAddresses-c930021b-4e00-4066-ba3b-ece264ab3f4b&quot;)"></path><path d="M1.07,2.17H16.93a.57.57,0,0,1,.57.57V5.79a0,0,0,0,1,0,0H.5a0,0,0,0,1,0,0V2.73A.57.57,0,0,1,1.07,2.17Z" fill="#767676"></path><circle cx="12.82" cy="10.19" r="1.38" fill="#F2F2F2"></circle><circle cx="9.06" cy="10.19" r="1.38" fill="#F2F2F2"></circle><circle cx="5.18" cy="10.19" r="1.38" fill="#F2F2F2"></circle><rect x="2.79" y="3.25" width="12.43" height="1.46" rx="0.28" fill="#F2F2F2"></rect></svg>