<svg viewBox="0 0 18 18" class="" role="presentation" focusable="false" xmlns="http://www.w3.org/2000/svg" xmlns:xlink="http://www.w3.org/1999/xlink" id="FxSymbol0-075" data-type="1"><g><path d="M13.625 6.972a1.093 1.093 0 1 1-1.1-1.091 1.093 1.093 0 0 1 1.1 1.091ZM9.032 5.886a1.093 1.093 0 1 0 1.094 1.091 1.093 1.093 0 0 0-1.094-1.091Zm-3.494 0a1.093 1.093 0 1 0 1.094 1.096 1.093 1.093 0 0 0-1.094-1.091Z" fill="url(#e84a01f4-62dd-4bbe-b923-2c6fb826e497)"></path><path d="m6.34 11.357-.627.629a.284.284 0 0 1-.402 0L.672 7.361a.568.568 0 0 1 0-.804l.626-.628 5.041 5.026a.284.284 0 0 1 0 .402Z" fill="#50e6ff"></path><path d="m5.62 1.978.628.626a.284.284 0 0 1 0 .402L1.296 7.973.67 7.35a.568.568 0 0 1 0-.803L5.22 1.98a.284.284 0 0 1 .401 0Z" fill="#1490df"></path><path d="m16.701 5.93.627.629a.568.568 0 0 1 0 .803l-4.64 4.626a.284.284 0 0 1-.401 0l-.627-.63a.284.284 0 0 1 0-.401l5.041-5.027Z" fill="#50e6ff"></path><path d="m17.333 7.346-.629.627-4.953-4.967a.284.284 0 0 1 0-.402l.628-.626a.284.284 0 0 1 .402 0l4.552 4.566a.568.568 0 0 1 0 .803Z" fill="#1490df"></path><circle cx="13.159" cy="12.336" r="3.769" fill="url(#e84a01f4-62dd-4bbe-b923-2c6fb826e498)"></circle><path d="M12.789 10.361h-1.12a1.4 1.4 0 0 0-.217 2.774 1.49 1.49 0 0 1 .017-.52.879.879 0 0 1 .2-1.742h1.117a.885.885 0 0 1 0 1.769h-.31a.661.661 0 0 0-.062.28.637.637 0 0 0 .044.232h.328a1.4 1.4 0 0 0 .058-2.793Z" class="msportalfx-svg-c01" fill="#ffffff"></path><path d="M14.682 11.543a1.714 1.714 0 0 1 .016.215 1.429 1.429 0 0 1-.031.305.878.878 0 0 1-.2 1.74h-1.121a.885.885 0 0 1 0-1.768h.308a.655.655 0 0 0 .017-.512h-.323a1.4 1.4 0 0 0 0 2.793h1.119a1.4 1.4 0 0 0 .217-2.775Z" class="msportalfx-svg-c01" fill="#ffffff"></path></g><defs>
<linearGradient id="e84a01f4-62dd-4bbe-b923-2c6fb826e497" x1="9.036" y1="8.077" x2="9.036" y2="5.881" gradientUnits="userSpaceOnUse"><stop offset="0" stop-color="#5e9624"></stop><stop offset=".241" stop-color="#6fb02a"></stop><stop offset=".501" stop-color="#7cc52f"></stop><stop offset=".756" stop-color="#83d232"></stop><stop offset="1" stop-color="#86d633"></stop></linearGradient>
<linearGradient id="e84a01f4-62dd-4bbe-b923-2c6fb826e498" x1="-413.968" y1="-221.863" x2="-413.968" y2="-214.324" gradientTransform="matrix(1 0 0 -1 427.126 -205.758)" gradientUnits="userSpaceOnUse"><stop offset="0" stop-color="#005ba1"></stop><stop offset=".126" stop-color="#0f66ae"></stop><stop offset=".515" stop-color="#3a86d1"></stop><stop offset=".819" stop-color="#5499e7"></stop><stop offset="1" stop-color="#5ea0ef"></stop></linearGradient>
</defs>
</svg>