<svg viewBox="0 0 18 18" class="" role="presentation" focusable="false" xmlns="http://www.w3.org/2000/svg" xmlns:xlink="http://www.w3.org/1999/xlink" id="FxSymbol0-01a" data-type="1"><g><path d="m9.866 14.8-.088-.219c-.208-.069-.793-.263-1.129-.376a.266.266 0 0 1-.179-.253V12.6a.264.264 0 0 1 .175-.249c.337-.12.936-.336 1.144-.413l.092-.215c-.1-.2-.38-.742-.541-1.06a.267.267 0 0 1 .047-.307c.285-.286.673-.669.954-.951a.266.266 0 0 1 .3-.055c.318.154.866.413 1.064.508l.219-.087c.036-.114.113-.34.194-.578A6.017 6.017 0 0 0 9.661 7.76a7.341 7.341 0 0 0-2.13-.3 8.306 8.306 0 0 0-2.164.267C2.45 8.512.86 10.983.5 14.6a1.26 1.26 0 0 0 1.115 1.385h7.717a.237.237 0 0 1 .026-.11l.508-1.075Z" fill="url(#f5f2dbb7-18e3-4933-a392-eb376d771023)"></path><path d="M7.532 8.39A3.956 3.956 0 0 1 5.4 7.762l2.134 5.524 2.1-5.49a3.894 3.894 0 0 1-2.102.594Z" opacity=".8" class="msportalfx-svg-c01" fill="#ffffff"></path><circle cx="7.54" cy="4.441" r="3.941" fill="url(#f5f2dbb7-18e3-4933-a392-eb376d771024)"></circle><path d="m17.417 12.705-1.085-.358-.274-.666.489-1.038a.142.142 0 0 0-.025-.15l-.548-.548a.135.135 0 0 0-.154-.022l-1.02.516-.661-.271-.395-1.089a.134.134 0 0 0-.124-.088h-.779a.135.135 0 0 0-.128.092l-.179.541-.183.544-.661.274-1.023-.489a.127.127 0 0 0-.15.025l-.545.545a.126.126 0 0 0-.025.153l.519 1.024-.271.661-1.107.395A.133.133 0 0 0 9 12.88v.779a.135.135 0 0 0 .091.128l1.086.361.274.662-.49 1.038a.13.13 0 0 0 .018.139l.008.013.544.548a.136.136 0 0 0 .154.026l1.02-.519.661.27.395 1.089a.139.139 0 0 0 .128.088h.778a.134.134 0 0 0 .128-.091l.358-1.086.666-.274 1.038.49a.134.134 0 0 0 .149-.026l.545-.548a.129.129 0 0 0 .026-.154l-.516-1.019.271-.658 1.085-.4a.125.125 0 0 0 .088-.124v-.778a.135.135 0 0 0-.088-.129Z" fill="url(#f5f2dbb7-18e3-4933-a392-eb376d771025)"></path><circle cx="13.254" cy="13.246" r="1.867" fill="url(#f5f2dbb7-18e3-4933-a392-eb376d771026)"></circle><path d="M14.568 13.347v-.2a.134.134 0 0 0-.133-.133h-.947v-.946a.132.132 0 0 0-.133-.133h-.2a.133.133 0 0 0-.133.133v.946h-.947a.134.134 0 0 0-.133.133v.2a.133.133 0 0 0 .133.133h.947v.947a.133.133 0 0 0 .133.133h.2a.132.132 0 0 0 .133-.133v-.947h.947a.133.133 0 0 0 .133-.133Z" class="msportalfx-svg-c01" fill="#ffffff"></path></g><defs>
<linearGradient id="f5f2dbb7-18e3-4933-a392-eb376d771023" x1="6.306" y1="17.028" x2="6.306" y2="5.352" gradientUnits="userSpaceOnUse"><stop offset="0" stop-color="#0078d4"></stop><stop offset="1" stop-color="#5ea0ef"></stop></linearGradient>
<linearGradient id="f5f2dbb7-18e3-4933-a392-eb376d771024" x1="-1516.804" y1="1565.36" x2="-1515.952" y2="1554.76" gradientTransform="matrix(1 0 0 -1 1524 1565.516)" gradientUnits="userSpaceOnUse"><stop offset="0" stop-color="#5ea0ef"></stop><stop offset="1" stop-color="#0078d4"></stop></linearGradient>
<linearGradient id="f5f2dbb7-18e3-4933-a392-eb376d771025" x1="-1510.748" y1="1548.016" x2="-1510.748" y2="1556.525" gradientTransform="matrix(1 0 0 -1 1524 1565.516)" gradientUnits="userSpaceOnUse"><stop offset=".001" stop-color="#f78d1e"></stop><stop offset="1" stop-color="#faa21d"></stop></linearGradient>
<linearGradient id="f5f2dbb7-18e3-4933-a392-eb376d771026" x1="13.254" y1="11.141" x2="13.254" y2="15.315" gradientUnits="userSpaceOnUse"><stop offset="0" stop-color="#ef7100"></stop><stop offset=".999" stop-color="#d15900"></stop></linearGradient>
</defs>
</svg>