<svg viewBox="0 0 18 18" class="" role="presentation" focusable="false" xmlns="http://www.w3.org/2000/svg" xmlns:xlink="http://www.w3.org/1999/xlink" id="FxSymbol0-084" data-type="1"><g><path d="M16.4 8.744 9.437 1.677l-.358.353-.355-.356L1.246 9.1l7.836 7.57 7.307-7.218-.353-.352ZM9.581 3.257l5.745 5.835-5.745 5.675Zm-1-.02v11.548L2.682 9.092Z" fill="#ccc"></path><circle cx="9.079" cy="2.03" r="1.562" class="msportalfx-svg-c01" fill="#ffffff"></circle><path d="M9.079 3.994a1.964 1.964 0 1 1 1.963-1.964 1.966 1.966 0 0 1-1.963 1.964Zm0-3.123a1.16 1.16 0 1 0 1.159 1.159A1.161 1.161 0 0 0 9.079.871Z" fill="url(#da57172f-1900-4225-90e1-8fc17863c3d1)"></path><circle cx="9.079" cy="15.97" r="1.562" class="msportalfx-svg-c01" fill="#ffffff"></circle><path d="M9.079 17.934a1.964 1.964 0 1 1 1.963-1.964 1.966 1.966 0 0 1-1.963 1.964Zm0-3.124a1.16 1.16 0 1 0 1.159 1.16 1.161 1.161 0 0 0-1.159-1.16Z" fill="url(#da57172f-1900-4225-90e1-8fc17863c3d2)"></path><circle cx="16.036" cy="9.097" r="1.562" class="msportalfx-svg-c01" fill="#ffffff"></circle><path d="M16.036 11.06A1.964 1.964 0 1 1 18 9.1a1.966 1.966 0 0 1-1.964 1.96Zm0-3.123A1.16 1.16 0 1 0 17.2 9.1a1.161 1.161 0 0 0-1.164-1.163Z" fill="url(#da57172f-1900-4225-90e1-8fc17863c3d3)"></path><circle cx="1.964" cy="9.097" r="1.562" class="msportalfx-svg-c01" fill="#ffffff"></circle><path d="M1.964 11.06A1.964 1.964 0 1 1 3.928 9.1a1.966 1.966 0 0 1-1.964 1.96Zm0-3.123A1.16 1.16 0 1 0 3.124 9.1a1.161 1.161 0 0 0-1.16-1.163Z" fill="url(#da57172f-1900-4225-90e1-8fc17863c3d4)"></path></g><defs>
<linearGradient id="da57172f-1900-4225-90e1-8fc17863c3d1" x1="9.079" y1="3.994" x2="9.079" y2=".066" gradientUnits="userSpaceOnUse"><stop offset="0" stop-color="#773adc"></stop><stop offset="1" stop-color="#a67af4"></stop></linearGradient>
<linearGradient id="da57172f-1900-4225-90e1-8fc17863c3d2" x1="9.079" y1="17.934" x2="9.079" y2="14.006" gradientUnits="userSpaceOnUse"><stop offset="0" stop-color="#773adc"></stop><stop offset="1" stop-color="#a67af4"></stop></linearGradient>
<linearGradient id="da57172f-1900-4225-90e1-8fc17863c3d3" x1="16.036" y1="11.06" x2="16.036" y2="7.133" gradientUnits="userSpaceOnUse"><stop offset="0" stop-color="#773adc"></stop><stop offset="1" stop-color="#a67af4"></stop></linearGradient>
<linearGradient id="da57172f-1900-4225-90e1-8fc17863c3d4" x1="1.964" y1="11.06" x2="1.964" y2="7.133" gradientUnits="userSpaceOnUse"><stop offset="0" stop-color="#773adc"></stop><stop offset="1" stop-color="#a67af4"></stop></linearGradient>
</defs>
</svg>