<svg viewBox="0 0 18 18" class="" role="presentation" focusable="false" xmlns="http://www.w3.org/2000/svg" xmlns:xlink="http://www.w3.org/1999/xlink" id="FxSymbol0-082" data-type="1"><g><path fill="#ccc" d="M15.76 2.335v6.361H7.392v1.091h8.368v6.362h1.091V2.335H15.76z"></path><circle cx="16.306" cy="1.97" r="1.694" fill="url(#da57172f-1900-4225-90e1-8fc17863c3c9)"></circle><circle cx="16.306" cy="9.204" r="1.694" fill="url(#da57172f-1900-4225-90e1-8fc17863c3ca)"></circle><circle cx="16.306" cy="16.03" r="1.694" fill="url(#da57172f-1900-4225-90e1-8fc17863c3cb)"></circle><path d="M11.927 16.243a1.163 1.163 0 0 0 1.169-1.16 1.085 1.085 0 0 0-.008-.14c-.458-3.66-2.546-6.643-6.53-6.643-4.053 0-6.144 2.526-6.552 6.652a1.171 1.171 0 0 0 1.045 1.285 1.146 1.146 0 0 0 .117.006Z" fill="url(#da57172f-1900-4225-90e1-8fc17863c3cc)"></path><path d="M6.558 9.171a3.655 3.655 0 0 1-1.988-.586l1.968 5.143L8.493 8.62a3.656 3.656 0 0 1-1.935.551Z" opacity=".8" class="msportalfx-svg-c01" fill="#ffffff"></path><circle cx="6.558" cy="5.498" r="3.673" fill="url(#da57172f-1900-4225-90e1-8fc17863c3cd)"></circle></g><defs>
<linearGradient id="da57172f-1900-4225-90e1-8fc17863c3c9" x1="16.306" y1=".275" x2="16.306" y2="3.664" gradientUnits="userSpaceOnUse"><stop offset=".001" stop-color="#9cebff"></stop><stop offset=".811" stop-color="#50e6ff"></stop></linearGradient>
<linearGradient id="da57172f-1900-4225-90e1-8fc17863c3ca" x1="16.306" y1="10.898" x2="16.306" y2="7.51" gradientUnits="userSpaceOnUse"><stop offset="0" stop-color="#a67af4"></stop><stop offset="1" stop-color="#b796f9"></stop></linearGradient>
<linearGradient id="da57172f-1900-4225-90e1-8fc17863c3cb" x1="16.306" y1="14.336" x2="16.306" y2="17.725" gradientUnits="userSpaceOnUse"><stop offset=".001" stop-color="#9cebff"></stop><stop offset="1" stop-color="#50e6ff"></stop></linearGradient>
<linearGradient id="da57172f-1900-4225-90e1-8fc17863c3cc" x1="6.548" y1="7.333" x2="6.548" y2="18.206" gradientUnits="userSpaceOnUse"><stop offset=".226" stop-color="#5ea0ef"></stop><stop offset="1" stop-color="#0078d4"></stop></linearGradient>
<linearGradient id="da57172f-1900-4225-90e1-8fc17863c3cd" x1="6.237" y1="1.504" x2="7.031" y2="11.377" gradientUnits="userSpaceOnUse"><stop offset=".225" stop-color="#5ea0ef"></stop><stop offset="1" stop-color="#0078d4"></stop></linearGradient>
</defs>
</svg>