<svg xmlns:xlink="http://www.w3.org/1999/xlink" xmlns="http://www.w3.org/2000/svg" width="256" height="215.57894736842104" viewBox="0 0 19 16" fill="none">
<mask id="path-1-inside-1" fill="white">
<path fill-rule="evenodd" clip-rule="evenodd" d="M16.4028 0C17.5074 0 18.4028 0.89543 18.4028 2V10.5475C18.4028 11.6521 17.5074 12.5475 16.4028 12.5475H13.4936L12.9509 15.0246C12.784 15.7863 11.8482 16.0724 11.2839 15.5343L8.15217 12.5475H1.99982C0.895247 12.5475 -0.000183105 11.6521 -0.000183105 10.5475V2C-0.000183105 0.895431 0.895248 0 1.99982 0H16.4028Z"/>
</mask>
<path fill-rule="evenodd" clip-rule="evenodd" d="M16.4028 0C17.5074 0 18.4028 0.89543 18.4028 2V10.5475C18.4028 11.6521 17.5074 12.5475 16.4028 12.5475H13.4936L12.9509 15.0246C12.784 15.7863 11.8482 16.0724 11.2839 15.5343L8.15217 12.5475H1.99982C0.895247 12.5475 -0.000183105 11.6521 -0.000183105 10.5475V2C-0.000183105 0.895431 0.895248 0 1.99982 0H16.4028Z" fill="white"/>
<path d="M13.4936 12.5475L11.3446 12.0767L11.7235 10.3475H13.4936V12.5475ZM12.9509 15.0246L10.8019 14.5538V14.5538L12.9509 15.0246ZM11.2839 15.5343L9.7656 17.1263V17.1263L11.2839 15.5343ZM8.15217 12.5475V10.3475H9.03305L9.67051 10.9555L8.15217 12.5475ZM16.2028 2C16.2028 2.11046 16.2924 2.2 16.4028 2.2V-2.2C18.7224 -2.2 20.6028 -0.319598 20.6028 2H16.2028ZM16.2028 10.5475V2H20.6028V10.5475H16.2028ZM16.4028 10.3475C16.2924 10.3475 16.2028 10.4371 16.2028 10.5475H20.6028C20.6028 12.8671 18.7224 14.7475 16.4028 14.7475V10.3475ZM13.4936 10.3475H16.4028V14.7475H13.4936V10.3475ZM15.6427 13.0183L15.0999 15.4954L10.8019 14.5538L11.3446 12.0767L15.6427 13.0183ZM15.0999 15.4954C14.5659 17.933 11.5714 18.8485 9.7656 17.1263L12.8023 13.9422C12.1251 13.2964 11.0022 13.6397 10.8019 14.5538L15.0999 15.4954ZM9.7656 17.1263L6.63384 14.1396L9.67051 10.9555L12.8023 13.9422L9.7656 17.1263ZM1.99982 10.3475H8.15217V14.7475H1.99982V10.3475ZM2.19982 10.5475C2.19982 10.4371 2.11027 10.3475 1.99982 10.3475V14.7475C-0.319778 14.7475 -2.20018 12.8671 -2.20018 10.5475H2.19982ZM2.19982 2V10.5475H-2.20018V2H2.19982ZM1.99982 2.2C2.11027 2.2 2.19982 2.11046 2.19982 2H-2.20018C-2.20018 -0.319597 -0.319777 -2.2 1.99982 -2.2V2.2ZM16.4028 2.2H1.99982V-2.2H16.4028V2.2Z" fill="white" mask="url(#path-1-inside-1)"/>
<line x1="4.75873" y1="4.06055" x2="12.8799" y2="4.06055" stroke="#0078D4" stroke-width="1.5" stroke-linecap="round" stroke-linejoin="round"/>
<line x1="4.75873" y1="8.0694" x2="9.67282" y2="8.0694" stroke="#0078D4" stroke-width="1.5" stroke-linecap="round" stroke-linejoin="round"/>
</svg>