<svg xmlns:xlink="http://www.w3.org/1999/xlink" aria-hidden="false" aria-labelledby="svg-title-Speech01-ef1b9899-7aa6-4969-b9c7-af68e5371e38" id="svg-Speech01-ef1b9899-7aa6-4969-b9c7-af68e5371e38" viewBox="0 0 48 49" xmlns="http://www.w3.org/2000/svg" data-slug-id="speech-01" role="img" width="256"  height="261.3333333333333" ><title id="svg-title-Speech01-ef1b9899-7aa6-4969-b9c7-af68e5371e38">Speech</title><path d="M47.9411 0H0V35.2342H12.6351V45.1304L22.511 35.2342H47.9411V0Z" fill="#0078D4"></path><path d="M37.8967 8.62616C37.8967 7.9277 37.3331 7.35547 36.6265 7.35547H11.3899C10.6917 7.35547 10.1196 7.91928 10.1196 8.62616C10.1196 9.32461 10.6832 9.89684 11.3899 9.89684H36.6265C37.3331 9.89684 37.8967 9.32461 37.8967 8.62616Z" fill="#50E6FF"></path><path d="M30.2754 8.6189C30.2754 10.0158 31.411 11.1519 32.8075 11.1519C34.2039 11.1519 35.3395 10.0158 35.3395 8.6189C35.3395 7.22198 34.2039 6.08594 32.8075 6.08594C31.411 6.09435 30.2754 7.22198 30.2754 8.6189Z" fill="#FFFFFF"></path><path d="M37.8967 17.4777C37.8967 16.7793 37.3331 16.207 36.6265 16.207H11.3899C10.6917 16.207 10.1196 16.7708 10.1196 17.4777C10.1196 18.1762 10.6832 18.7484 11.3899 18.7484H36.6265C37.3331 18.7484 37.8967 18.1762 37.8967 17.4777Z" fill="#50E6FF"></path><path d="M21.4175 17.4705C21.4175 18.8674 22.5531 20.0034 23.9496 20.0034C25.346 20.0034 26.4816 18.8674 26.4816 17.4705C26.4816 16.0735 25.346 14.9375 23.9496 14.9375C22.5531 14.9459 21.4175 16.0735 21.4175 17.4705Z" fill="#FFFFFF"></path><path d="M37.8967 26.3137C37.8967 25.6152 37.3331 25.043 36.6265 25.043H11.3899C10.6917 25.043 10.1196 25.6068 10.1196 26.3137C10.1196 27.0121 10.6832 27.5843 11.3899 27.5843H36.6265C37.3331 27.5843 37.8967 27.0121 37.8967 26.3137Z" fill="#50E6FF"></path><path d="M12.6602 26.3064C12.6602 27.7033 13.7958 28.8394 15.1922 28.8394C16.5887 28.8394 17.7243 27.7033 17.7243 26.3064C17.7243 24.9095 16.5887 23.7734 15.1922 23.7734C13.7874 23.7819 12.6602 24.9095 12.6602 26.3064Z" fill="#FFFFFF"></path></svg>