<svg xmlns:xlink="http://www.w3.org/1999/xlink" aria-hidden="false" aria-labelledby="svg-title-Users15-755dd37b-f9ad-4eb2-9d46-9c5508a2c65a" id="svg-Users15-755dd37b-f9ad-4eb2-9d46-9c5508a2c65a" viewBox="0 0 49 49" xmlns="http://www.w3.org/2000/svg" data-slug-id="users-15" role="img" width="256"  height="256" ><title id="svg-title-Users15-755dd37b-f9ad-4eb2-9d46-9c5508a2c65a">Users</title><path d="M48.489 24.9734C48.489 11.9713 37.9543 1.4281 24.9521 1.41125V6.20283C35.31 6.21968 43.6974 14.6155 43.6974 24.9734C43.6974 35.3313 35.3016 43.7355 24.9521 43.7439V48.5355C37.9458 48.5186 48.489 37.9755 48.489 24.9734Z" fill="#0078D4"></path><path d="M4.51416 13.1584L8.66574 15.5669C11.9163 9.96686 17.971 6.20265 24.9184 6.20265C24.9268 6.20265 24.9352 6.20265 24.9436 6.20265V1.40265C24.9352 1.40265 24.9268 1.40265 24.9184 1.40265C16.211 1.40265 8.59837 6.13528 4.51416 13.1584Z" fill="#FFFFFF"></path><path d="M4.51416 13.1584L8.66574 15.5669C9.20469 14.6405 9.811 13.7732 10.4931 12.9563C13.9373 8.83002 19.1163 6.20265 24.9184 6.20265C24.9268 6.20265 24.9352 6.20265 24.9436 6.20265V1.40265C24.9352 1.40265 24.9268 1.40265 24.9184 1.40265C17.7352 1.40265 11.3015 4.61949 6.97311 9.68896C6.05521 10.7753 5.22995 11.929 4.51416 13.1584Z" fill="#0078D4"></path><path d="M6.1396 24.9736C6.1396 21.5378 7.06592 18.3293 8.66592 15.5672L4.51434 13.1672C2.51013 16.6367 1.35645 20.6704 1.35645 24.9736C1.35645 29.2851 2.51013 33.3188 4.53118 36.7883L8.68276 34.3967C7.06592 31.6262 6.1396 28.4009 6.1396 24.9736Z" fill="#50E6FF"></path><path d="M8.66574 15.5672L4.51416 13.1672L8.66574 15.5672Z" fill="#50E6FF"></path><path d="M24.9182 43.7523C17.9793 43.7523 11.9246 39.9965 8.67404 34.3965L4.52246 36.7965C8.60667 43.8196 16.2109 48.5354 24.9182 48.5354C24.9267 48.5354 24.9351 48.5354 24.9435 48.5354V43.7439C24.9351 43.7523 24.9267 43.7523 24.9182 43.7523Z" fill="#0078D4"></path><path d="M4.52246 36.7881L8.67404 34.3965L4.52246 36.7881Z" fill="#0078D4"></path><path d="M15.3101 36.266C15.3101 30.826 19.7227 26.4218 25.1711 26.4218C30.6195 26.4218 35.0322 30.826 35.0322 36.266H15.3101Z" fill="#0078D4"></path><path d="M30.7793 19.0028C30.7793 22.0849 28.2783 24.5776 25.1878 24.5776C22.0972 24.5776 19.5962 22.0849 19.5962 19.0028C19.5962 15.9207 22.0972 13.4281 25.1878 13.4281C28.2783 13.4281 30.7793 15.9207 30.7793 19.0028Z" fill="#0078D4"></path><path d="M10.7795 12.6281L7.0406 9.62177C7.02376 9.64703 6.9985 9.67229 6.98166 9.69755C6.72902 9.99229 6.48481 10.2954 6.24902 10.607L9.98797 13.6133C10.1564 13.3944 10.3248 13.1754 10.5017 12.9649C10.5859 12.847 10.6785 12.7376 10.7795 12.6281Z" fill="#50E6FF"></path><path d="M19.6804 6.94379L18.1562 2.39642C17.752 2.51432 17.3478 2.64905 16.9604 2.79221L18.4847 7.33958C18.872 7.188 19.2762 7.06169 19.6804 6.94379Z" fill="#50E6FF"></path><path d="M23.6302 6.24508L23.1166 1.47876C22.6955 1.51244 22.2744 1.55455 21.8618 1.60508L22.3755 6.37139C22.7881 6.32087 23.2092 6.27034 23.6302 6.24508Z" fill="#50E6FF"></path><path d="M16.4214 8.2322L14.0719 4.05536C13.7014 4.24904 13.3309 4.45115 12.9688 4.6701L15.3182 8.83852C15.6803 8.61957 16.0424 8.41746 16.4214 8.2322Z" fill="#50E6FF"></path><path d="M13.4408 10.1187L10.3503 6.44714C10.0218 6.7082 9.69341 6.97767 9.38184 7.25556L12.4724 10.9187C12.7839 10.6408 13.1124 10.3714 13.4408 10.1187Z" fill="#50E6FF"></path></svg>