<svg xmlns:xlink="http://www.w3.org/1999/xlink" aria-hidden="false" aria-labelledby="svg-title-PricingGlyph-8bba0330-242c-41af-b98e-f0cdd39fdfdb" id="svg-PricingGlyph-8bba0330-242c-41af-b98e-f0cdd39fdfdb" viewBox="0 0 193 193" xmlns="http://www.w3.org/2000/svg" data-slug-id="pricing-glyph" role="img" width="256"  height="256" ><title id="svg-title-PricingGlyph-8bba0330-242c-41af-b98e-f0cdd39fdfdb">Pricing image</title><path fill-rule="evenodd" clip-rule="evenodd" d="M105.244 18.296L100.924 63.586C123.884 63.706 142.464 82.356 142.464 105.346C142.464 128.416 123.764 147.106 100.704 147.106C98.0443 147.106 95.4443 146.856 92.9243 146.386C79.1043 143.786 67.6843 134.366 62.2943 121.766L20.8243 139.396C32.5543 167.086 54.8243 185.156 84.2843 190.896V190.906C89.7443 192.016 95.3043 192.546 100.884 192.506C148.914 192.506 187.854 153.486 187.854 105.356C187.854 58.666 151.254 20.566 105.244 18.296Z" fill="url(&quot;#svg-gradient1-PricingGlyph-8bba0330-242c-41af-b98e-f0cdd39fdfdb&quot;)"></path><path fill-rule="evenodd" clip-rule="evenodd" d="M64.6943 126.496C61.0443 120.286 58.9443 113.056 58.9443 105.336C58.9443 96.8959 61.4443 89.046 65.7543 82.476L19.9043 53.5959C3.56431 79.0159 -0.97569 116.236 15.3643 148.926L64.6943 126.496Z" fill="url(&quot;#svg-gradient2-PricingGlyph-8bba0330-242c-41af-b98e-f0cdd39fdfdb&quot;)"></path><path fill-rule="evenodd" clip-rule="evenodd" d="M65.7243 82.516C73.1843 71.116 86.0643 63.576 100.704 63.576C100.784 63.576 100.874 63.576 100.954 63.576L106.884 0.626029C65.5943 -1.29397 33.6343 17.526 12.6443 48.146C21.1943 55.296 51.3443 73.806 65.7243 82.516Z" fill="url(&quot;#svg-gradient3-PricingGlyph-8bba0330-242c-41af-b98e-f0cdd39fdfdb&quot;)"></path><defs><linearGradient id="svg-gradient1-PricingGlyph-8bba0330-242c-41af-b98e-f0cdd39fdfdb" x1="197.481" y1="124.485" x2="0.189442" y2="85.367" gradientUnits="userSpaceOnUse"><stop stop-color="#0078D4"></stop><stop offset="1" stop-color="#243A5E"></stop></linearGradient><linearGradient id="svg-gradient2-PricingGlyph-8bba0330-242c-41af-b98e-f0cdd39fdfdb" x1="42.207" y1="-130.023" x2="32.2205" y2="205.886" gradientUnits="userSpaceOnUse"><stop stop-color="#50E6FF"></stop><stop offset="1" stop-color="#0078D4"></stop></linearGradient><linearGradient id="svg-gradient3-PricingGlyph-8bba0330-242c-41af-b98e-f0cdd39fdfdb" x1="-103.65" y1="115.409" x2="111.305" y2="25.1653" gradientUnits="userSpaceOnUse"><stop stop-color="#0078D4"></stop><stop offset="1" stop-color="#50E6FF"></stop></linearGradient><linearGradient id="svg-gradient1-PricingGlyph-8bba0330-242c-41af-b98e-f0cdd39fdfdb" x1="197.481" y1="124.485" x2="0.189442" y2="85.367" gradientUnits="userSpaceOnUse"><stop stop-color="#0078D4"></stop><stop offset="1" stop-color="#243A5E"></stop></linearGradient><linearGradient id="svg-gradient2-PricingGlyph-8bba0330-242c-41af-b98e-f0cdd39fdfdb" x1="42.207" y1="-130.023" x2="32.2205" y2="205.886" gradientUnits="userSpaceOnUse"><stop stop-color="#50E6FF"></stop><stop offset="1" stop-color="#0078D4"></stop></linearGradient><linearGradient id="svg-gradient3-PricingGlyph-8bba0330-242c-41af-b98e-f0cdd39fdfdb" x1="-103.65" y1="115.409" x2="111.305" y2="25.1653" gradientUnits="userSpaceOnUse"><stop stop-color="#0078D4"></stop><stop offset="1" stop-color="#50E6FF"></stop></linearGradient></defs></svg>