<svg width="10" height="17" xmlns="http://www.w3.org/2000/svg">
 <defs>
  <linearGradient y2="0.00001" x2="0.5" y1="1" x1="0.5" id="a">
   <stop stop-color="#949494" offset="0"/>
   <stop stop-color="#a2a2a2" offset="0.53"/>
   <stop stop-color="#b3b3b3" offset="1"/>
  </linearGradient>
 </defs>
 <g>
  <title>Layer 1</title>
  <path id="svg_1" fill="url(#a)" d="m9.82009,16.15009a0.58,0.58 0 0 1 -0.57,0.57l-8.68,0a0.57,0.57 0 0 1 -0.57,-0.57l0,-15.58a0.56,0.56 0 0 1 0.57,-0.57l8.68,0a0.57,0.57 0 0 1 0.57,0.57l0,15.58z"/>
  <path id="svg_2" fill="#003067" d="m1.44009,5.86009a1.07,1.07 0 0 1 1.06,-1.06l4.9,0a1.07,1.07 0 0 1 1.1,1.06a1.07,1.07 0 0 1 -1.1,1.07l-4.9,0a1.07,1.07 0 0 1 -1.06,-1.07zm0,-3.16a1.07,1.07 0 0 1 1.06,-1.07l4.9,0a1.07,1.07 0 0 1 1.1,1.07a1.07,1.07 0 0 1 -1.1,1.06l-4.9,0a1.07,1.07 0 0 1 -1.06,-1.06z"/>
  <circle id="svg_3" fill="#50e6ff" r="0.72" cy="2.70009" cx="2.56009"/>
  <circle id="svg_4" fill="#50e6ff" r="0.72" cy="5.86009" cx="2.56009"/>
 </g>
</svg>