<svg viewBox="0 0 32 32" class="" role="presentation" focusable="false" xmlns="http://www.w3.org/2000/svg" xmlns:xlink="http://www.w3.org/1999/xlink" id="FxSymbol0-044" data-type="1"><g><title></title><path d="M15.64 17.621H9.082c.788 2.782-.271 3.181-4.908 3.181v1.457h15.768v-1.457c-4.637 0-5.091-.398-4.302-3.181" class="msportalfx-svg-c04" fill="#7a7a7a"></path><path d="M22.659 0H1.311C.586 0 0 .649 0 1.373V16.26c0 .72.585 1.362 1.31 1.362h21.348c.724 0 1.457-.641 1.457-1.362V1.373C24.116.647 23.383 0 22.659 0" class="msportalfx-svg-c03" fill="#a0a1a2"></path><path opacity=".2" d="M22.674.001 22.659 0H1.31C.585 0 0 .649 0 1.374V16.26c0 .721.585 1.362 1.31 1.362h.508L22.674.001z" class="msportalfx-svg-c01" fill="#ffffff"></path><path d="M22.234 1.856v13.91H1.828V1.856z" class="msportalfx-svg-c15" fill="#59b4d9"></path><path d="M1.828 15.766h.028V1.856l18.656-.028h.001l-18.685.028z" class="msportalfx-svg-c15" fill="#59b4d9"></path><path d="M4.174 20.801h15.768v1.457H4.174z" class="msportalfx-svg-c03" fill="#a0a1a2"></path><path d="M12.308 1.01a.342.342 0 1 1-.684 0 .342.342 0 0 1 .684 0" class="msportalfx-svg-c13" fill="#b8d432"></path><path d="M12.321 8.389a.141.141 0 0 1-.065-.018L8.01 5.92a.13.13 0 0 1 .001-.222l4.221-2.435a.13.13 0 0 1 .127 0l4.248 2.452c.04.023.063.065.063.111a.128.128 0 0 1-.063.111l-4.219 2.435a.145.145 0 0 1-.067.017" class="msportalfx-svg-c01" fill="#ffffff"></path><path opacity=".7" d="M11.711 14.347a.129.129 0 0 1-.065-.017l-4.234-2.443a.126.126 0 0 1-.066-.111V6.872c0-.046.025-.088.066-.111a.125.125 0 0 1 .129 0l4.233 2.442a.134.134 0 0 1 .063.112v4.903a.13.13 0 0 1-.126.129" class="msportalfx-svg-c01" fill="#ffffff"></path><path opacity=".4" d="M12.91 14.347a.148.148 0 0 1-.067-.017.13.13 0 0 1-.062-.111V9.346c0-.045.025-.088.062-.111l4.233-2.442a.125.125 0 0 1 .127 0 .126.126 0 0 1 .065.111v4.872a.126.126 0 0 1-.065.111l-4.232 2.443a.112.112 0 0 1-.061.017" class="msportalfx-svg-c01" fill="#ffffff"></path><path d="M19.541 22.431h-6.558c.788 2.782-.271 3.181-4.908 3.181v1.457h15.768v-1.457c-4.637 0-5.091-.397-4.302-3.181" class="msportalfx-svg-c04" fill="#7a7a7a"></path><path d="M26.56 4.81H5.212c-.725 0-1.31.649-1.31 1.373V21.07c0 .72.585 1.362 1.31 1.362H26.56c.724 0 1.457-.641 1.457-1.362V6.183c0-.726-.733-1.373-1.457-1.373" class="msportalfx-svg-c03" fill="#a0a1a2"></path><path opacity=".2" d="m26.575 4.812-.015-.001H5.211c-.725 0-1.31.648-1.31 1.373v14.887c0 .721.585 1.362 1.31 1.362h.508L26.575 4.812z" class="msportalfx-svg-c01" fill="#ffffff"></path><path d="M26.135 6.666v13.911H5.729V6.666z" class="msportalfx-svg-c15" fill="#59b4d9"></path><path d="M5.729 20.577h.028V6.667l18.656-.028h.001l-18.685.028z" class="msportalfx-svg-c15" fill="#59b4d9"></path><path d="M8.075 25.612h15.768v1.457H8.075z" class="msportalfx-svg-c03" fill="#a0a1a2"></path><path d="M16.209 5.821a.342.342 0 1 1-.684 0 .342.342 0 0 1 .684 0" class="msportalfx-svg-c13" fill="#b8d432"></path><path d="M16.222 13.2a.141.141 0 0 1-.065-.018l-4.246-2.451a.13.13 0 0 1-.064-.111.13.13 0 0 1 .064-.111l4.221-2.435a.13.13 0 0 1 .127 0l4.248 2.452c.04.023.063.065.063.111a.128.128 0 0 1-.063.111l-4.219 2.435a.15.15 0 0 1-.066.017" class="msportalfx-svg-c01" fill="#ffffff"></path><path opacity=".7" d="M15.612 19.157a.129.129 0 0 1-.065-.017l-4.234-2.443a.126.126 0 0 1-.066-.111v-4.903c0-.046.025-.088.066-.111a.125.125 0 0 1 .129 0l4.233 2.442a.134.134 0 0 1 .063.112v4.903a.13.13 0 0 1-.063.111.132.132 0 0 1-.063.017" class="msportalfx-svg-c01" fill="#ffffff"></path><path opacity=".4" d="M16.811 19.157a.148.148 0 0 1-.067-.017.13.13 0 0 1-.062-.111v-4.872c0-.045.025-.088.062-.111l4.233-2.442a.125.125 0 0 1 .127 0 .126.126 0 0 1 .065.111v4.872a.126.126 0 0 1-.065.111l-4.232 2.443a.12.12 0 0 1-.061.016" class="msportalfx-svg-c01" fill="#ffffff"></path><path d="M23.523 27.346h-6.558c.788 2.782-.271 3.181-4.908 3.181v1.457h15.768v-1.457c-4.636 0-5.091-.397-4.302-3.181" class="msportalfx-svg-c04" fill="#7a7a7a"></path><path d="M30.543 9.725H9.195c-.725 0-1.31.649-1.31 1.373v14.887c0 .72.585 1.362 1.31 1.362h21.348c.724 0 1.457-.641 1.457-1.362V11.098c0-.726-.733-1.373-1.457-1.373" class="msportalfx-svg-c03" fill="#a0a1a2"></path><path opacity=".2" d="m30.558 9.727-.015-.001H9.194c-.725 0-1.31.648-1.31 1.373v14.887c0 .721.585 1.362 1.31 1.362h.508L30.558 9.727z" class="msportalfx-svg-c01" fill="#ffffff"></path><path d="M30.118 11.581v13.911H9.712V11.581z" class="msportalfx-svg-c15" fill="#59b4d9"></path><path d="M9.712 25.492h.028v-13.91l18.656-.028h.001l-18.685.028z" class="msportalfx-svg-c15" fill="#59b4d9"></path><path d="M12.058 30.527h15.768v1.457H12.058z" class="msportalfx-svg-c03" fill="#a0a1a2"></path><path d="M20.191 10.736a.342.342 0 1 1-.684 0 .342.342 0 0 1 .684 0" class="msportalfx-svg-c13" fill="#b8d432"></path><path d="M20.205 18.115a.141.141 0 0 1-.065-.018l-4.246-2.451a.13.13 0 0 1-.064-.111.13.13 0 0 1 .064-.111l4.221-2.435a.13.13 0 0 1 .127 0l4.248 2.452c.04.023.063.065.063.111a.128.128 0 0 1-.063.111l-4.219 2.435a.154.154 0 0 1-.066.017" class="msportalfx-svg-c01" fill="#ffffff"></path><path opacity=".7" d="M19.595 24.072a.129.129 0 0 1-.065-.017l-4.234-2.443a.126.126 0 0 1-.066-.111v-4.903c0-.046.025-.088.066-.111a.125.125 0 0 1 .129 0l4.233 2.442a.134.134 0 0 1 .063.112v4.903a.13.13 0 0 1-.063.111.122.122 0 0 1-.063.017" class="msportalfx-svg-c01" fill="#ffffff"></path><path opacity=".4" d="M20.793 24.072a.148.148 0 0 1-.067-.017.13.13 0 0 1-.062-.111v-4.872c0-.045.025-.088.062-.111l4.233-2.442a.125.125 0 0 1 .127 0 .126.126 0 0 1 .065.111v4.87a.126.126 0 0 1-.065.111l-4.232 2.443a.096.096 0 0 1-.061.018" class="msportalfx-svg-c01" fill="#ffffff"></path></g><defs>
</defs>
</svg>