<svg viewBox="0 0 30.577 32.005" class="" role="presentation" focusable="false" xmlns="http://www.w3.org/2000/svg" xmlns:xlink="http://www.w3.org/1999/xlink" id="FxSymbol0-046" data-type="1"><g><title></title><path d="M25 32H1a1 1 0 0 1-1-1V1a1 1 0 0 1 1-1h24a1 1 0 0 1 1 1v30a1 1 0 0 1-1 1Zm-4.79-21.29A10.676 10.676 0 1 0 26 30.93l.006-19.211a10.569 10.569 0 0 0-4.653-1.069 11.02 11.02 0 0 0-1.143.06" class="msportalfx-svg-c02" fill="#e5e5e5"></path><path d="M4.336 5.809 3 7.145l2.959 2.96 5.773-5.774-1.335-1.336-4.438 4.438-1.623-1.624z" class="msportalfx-svg-c15" fill="#59b4d9"></path><path fill="none" stroke="#59b4d9" stroke-miterlimit="10" stroke-width="2" d="M13.542 7h10.604"></path><path d="M4.336 15.259 3 16.595l2.959 2.96 5.773-5.774-1.335-1.336-4.438 4.438-1.623-1.624zm0 9.45L3 26.045 5.959 29l5.025-5.025s-.109-.377-.2-.883a7.836 7.836 0 0 1-.111-.926L10.4 21.9l-4.441 4.433Z" class="msportalfx-svg-c15" fill="#59b4d9"></path><path d="M20.524 13.693a7.679 7.679 0 1 0 5.576 1.626 7.539 7.539 0 0 0-4.757-1.669 7.924 7.924 0 0 0-.822.043" class="msportalfx-svg-c01" fill="#ffffff"></path><path d="M30.525 20.358a9.3 9.3 0 0 0-3.431-6.264 8.97 8.97 0 0 0-1.147-.777l-.726 1.4a7.333 7.333 0 0 1 .882.6 7.676 7.676 0 0 1-3.973 13.645 7.628 7.628 0 0 1-3.976-.652l-.726 1.4a9.242 9.242 0 0 0 13.1-9.348" class="msportalfx-svg-c06" fill="#1e1e1e"></path><path d="M16.5 27.293a7.674 7.674 0 0 1 8.72-12.578l.726-1.4a9.244 9.244 0 0 0-11.81 2.19 9.217 9.217 0 0 0 3.3 14.2l.726-1.4a7.7 7.7 0 0 1-1.662-1.012" class="msportalfx-svg-c06" fill="#1e1e1e"></path><path d="m16.48 16.78.3-.3.93.93-.299.3zm4.631-2.082h.424v1.316h-.424zm3.781 2.755.93-.93.3.3-.93.93zm1.635 3.657h1.316v.424h-1.316zm-1.694 4.02.3-.299.93.93-.3.3z" class="msportalfx-svg-c04" fill="#7a7a7a"></path><path d="m24.833 25.13.3-.299.93.93-.3.3zm-3.722 1.375h.424v1.316h-.424zM16.48 16.78l.3-.3.93.93-.299.3zm.065 9.02.93-.93.3.299-.93.93z" class="msportalfx-svg-c04" fill="#7a7a7a"></path><path d="m16.545 25.8.93-.93.3.299-.93.93zm-1.823-4.69h1.316v.424h-1.316z" class="msportalfx-svg-c04" fill="#7a7a7a"></path><path d="m25.211 23.753-3.553-1.263a.74.74 0 0 1 .5-1.394l3.553 1.263a.74.74 0 0 1-.5 1.394Z" class="msportalfx-svg-c06" fill="#1e1e1e"></path><path d="M21.253 22.352a.74.74 0 0 1-.74-.74v-6.3a.74.74 0 0 1 1.48 0v6.3a.74.74 0 0 1-.74.74Z" class="msportalfx-svg-c06" fill="#1e1e1e"></path><circle cx="21.253" cy="21.612" r="1.081" class="msportalfx-svg-c01" fill="#ffffff"></circle></g><defs>
</defs>
</svg>