<svg viewBox="0 0 16 16" class="" role="presentation" focusable="false" xmlns="http://www.w3.org/2000/svg" xmlns:xlink="http://www.w3.org/1999/xlink" id="FxSymbol0-04e" data-type="1"><g><title></title><g clip-path="url(#0cfbf8bb-93a1-4ac4-91e5-2d015d22d0ab)"><path d="M11.994 16H.535A.535.535 0 0 1 0 15.466V.534C0 .24.24 0 .534 0h11.46v16Z" fill="url(#0cfbf8bb-93a1-4ac4-91e5-2d015d22d0a9)"></path><path d="m1.533 7.814 4.063-4.06a.267.267 0 0 1 .456.19v2.123H7.88V1.603C7.88.717 8.598 0 9.484 0h5.982c.295 0 .534.24.534.534v14.932c0 .295-.24.534-.534.534H9.484a1.603 1.603 0 0 1-1.603-1.603V9.94H6.05v2.123a.267.267 0 0 1-.455.189l-4.063-4.06a.268.268 0 0 1 0-.378Z" fill="url(#0cfbf8bb-93a1-4ac4-91e5-2d015d22d0aa)"></path></g><defs></defs></g><defs>
<linearGradient id="0cfbf8bb-93a1-4ac4-91e5-2d015d22d0a9" x1="5.997" y1=".589" x2="5.997" y2="18.481" gradientUnits="userSpaceOnUse"><stop stop-color="#0078D4"></stop><stop offset="1" stop-color="#005BA1"></stop></linearGradient>
<linearGradient id="0cfbf8bb-93a1-4ac4-91e5-2d015d22d0aa" x1="8.728" y1="3.604" x2="8.728" y2="16.228" gradientUnits="userSpaceOnUse"><stop stop-color="#50E6FF"></stop><stop offset="1" stop-color="#32BEDD"></stop></linearGradient>
<clipPath id="0cfbf8bb-93a1-4ac4-91e5-2d015d22d0ab"><path d="M0 0h16v16H0z" class="msportalfx-svg-c01"></path></clipPath>
</defs>
</svg>