<svg viewBox="0 0 18 18" class="" role="presentation" focusable="false" xmlns="http://www.w3.org/2000/svg" xmlns:xlink="http://www.w3.org/1999/xlink" id="FxSymbol0-04a" data-type="1"><g><path fill="url(#d13ecef8-fa15-4af8-9245-e8544d2cb0cd)" d="M2.943 4.544v9.536l7.84 3.92V8.604l-7.84-4.06z"></path><path fill="#0078d4" d="m14.19 6.643-3.407 1.961V18l3.407-1.669V6.643z"></path><path fill="url(#d13ecef8-fa15-4af8-9245-e8544d2cb0ce)" d="m2.943 4.544 3.592-1.922 7.914 4.162-3.666 1.82-7.84-4.06z"></path><path d="M2.943 4.544 1.608 3.172a.277.277 0 0 1 .092-.405l3.183-1.7a.275.275 0 0 1 .362.094l1.288 1.46ZM8.663.092l-2.128 2.53L14.2 6.663l1.978-2.7a.3.3 0 0 0-.076-.479L9.019.034a.3.3 0 0 0-.356.058Z" fill="#5ea0ef"></path><path d="M10.783 8.591s1.751.065 2.258.092a.611.611 0 0 0 .35-.048l2.963-1.729a.181.181 0 0 0-.063-.335l-2.091.078Z" fill="#5ea0ef"></path></g><defs>
<linearGradient id="d13ecef8-fa15-4af8-9245-e8544d2cb0cd" x1="6.863" y1="6.505" x2="6.863" y2="17.198" gradientUnits="userSpaceOnUse"><stop offset="0" stop-color="#5ea0ef"></stop><stop offset="1" stop-color="#0078d4"></stop></linearGradient>
<linearGradient id="d13ecef8-fa15-4af8-9245-e8544d2cb0ce" x1="8.696" y1="1.63" x2="8.696" y2="10.015" gradientUnits="userSpaceOnUse"><stop offset="0" stop-color="#0078d4"></stop><stop offset="1" stop-color="#005ba1"></stop></linearGradient>
</defs>
</svg>