<svg viewBox="0 0 18 18" class="" role="presentation" focusable="false" xmlns="http://www.w3.org/2000/svg" xmlns:xlink="http://www.w3.org/1999/xlink" id="FxSymbol0-054" data-type="1"><g><path d="m17.646 9.967-7.5-8.46a1.55 1.55 0 0 0-2.294 0L.353 9.967c-.579.654-.428 1.641.323 2.111l7.499 4.688c.5.313 1.148.313 1.648 0l7.499-4.688c.751-.469.902-1.457.323-2.111Z" fill="url(#94ca0aaf-111b-481d-968b-5d8a93fa708a)"></path><path d="M10.147 1.507a1.55 1.55 0 0 0-2.294 0L.354 9.967c-.579.654-.428 1.641.323 2.111l3.126 1.954c.388.242 1.033.511 1.715.511.621 0 1.197-.18 1.676-.487l.002-.001L9 12.927l-4.364-2.728L9.11 5.152a3.053 3.053 0 0 1 2.302-1.026c.472 0 .917.107 1.314.292l-2.579-2.909Z" fill="url(#94ca0aaf-111b-481d-968b-5d8a93fa708b)"></path><path fill="url(#94ca0aaf-111b-481d-968b-5d8a93fa708c)" d="m4.636 10.199.052.032L9 12.927l4.364-2.728h.001-.001L9 5.275l-4.364 4.924z"></path><path d="M9 17c.287 0 .574-.078.824-.234l7.499-4.688c.751-.469.902-1.457.323-2.111l-7.499-8.46A1.526 1.526 0 0 0 9 1v16Z" fill="url(#94ca0aaf-111b-481d-968b-5d8a93fa708d)" fill-opacity=".5" opacity=".5"></path></g><defs>
<linearGradient id="94ca0aaf-111b-481d-968b-5d8a93fa708a" x1="7.697" y1="12.409" x2="14.082" y2="4.947" gradientUnits="userSpaceOnUse"><stop offset="0" stop-color="#225086"></stop><stop offset="1" stop-color="#0055c5"></stop></linearGradient>
<linearGradient id="94ca0aaf-111b-481d-968b-5d8a93fa708b" x1="6.363" y1="13.413" x2="6.363" y2="-2.834" gradientUnits="userSpaceOnUse"><stop offset="0" stop-color="#6df"></stop><stop offset="1" stop-color="#0294e4"></stop></linearGradient>
<linearGradient id="94ca0aaf-111b-481d-968b-5d8a93fa708c" x1="9" y1="15.621" x2="9" y2="-3.267" gradientUnits="userSpaceOnUse"><stop offset="0" stop-color="#44dbf9"></stop><stop offset="1" stop-color="#cbf8ff"></stop></linearGradient>
<linearGradient id="94ca0aaf-111b-481d-968b-5d8a93fa708d" x1="13.5" y1="16.856" x2="13.5" y2=".796" gradientUnits="userSpaceOnUse"><stop offset="0" stop-color="#041642"></stop><stop offset="1" stop-color="#041642" stop-opacity=".25"></stop></linearGradient>
</defs>
</svg>