<svg viewBox="0 0 18 18" class="" role="presentation" focusable="false" xmlns="http://www.w3.org/2000/svg" xmlns:xlink="http://www.w3.org/1999/xlink" id="FxSymbol0-0b7" data-type="1"><g><path d="M9.466 15.169a.407.407 0 0 1-.426.386H2.5a.407.407 0 0 1-.426-.386V2.5a.407.407 0 0 1 .426-.388h6.54a.407.407 0 0 1 .426.386Z" fill="url(#2e4eab57-9ff8-43ab-94d0-455a94a53416)"></path><path d="M3.156 6.986a.848.848 0 0 1 .8-.886h3.686a.849.849 0 0 1 .8.886.849.849 0 0 1-.8.887H3.96a.848.848 0 0 1-.804-.887Zm0-2.635a.848.848 0 0 1 .8-.886h3.686a.849.849 0 0 1 .8.886.849.849 0 0 1-.8.886H3.96a.847.847 0 0 1-.804-.886Z" fill="#003067"></path><circle cx="4.191" cy="4.351" r=".594" fill="#5ea0ef"></circle><circle cx="4.191" cy="6.983" r=".594" fill="#5ea0ef"></circle><path d="M2.874 18H1.92v-.938h.955Zm1.885 0h-.954v-.938h.956Zm1.885 0h-.953v-.938h.955Zm1.886 0h-.954v-.938h.956Zm1.885 0h-.953v-.938h.955Zm1.976 0h-.953v-.938h.955ZM.026 17.062h.938V18H.026Zm0-1.8h.938v.938H.026Zm0-1.88h.938v.938H.026Zm.938-.977H.026v-.956h.938Zm0-1.913H.026v-.951h.938Zm0-1.912H.026v-.95h.938Zm0-1.913H.026v-.949h.938Zm0-1.913H.026v-.948h.938Zm0-1.912H.026v-.949h.938ZM.026 0h.938v.938H.026ZM6.7.938h-.955V0H6.7Zm-1.913 0h-.954V0h.956Zm-1.912 0H1.92V0h.955ZM7.658 0H8.6v.938h-.942Zm4.726.938h-.955V0h.955Zm-1.877 0h-.954V0h.955Zm1.874 7.647h-.934V7.63h.937Zm0 1.907h-.934v-.955h.937Zm0-3.912h-.934v-.955h.937Zm0-1.912h-.934v-.956h.937Zm0-1.913h-.934V1.8h.937Z" fill="#76bc2d"></path><path d="m14.336 17.924 3.585-3.584a.184.184 0 0 0 0-.259L14.336 10.5a.181.181 0 0 0-.257 0 .179.179 0 0 0-.054.131v2.106a.184.184 0 0 1-.183.183h-2.915a.184.184 0 0 0-.183.183v2.227a.184.184 0 0 0 .183.183h2.917a.182.182 0 0 1 .183.182v2.103a.182.182 0 0 0 .18.184.18.18 0 0 0 .129-.058Z" fill="url(#2e4eab57-9ff8-43ab-94d0-455a94a53417)"></path></g><defs>
<linearGradient id="2e4eab57-9ff8-43ab-94d0-455a94a53416" x1="5.767" y1="789.404" x2="5.767" y2="775.96" gradientTransform="matrix(1 0 0 -1 0 791.516)" gradientUnits="userSpaceOnUse"><stop offset="0" stop-color="#b3b2b3"></stop><stop offset="1" stop-color="#979797"></stop></linearGradient>
<linearGradient id="2e4eab57-9ff8-43ab-94d0-455a94a53417" x1="-440.21" y1="1107.938" x2="-435.721" y2="1095.753" gradientTransform="scale(1 -1) rotate(-45 -1560.073 -1.848)" gradientUnits="userSpaceOnUse"><stop offset="0" stop-color="#6bb9f2"></stop><stop offset="1" stop-color="#1b93eb"></stop></linearGradient>
</defs>
</svg>