<svg viewBox="0 0 18 18" class="" role="presentation" focusable="false" xmlns="http://www.w3.org/2000/svg" xmlns:xlink="http://www.w3.org/1999/xlink" id="FxSymbol0-060" data-type="241"><g><path fill="#b796f9" d="m14.726 1.622-3.988 7.1-4.217-4.299-4.356 5.634 1.029.802 3.444-4.454 4.385 4.472 4.838-8.612-1.135-.643z"></path><path fill="url(#2e4eab57-9ff8-43ab-94d0-455a94a530db)" d="M8.211 5.392a1.639 1.639 0 1 1-1.656-1.629 1.642 1.642 0 0 1 1.656 1.629zm2.794 2.467a1.646 1.646 0 1 0 1.656 1.628 1.642 1.642 0 0 0-1.656-1.628zM15.136.5a1.646 1.646 0 1 0 1.656 1.628A1.643 1.643 0 0 0 15.136.5zM2.83 8.569A1.646 1.646 0 1 0 4.486 10.2 1.644 1.644 0 0 0 2.83 8.569z"></path><rect width="2.576" height="7.582" x="5.67" y="9.918" fill="#0078d4" rx=".283"></rect><rect width="2.576" height="4.958" x="9.78" y="12.542" fill="#005ba1" rx=".283"></rect><rect width="2.576" height="10.119" x="13.891" y="7.381" fill="#005ba1" rx=".283"></rect><rect width="2.576" height="4.958" x="1.559" y="12.542" fill="#5ea0ef" rx=".283"></rect></g><defs>
<linearGradient id="2e4eab57-9ff8-43ab-94d0-455a94a530db" x1="7.037" x2="11.248" y1="1.183" y2="11.903" gradientUnits="userSpaceOnUse"><stop offset="0" stop-color="#b77af4"></stop><stop offset=".403" stop-color="#9659e8"></stop><stop offset=".767" stop-color="#7f42df"></stop><stop offset=".997" stop-color="#773adc"></stop></linearGradient>
</defs>
</svg>