<svg viewBox="0 0 18 18" class="" role="presentation" focusable="false" xmlns="http://www.w3.org/2000/svg" xmlns:xlink="http://www.w3.org/1999/xlink" id="FxSymbol0-081" data-type="1"><g><path fill="#ccc" d="M15.375 2.125v6.562H6.743v1.125h8.632v6.563H16.5V2.125h-1.125z"></path><path d="M10.886.6v16.8a.6.6 0 0 1-.6.6H.915a.6.6 0 0 1-.6-.6V.6a.6.6 0 0 1 .6-.6h9.371a.6.6 0 0 1 .6.6Z" fill="url(#da57172f-1900-4225-90e1-8fc17863c3c5)"></path><path d="M1.71 1.869h1.72a.15.15 0 0 1 .15.15v2.225a.15.15 0 0 1-.15.15H1.71a.15.15 0 0 1-.15-.15V2.019a.15.15 0 0 1 .15-.15Zm3.03 0h1.721a.15.15 0 0 1 .15.15v2.225a.15.15 0 0 1-.15.15H4.74a.15.15 0 0 1-.15-.15V2.019a.15.15 0 0 1 .15-.15Zm3.031 0h1.72a.15.15 0 0 1 .15.15v2.225a.15.15 0 0 1-.15.15h-1.72a.15.15 0 0 1-.15-.15V2.019a.15.15 0 0 1 .15-.15ZM1.71 5.909h1.72a.15.15 0 0 1 .15.15v2.225a.15.15 0 0 1-.15.15H1.71a.15.15 0 0 1-.15-.15V6.059a.15.15 0 0 1 .15-.15Zm3.03 0h1.721a.15.15 0 0 1 .15.15v2.225a.15.15 0 0 1-.15.15H4.74a.15.15 0 0 1-.15-.15V6.059a.15.15 0 0 1 .15-.15Zm3.031 0h1.72a.15.15 0 0 1 .15.15v2.225a.15.15 0 0 1-.15.15h-1.72a.15.15 0 0 1-.15-.15V6.059a.15.15 0 0 1 .15-.15ZM1.71 9.95h1.72a.15.15 0 0 1 .15.15v2.225a.15.15 0 0 1-.15.15H1.71a.15.15 0 0 1-.15-.15V10.1a.15.15 0 0 1 .15-.15Zm3.03 0h1.721a.15.15 0 0 1 .15.15v2.225a.15.15 0 0 1-.15.15H4.74a.15.15 0 0 1-.15-.15V10.1a.15.15 0 0 1 .15-.15Zm0 4.04h1.721a.15.15 0 0 1 .15.15v3.295a.15.15 0 0 1-.15.15H4.74a.15.15 0 0 1-.15-.15V14.14a.15.15 0 0 1 .15-.15Zm3.031-4.04h1.72a.15.15 0 0 1 .15.15v2.225a.15.15 0 0 1-.15.15h-1.72a.15.15 0 0 1-.15-.15V10.1a.15.15 0 0 1 .15-.15Z" fill="#f2f2f2"></path><circle cx="15.937" cy="1.748" r="1.748" fill="url(#da57172f-1900-4225-90e1-8fc17863c3c6)"></circle><circle cx="15.937" cy="9.21" r="1.748" fill="url(#da57172f-1900-4225-90e1-8fc17863c3c7)"></circle><circle cx="15.937" cy="16.252" r="1.748" fill="url(#da57172f-1900-4225-90e1-8fc17863c3c8)"></circle></g><defs>
<linearGradient id="da57172f-1900-4225-90e1-8fc17863c3c5" x1="5.6" x2="5.6" y2="18" gradientUnits="userSpaceOnUse"><stop offset="0" stop-color="#5ea0ef"></stop><stop offset="1" stop-color="#0078d4"></stop></linearGradient>
<linearGradient id="da57172f-1900-4225-90e1-8fc17863c3c6" x1="15.937" x2="15.937" y2="3.496" gradientUnits="userSpaceOnUse"><stop offset=".001" stop-color="#9cebff"></stop><stop offset=".811" stop-color="#50e6ff"></stop></linearGradient>
<linearGradient id="da57172f-1900-4225-90e1-8fc17863c3c7" x1="15.937" y1="10.958" x2="15.937" y2="7.463" gradientUnits="userSpaceOnUse"><stop offset="0" stop-color="#a67af4"></stop><stop offset="1" stop-color="#b796f9"></stop></linearGradient>
<linearGradient id="da57172f-1900-4225-90e1-8fc17863c3c8" x1="15.937" y1="14.504" x2="15.937" y2="18" gradientUnits="userSpaceOnUse"><stop offset=".001" stop-color="#9cebff"></stop><stop offset="1" stop-color="#50e6ff"></stop></linearGradient>
</defs>
</svg>