<svg xmlns:xlink="http://www.w3.org/1999/xlink" aria-hidden="false" aria-labelledby="svg-title-FluidRelay-1610802c-aec4-4ab8-a98f-c8c536866707" id="svg-FluidRelay-1610802c-aec4-4ab8-a98f-c8c536866707" viewBox="0 0 18 18" xmlns="http://www.w3.org/2000/svg" data-slug-id="fluid-relay" role="img" width="256"  height="256" ><title id="svg-title-FluidRelay-1610802c-aec4-4ab8-a98f-c8c536866707">Azure Fluid Relay</title><defs></defs><path fill="#0078D4" d="M1.52,4.25A2.25,2.25,0,0,1,3.77,2h3.5A2.25,2.25,0,0,1,9.52,4.25v3.5A2.25,2.25,0,0,1,7.27,10H3.77A2.25,2.25,0,0,1,1.52,7.75Z" transform="translate(-1.52 -2)"></path><path fill="#0078D4" d="M11.52,14.25A2.25,2.25,0,0,1,13.77,12h5.5a2.25,2.25,0,0,1,2.25,2.25v5.5A2.25,2.25,0,0,1,19.27,22h-5.5a2.25,2.25,0,0,1-2.25-2.25Z" transform="translate(-1.52 -2)"></path><path fill="#50E6FF" d="M16.31,5H10.52V8.19A2.81,2.81,0,0,1,7.7,11H4.52v5.79A2.19,2.19,0,0,0,6.72,19h3.82V13.71A2.69,2.69,0,0,1,13.23,11h5.28V7.2A2.19,2.19,0,0,0,16.31,5Z" transform="translate(-1.52 -2)"></path></svg>