<svg xmlns:xlink="http://www.w3.org/1999/xlink" aria-hidden="false" aria-labelledby="svg-title-SignalrService-55a6f227-9911-4e21-bfee-86fa5c21a78c" id="svg-SignalrService-55a6f227-9911-4e21-bfee-86fa5c21a78c" viewBox="0 0 18 18" xmlns="http://www.w3.org/2000/svg" data-slug-id="signalr-service" role="img" width="256"  height="256" ><title id="svg-title-SignalrService-55a6f227-9911-4e21-bfee-86fa5c21a78c">Azure SignalR Service</title><defs><radialGradient id="svg-gradient1-SignalrService-55a6f227-9911-4e21-bfee-86fa5c21a78c" cx="9" cy="9" r="8.5" gradientUnits="userSpaceOnUse"><stop offset="0.18" stop-color="#5ea0ef"></stop><stop offset="1" stop-color="#0078d4"></stop></radialGradient><clipPath><path d="M14.21,15.72A8.5,8.5,0,0,1,3.79,2.28l.09-.06a8.5,8.5,0,0,1,10.33,13.5" fill="none"></path></clipPath><radialGradient id="svg-gradient1-SignalrService-55a6f227-9911-4e21-bfee-86fa5c21a78c" cx="9" cy="9" r="8.5" gradientUnits="userSpaceOnUse"><stop offset="0.18" stop-color="#5ea0ef"></stop><stop offset="1" stop-color="#0078d4"></stop></radialGradient></defs><path d="M14.21,15.72A8.5,8.5,0,0,1,3.79,2.28l.09-.06a8.5,8.5,0,0,1,10.33,13.5" fill="url(&quot;#svg-gradient1-SignalrService-55a6f227-9911-4e21-bfee-86fa5c21a78c&quot;)"></path><path d="M4.13,7.05a.28.28,0,0,0,.2.48h6.12A1.55,1.55,0,0,1,11.6,8a1.61,1.61,0,0,1,.43.92,1.43,1.43,0,0,1-.36,1.15,1.41,1.41,0,0,1-1.12.54H8.44a.08.08,0,0,0-.09.06L7.81,12c-.12.29-.25.59-.37.89a.08.08,0,0,0,0,.09L9,14.48l2.59,2.59.46.49,2.14-1.19L13.72,16l-1.43-1.44L10.74,13l-.07,0,0,0,.52-.07A3.84,3.84,0,0,0,14,10.65a3.85,3.85,0,0,0,0-3.08,3.93,3.93,0,0,0-.73-1.12,3.67,3.67,0,0,0-1.24-.89,4,4,0,0,0-1.66-.34h-3V4.05A.14.14,0,0,0,7.18,4Z" fill="#F2F2F2"></path></svg>