<svg xmlns:xlink="http://www.w3.org/1999/xlink" aria-hidden="false" aria-labelledby="svg-title-AzureCommunicationServices-bb591732-9b87-45ce-9c1b-b668f64c54fb" id="svg-AzureCommunicationServices-bb591732-9b87-45ce-9c1b-b668f64c54fb" viewBox="0 0 36 36" xmlns="http://www.w3.org/2000/svg" data-slug-id="azure-communication-services" role="img" width="256"  height="256" ><title id="svg-title-AzureCommunicationServices-bb591732-9b87-45ce-9c1b-b668f64c54fb">Azure Communication Services</title><defs><linearGradient id="svg-gradient1-AzureCommunicationServices-bb591732-9b87-45ce-9c1b-b668f64c54fb" x1="15.524" y1="4.952" x2="15.524" y2="30.782" gradientUnits="userSpaceOnUse"><stop offset="0.002" stop-color="#A67AF4"></stop><stop offset="1" stop-color="#773ADC"></stop></linearGradient><linearGradient id="svg-gradient2-AzureCommunicationServices-bb591732-9b87-45ce-9c1b-b668f64c54fb" x1="27.8521" y1="14.752" x2="27.8521" y2="31.048" gradientUnits="userSpaceOnUse"><stop offset="0.002" stop-color="#C3F1FF"></stop><stop offset="1" stop-color="#50E6FF"></stop></linearGradient><linearGradient id="svg-gradient1-AzureCommunicationServices-bb591732-9b87-45ce-9c1b-b668f64c54fb" x1="15.524" y1="4.952" x2="15.524" y2="30.782" gradientUnits="userSpaceOnUse"><stop offset="0.002" stop-color="#A67AF4"></stop><stop offset="1" stop-color="#773ADC"></stop></linearGradient><linearGradient id="svg-gradient2-AzureCommunicationServices-bb591732-9b87-45ce-9c1b-b668f64c54fb" x1="27.8521" y1="14.752" x2="27.8521" y2="31.048" gradientUnits="userSpaceOnUse"><stop offset="0.002" stop-color="#C3F1FF"></stop><stop offset="1" stop-color="#50E6FF"></stop></linearGradient></defs><path d="M1.8 4.952H29.246C29.6894 4.92107 30.1271 5.06627 30.4641 5.35609C30.8011 5.64591 31.0102 6.05696 31.046 6.5V25.272C31.0092 25.7146 30.7998 26.1251 30.4631 26.4147C30.1263 26.7043 29.6892 26.8499 29.246 26.82H18.014C17.9494 26.8201 17.8862 26.8389 17.832 26.874L12.07 30.674C11.9856 30.7389 11.8855 30.7801 11.7799 30.7935C11.6743 30.8069 11.5671 30.792 11.4691 30.7502C11.3712 30.7085 11.2862 30.6415 11.2227 30.556C11.1593 30.4706 11.1197 30.3698 11.108 30.264V27.078C11.1019 27.0042 11.067 26.9358 11.0108 26.8876C10.9547 26.8393 10.8819 26.815 10.808 26.82H1.8C1.35671 26.8504 0.919289 26.705 0.582407 26.4153C0.245525 26.1256 0.0362924 25.7148 0 25.272L0 6.5C0.0367956 6.05736 0.246171 5.64694 0.582934 5.35732C0.919696 5.06771 1.35684 4.92212 1.8 4.952V4.952Z" fill="url(&quot;#svg-gradient1-AzureCommunicationServices-bb591732-9b87-45ce-9c1b-b668f64c54fb&quot;)"></path><path opacity="0.8" d="M22.0621 13.322C22.4676 13.322 22.8639 13.4422 23.201 13.6675C23.5381 13.8927 23.8009 14.2129 23.9561 14.5875C24.1112 14.9621 24.1518 15.3743 24.0727 15.7719C23.9936 16.1696 23.7984 16.5349 23.5117 16.8216C23.225 17.1083 22.8597 17.3035 22.462 17.3826C22.0644 17.4617 21.6522 17.4211 21.2776 17.2659C20.903 17.1108 20.5829 16.848 20.3576 16.5109C20.1323 16.1738 20.0121 15.7774 20.0121 15.372C20.0121 14.8283 20.2281 14.3069 20.6125 13.9224C20.997 13.538 21.5184 13.322 22.0621 13.322ZM13.4741 15.4C13.4761 15.805 13.598 16.2004 13.8244 16.5362C14.0509 16.872 14.3718 17.1332 14.7465 17.2868C15.1213 17.4404 15.5331 17.4796 15.9301 17.3994C16.3271 17.3192 16.6915 17.1231 16.9772 16.836C17.2629 16.5489 17.4571 16.1836 17.5354 15.7863C17.6137 15.3889 17.5725 14.9772 17.4171 14.6032C17.2616 14.2292 16.9989 13.9096 16.662 13.6848C16.3251 13.46 15.9291 13.34 15.5241 13.34C15.2541 13.34 14.9867 13.3933 14.7373 13.497C14.4879 13.6006 14.2615 13.7525 14.071 13.944C13.8805 14.1354 13.7297 14.3625 13.6273 14.6124C13.5248 14.8623 13.4728 15.1299 13.4741 15.4V15.4ZM6.93411 15.4C6.93608 15.805 7.05799 16.2004 7.28444 16.5362C7.5109 16.872 7.83175 17.1332 8.20651 17.2868C8.58127 17.4404 8.99314 17.4796 9.39014 17.3994C9.78714 17.3192 10.1515 17.1231 10.4372 16.836C10.7229 16.5489 10.9171 16.1836 10.9954 15.7863C11.0737 15.3889 11.0325 14.9772 10.8771 14.6032C10.7216 14.2292 10.4589 13.9096 10.122 13.6848C9.78508 13.46 9.38913 13.34 8.98411 13.34C8.71405 13.34 8.44666 13.3933 8.19729 13.497C7.94792 13.6006 7.72148 13.7525 7.53099 13.944C7.3405 14.1354 7.18971 14.3625 7.08727 14.6124C6.98484 14.8623 6.93279 15.1299 6.93411 15.4V15.4Z" fill="#FFFFFF"></path><path d="M27.8521 31.048C32.3521 31.048 36.0001 27.4 36.0001 22.9C36.0001 18.4 32.3521 14.752 27.8521 14.752C23.3521 14.752 19.7041 18.4 19.7041 22.9C19.7041 27.4 23.3521 31.048 27.8521 31.048Z" fill="url(&quot;#svg-gradient2-AzureCommunicationServices-bb591732-9b87-45ce-9c1b-b668f64c54fb&quot;)"></path><path d="M32.3282 27.276L31.2542 25.648C31.1716 25.5187 31.0427 25.426 30.894 25.3888C30.7452 25.3516 30.5878 25.3728 30.4542 25.448L29.6842 25.862C29.6104 25.9019 29.5258 25.9168 29.4428 25.9045C29.3599 25.8923 29.2832 25.8535 29.2242 25.794C28.7161 25.2844 28.2549 24.7302 27.8462 24.138L27.2302 23.092C26.9259 22.4395 26.6816 21.7607 26.5002 21.064C26.4804 20.9828 26.4866 20.8975 26.5178 20.8201C26.549 20.7426 26.6037 20.6768 26.6742 20.632L27.4202 20.178C27.5491 20.1003 27.6441 19.977 27.6863 19.8325C27.7286 19.688 27.7149 19.5329 27.6482 19.398L26.8002 17.648C26.7346 17.5161 26.6204 17.4148 26.4817 17.3652C26.343 17.3156 26.1905 17.3216 26.0562 17.382C25.3121 17.812 24.7557 18.5047 24.4962 19.324C23.7922 20.954 25.0562 22.872 25.9902 24.504H26.0002C26.9342 26.136 27.9522 28.196 29.7122 28.416C30.5501 28.6069 31.4292 28.4771 32.1762 28.052C32.2978 27.9681 32.3817 27.8399 32.4102 27.695C32.4386 27.55 32.4091 27.3996 32.3282 27.276Z" fill="#0078D4"></path></svg>