<svg xmlns:xlink="http://www.w3.org/1999/xlink" aria-hidden="false" aria-labelledby="svg-title-CdnCustom-6f3aa898-05dd-46f6-a272-1be90749665b" id="svg-CdnCustom-6f3aa898-05dd-46f6-a272-1be90749665b" viewBox="0 0 18 18" xmlns="http://www.w3.org/2000/svg" data-slug-id="cdn" role="img" width="256"  height="256" ><title id="svg-title-CdnCustom-6f3aa898-05dd-46f6-a272-1be90749665b">Content Delivery Network</title><defs><linearGradient id="svg-gradient1-CdnCustom-6f3aa898-05dd-46f6-a272-1be90749665b" x1="10.79" y1="2.17" x2="10.79" y2="16.56" gradientUnits="userSpaceOnUse"><stop offset="0.18" stop-color="#5ea0ef"></stop><stop offset="1" stop-color="#0078d4"></stop></linearGradient><linearGradient id="svg-gradient1-CdnCustom-6f3aa898-05dd-46f6-a272-1be90749665b" x1="10.79" y1="2.17" x2="10.79" y2="16.56" gradientUnits="userSpaceOnUse"><stop offset="0.18" stop-color="#5ea0ef"></stop><stop offset="1" stop-color="#0078d4"></stop></linearGradient></defs><rect x="3.7" y="5.49" width="1.18" height="5.26" rx="0.52" transform="translate(-3.83 12.41) rotate(-90)" fill="#B3B3B3"></rect><rect x="2.04" y="7.88" width="1.18" height="5.26" rx="0.52" transform="translate(-7.88 13.14) rotate(-90)" fill="#A3A3A3"></rect><rect x="3.7" y="10.26" width="1.18" height="5.26" rx="0.52" transform="translate(-8.6 17.19) rotate(-90)" fill="#7A7A7A"></rect><path d="M18,11a3.28,3.28,0,0,0-2.81-3.18,4.13,4.13,0,0,0-4.21-4,4.23,4.23,0,0,0-4,2.8,3.89,3.89,0,0,0-3.38,3.8,4,4,0,0,0,4.06,3.86l.36,0h6.58l.17,0A3.32,3.32,0,0,0,18,11Z" fill="url(&quot;#svg-gradient1-CdnCustom-6f3aa898-05dd-46f6-a272-1be90749665b&quot;)"></path></svg>