<svg viewBox="0 0 11 14" class="" role="presentation" focusable="false" xmlns="http://www.w3.org/2000/svg" xmlns:xlink="http://www.w3.org/1999/xlink" id="FxSymbol0-0ff" data-type="1"><g><title></title><path d="M5.508 0A5.264 5.264 0 0 0 .25 5.258c0 1.8.856 3.736 2.545 5.753a18.128 18.128 0 0 0 2.52 2.48.314.314 0 0 0 .386 0 18.13 18.13 0 0 0 2.52-2.48c1.69-2.017 2.546-3.952 2.546-5.753 0-2.9-2.36-5.258-5.259-5.258ZM7.48 5.258a1.972 1.972 0 1 1-3.943 0 1.972 1.972 0 0 1 3.943 0Z" fill="url(#216a8bbc-d494-4deb-9fcd-f91f62458988)"></path><defs></defs></g><defs>
<linearGradient id="216a8bbc-d494-4deb-9fcd-f91f62458988" x1="5.508" y1="13.548" x2="5.508" y2=".003" gradientUnits="userSpaceOnUse"><stop stop-color="#0078D4"></stop><stop offset=".82" stop-color="#5EA0EF"></stop></linearGradient>
</defs>
</svg>