<svg xmlns:xlink="http://www.w3.org/1999/xlink" aria-hidden="false" aria-labelledby="svg-title-Backup-ef725d41-8289-4e3d-b9fe-b4b40ac681f5" id="svg-Backup-ef725d41-8289-4e3d-b9fe-b4b40ac681f5" viewBox="0 0 18 18" xmlns="http://www.w3.org/2000/svg" data-slug-id="backup" role="img" width="256"  height="256" ><title id="svg-title-Backup-ef725d41-8289-4e3d-b9fe-b4b40ac681f5">Azure Backup</title><defs><linearGradient id="svg-gradient1-Backup-ef725d41-8289-4e3d-b9fe-b4b40ac681f5" x1="11.13" y1="10.95" x2="11.13" y2="1.21" gradientUnits="userSpaceOnUse"><stop offset="0" stop-color="#0078d4"></stop><stop offset="0.16" stop-color="#1380da"></stop><stop offset="0.53" stop-color="#3c91e5"></stop><stop offset="0.82" stop-color="#559cec"></stop><stop offset="1" stop-color="#5ea0ef"></stop></linearGradient><linearGradient id="svg-gradient2-Backup-ef725d41-8289-4e3d-b9fe-b4b40ac681f5" x1="7.06" y1="16.79" x2="7.06" y2="6.78" gradientUnits="userSpaceOnUse"><stop offset="0" stop-color="#198ab3"></stop><stop offset="0.13" stop-color="#21a0c7"></stop><stop offset="0.31" stop-color="#28b7db"></stop><stop offset="0.5" stop-color="#2ec7ea"></stop><stop offset="0.72" stop-color="#31d1f2"></stop><stop offset="1" stop-color="#32d4f5"></stop></linearGradient><linearGradient id="svg-gradient1-Backup-ef725d41-8289-4e3d-b9fe-b4b40ac681f5" x1="11.13" y1="10.95" x2="11.13" y2="1.21" gradientUnits="userSpaceOnUse"><stop offset="0" stop-color="#0078d4"></stop><stop offset="0.16" stop-color="#1380da"></stop><stop offset="0.53" stop-color="#3c91e5"></stop><stop offset="0.82" stop-color="#559cec"></stop><stop offset="1" stop-color="#5ea0ef"></stop></linearGradient><linearGradient id="svg-gradient2-Backup-ef725d41-8289-4e3d-b9fe-b4b40ac681f5" x1="7.06" y1="16.79" x2="7.06" y2="6.78" gradientUnits="userSpaceOnUse"><stop offset="0" stop-color="#198ab3"></stop><stop offset="0.13" stop-color="#21a0c7"></stop><stop offset="0.31" stop-color="#28b7db"></stop><stop offset="0.5" stop-color="#2ec7ea"></stop><stop offset="0.72" stop-color="#31d1f2"></stop><stop offset="1" stop-color="#32d4f5"></stop></linearGradient></defs><path d="M18,7.9a3.09,3.09,0,0,0-2.68-3,3.89,3.89,0,0,0-4-3.72A4,4,0,0,0,7.5,3.81,3.68,3.68,0,0,0,4.26,7.36,3.74,3.74,0,0,0,8.13,11l.34,0h6.26l.17,0A3.13,3.13,0,0,0,18,7.9Z" fill="url(&quot;#svg-gradient1-Backup-ef725d41-8289-4e3d-b9fe-b4b40ac681f5&quot;)"></path><path d="M14.39,5.22,12.56,3.44c-.2-.2-.37-.13-.37.18v.8a.22.22,0,0,1-.23.22c-1.18,0-4.47.31-4.59,4.81a.23.23,0,0,0,.23.23H8.77A.23.23,0,0,0,9,9.43,2.76,2.76,0,0,1,12,6.1a.23.23,0,0,1,.23.23v.74c0,.37.12.43.37.18L14.39,5.6A.23.23,0,0,0,14.39,5.22Z" fill="#FFFFFF"></path><path d="M14.12,13.66a3.17,3.17,0,0,0-2.75-3.05A4,4,0,0,0,7.25,6.78,4.1,4.1,0,0,0,3.33,9.46,3.78,3.78,0,0,0,0,13.1a3.84,3.84,0,0,0,4,3.69h6.78a.47.47,0,0,0,.17,0A3.21,3.21,0,0,0,14.12,13.66Z" fill="url(&quot;#svg-gradient2-Backup-ef725d41-8289-4e3d-b9fe-b4b40ac681f5&quot;)"></path></svg>