<svg viewBox="0 0 34 34" class="" role="presentation" focusable="false" xmlns="http://www.w3.org/2000/svg" xmlns:xlink="http://www.w3.org/1999/xlink" id="FxSymbol0-133" data-type="1"><g><title></title><g clip-path="url(#f3bb1460-15ec-4138-ace3-28b5caf7fe11)"><path d="M8.815 10.106H.603A.602.602 0 0 1 0 9.503V3.982a.603.603 0 0 1 .603-.603h8.212a.603.603 0 0 1 .603.603v5.521a.603.603 0 0 1-.603.603Zm0 9.822H.603A.603.603 0 0 1 0 19.323v-5.52a.603.603 0 0 1 .603-.603h8.212a.602.602 0 0 1 .603.602v5.521a.603.603 0 0 1-.603.603v.002Zm12.426-9.822h-8.208a.603.603 0 0 1-.604-.603V3.982a.603.603 0 0 1 .604-.603h8.211a.602.602 0 0 1 .603.603v5.521a.603.603 0 0 1-.606.603Zm0 19.644h-8.208a.605.605 0 0 1-.604-.604v-5.524a.603.603 0 0 1 .604-.602h8.211a.602.602 0 0 1 .603.602v5.522a.602.602 0 0 1-.606.604v.002Zm-12.426 0H.603A.603.603 0 0 1 0 29.144v-5.522a.602.602 0 0 1 .603-.602h8.212a.603.603 0 0 1 .603.602v5.522a.602.602 0 0 1-.603.604v.002Z" fill="url(#f3bb1460-15ec-4138-ace3-28b5caf7fe10)"></path><path d="m24.965 7.098 8.73 8.729a1.041 1.041 0 0 1 0 1.471l-8.73 8.73a.465.465 0 0 1-.793-.328v-5.368a.464.464 0 0 0-.465-.465h-10.91a.378.378 0 0 1-.378-.377v-5.856a.377.377 0 0 1 .378-.378h10.91a.466.466 0 0 0 .465-.464V7.427a.465.465 0 0 1 .793-.329Z" fill="#86D633"></path></g><defs></defs></g><defs>
<linearGradient id="f3bb1460-15ec-4138-ace3-28b5caf7fe10" x1="10.922" y1="3.379" x2="10.922" y2="29.748" gradientUnits="userSpaceOnUse"><stop stop-color="#5EA0EF"></stop><stop offset="1" stop-color="#0078D4"></stop></linearGradient>
<clipPath id="f3bb1460-15ec-4138-ace3-28b5caf7fe11"><path d="M0 0h34v34H0z" class="msportalfx-svg-c01"></path></clipPath>
</defs>
</svg>