<svg viewBox="0 0 18 18" class="" role="presentation" focusable="false" xmlns="http://www.w3.org/2000/svg" xmlns:xlink="http://www.w3.org/1999/xlink" id="FxSymbol0-120" data-type="1"><g><path d="M3.8 6.37V3.823a.284.284 0 0 1 .284-.283h5.475V2.118H2.914a.568.568 0 0 0-.568.569v3.719Zm-1.454 5.091v3.854a.568.568 0 0 0 .568.568h6.615v-1.421H4.083a.284.284 0 0 1-.284-.283v-2.754Z" fill="#5ea0ef"></path><path d="M0 6.361v5.328a.589.589 0 0 0 .589.588h5.328a.588.588 0 0 0 .593-.583V6.361a.589.589 0 0 0-.585-.592H.589A.589.589 0 0 0 0 6.357Zm5.021.509a.39.39 0 0 1 .39.39v3.533a.391.391 0 0 1-.39.39H1.484a.391.391 0 0 1-.39-.39V7.256a.391.391 0 0 1 .39-.39Z" fill="#83b9f9"></path><path d="M17.525 12.273H8.95a.473.473 0 0 0-.473.473v4.3a.473.473 0 0 0 .473.473h8.577a.473.473 0 0 0 .473-.472v-4.3a.473.473 0 0 0-.473-.473Z" fill="url(#f3bb1460-15ec-4138-ace3-28b5caf7fabb)"></path><path d="M17.525.48H8.95a.473.473 0 0 0-.473.473v4.3a.473.473 0 0 0 .473.473h8.577a.473.473 0 0 0 .473-.47V.953a.473.473 0 0 0-.473-.473Z" fill="url(#f3bb1460-15ec-4138-ace3-28b5caf7fabc)"></path><rect x="10.214" y="14.985" width="1.524" height="1.189" rx=".111" class="msportalfx-svg-c01" fill="#ffffff"></rect><rect x="12.438" y="14.471" width="1.524" height="1.703" rx=".132" class="msportalfx-svg-c01" fill="#ffffff"></rect><rect x="14.662" y="13.666" width="1.524" height="2.508" rx=".161" class="msportalfx-svg-c01" fill="#ffffff"></rect><circle cx="12.228" cy="2.781" r=".563" class="msportalfx-svg-c01" fill="#ffffff"></circle><circle cx="14.195" cy="4.012" r=".563" class="msportalfx-svg-c01" fill="#ffffff"></circle><circle cx="15.758" cy="1.875" r=".563" class="msportalfx-svg-c01" fill="#ffffff"></circle><circle cx="10.592" cy="4.186" r=".563" class="msportalfx-svg-c01" fill="#ffffff"></circle><path d="m10.658 4.471-.335-.345 1.863-1.807 1.955 1.373 1.529-2.035.385.289-1.809 2.407-2.011-1.412-1.577 1.53z" class="msportalfx-svg-c01" fill="#ffffff"></path></g><defs>
<linearGradient id="f3bb1460-15ec-4138-ace3-28b5caf7fabb" x1="-270.879" y1="-269.663" x2="-277.754" y2="-269.663" gradientTransform="matrix(0 -1 -1 0 -256.424 -260.264)" gradientUnits="userSpaceOnUse"><stop offset="0" stop-color="#5ea0ef"></stop><stop offset="1" stop-color="#0078d4"></stop></linearGradient>
<linearGradient id="f3bb1460-15ec-4138-ace3-28b5caf7fabc" x1="-259.347" y1="-269.663" x2="-266.731" y2="-269.663" gradientTransform="matrix(0 -1 -1 0 -256.424 -260.264)" gradientUnits="userSpaceOnUse"><stop offset="0" stop-color="#5ea0ef"></stop><stop offset="1" stop-color="#0078d4"></stop></linearGradient>
</defs>
</svg>