<svg width="41" height="41" xmlns="http://www.w3.org/2000/svg" xmlns:xlink="http://www.w3.org/1999/xlink" xml:space="preserve" overflow="hidden"><defs><filter id="fx0" x="-10%" y="-10%" width="120%" height="120%" filterUnits="userSpaceOnUse" primitiveUnits="userSpaceOnUse"><feComponentTransfer color-interpolation-filters="sRGB"><feFuncR type="discrete" tableValues="0 0"/><feFuncG type="discrete" tableValues="0 0"/><feFuncB type="discrete" tableValues="0 0"/><feFuncA type="linear" slope="0.4" intercept="0"/></feComponentTransfer><feGaussianBlur stdDeviation="1.77778 1.77778"/></filter><clipPath id="clip1"><rect x="781" y="516" width="41" height="41"/></clipPath><clipPath id="clip2"><rect x="784" y="519" width="29" height="29"/></clipPath><clipPath id="clip3"><rect x="784" y="519" width="29" height="29"/></clipPath><clipPath id="clip4"><rect x="784" y="519" width="29" height="29"/></clipPath><radialGradient cx="7.957" cy="7.925" r="7.985" gradientUnits="userSpaceOnUse" spreadMethod="pad" id="fill5" gradientTransform="matrix(1.61111 0 0 1.61111 784 519)"><stop offset="0" stop-color="#5EA0EF"/><stop offset="0.18" stop-color="#5EA0EF"/><stop offset="1" stop-color="#0078D4"/></radialGradient><linearGradient x1="789.898" y1="535.53" x2="789.852" y2="529.553" gradientUnits="userSpaceOnUse" spreadMethod="pad" id="fill6"><stop offset="0" stop-color="#CCCCCC"/><stop offset="1" stop-color="#FCFCFC"/></linearGradient><linearGradient x1="806.96" y1="550.152" x2="806.96" y2="535.627" gradientUnits="userSpaceOnUse" spreadMethod="pad" id="fill7"><stop offset="0" stop-color="#5E9624"/><stop offset="0.999" stop-color="#76BC2D"/><stop offset="1" stop-color="#76BC2D"/></linearGradient></defs><g clip-path="url(#clip1)" transform="translate(-781 -516)"><g filter="url(#fx0)" transform="translate(780 515)"><g><g><g><g><path d="M23.1425 28.0854 23.1425 23.3778C23.149 22.8413 23.5743 22.4159 24.1028 22.4079 25.904 22.3595 26.4695 21.9648 27.0688 21.5475 27.6682 21.1303 28.2868 20.6985 29.7884 20.6985 31.1208 20.6985 31.7588 21.0384 32.3033 21.4074 32.7319 18.2109 31.9682 14.8534 29.9124 12.0613 25.701 6.34187 17.6567 5.12226 11.9453 9.33854L11.8068 9.43037C6.19687 13.7852 5.17543 21.8698 9.52382 27.4861 13.0795 32.0778 19.1228 33.5954 24.2768 31.617 23.6065 30.5553 23.1425 29.3647 23.1425 28.0854Z" fill="#FF0000"/><path d="M16.1874 16.9204C19.822 13.4598 24.6393 11.5216 29.6547 11.5023 28.9941 10.6854 28.2369 9.95399 27.3975 9.32404 24.9583 9.47549 22.5609 10.0378 20.3086 10.9883 17.9918 11.9856 15.8958 13.4372 14.1461 15.2562 14.9887 15.5768 15.704 16.16 16.1874 16.9204Z" fill="#FFFFFF" fill-opacity="0.6"/><path d="M9.82349 22.0985C9.29988 23.3858 8.87776 24.7102 8.55876 26.0635 8.8391 26.5484 9.15326 27.014 9.49965 27.4555 9.76065 27.797 10.0378 28.1257 10.331 28.4399 10.6967 26.6387 11.2429 24.8777 11.963 23.1877 11.1591 23.0427 10.4148 22.664 9.82187 22.0985Z" fill="#FFFFFF" fill-opacity="0.6"/><path d="M11.3041 15.2255C10.7708 13.7917 10.4196 12.2965 10.2617 10.7757 9.62693 11.4427 9.06787 12.1789 8.59904 12.9716 8.76982 14.1977 9.05821 15.4028 9.46099 16.5724 9.93465 15.957 10.5743 15.4898 11.3041 15.2255Z" fill="#F2F2F2" fill-opacity="0.55"/><path d="M16.8205 19.1148C16.8205 21.3935 14.9732 23.2408 12.6945 23.2408 10.4157 23.2408 8.56843 21.3935 8.56843 19.1148 8.56843 16.836 10.4157 14.9887 12.6945 14.9887 14.9732 14.9887 16.8205 16.836 16.8205 19.1148Z" fill="#FF0000"/><path d="M18.7168 26.6693C18.7168 25.9443 19.0117 25.2499 19.5337 24.7472 18.14 23.9835 16.8528 23.0362 15.7073 21.931 15.1079 22.5803 14.3169 23.0201 13.4501 23.1877 14.1332 23.8869 14.8663 24.5345 15.6428 25.1258 16.6111 25.854 17.6487 26.4856 18.741 27.0092 18.7265 26.8964 18.7168 26.7837 18.7168 26.6709Z" fill="#F2F2F2" fill-opacity="0.55"/><path d="M24.6957 19.4934C24.831 18.9037 25.1548 18.3753 25.6188 17.987 23.128 16.1729 20.8644 14.0672 18.8763 11.7133 17.7179 10.3519 16.7045 8.87132 15.8539 7.29726 15.29 7.46643 14.739 7.6791 14.2057 7.93204 15.116 9.64626 16.2051 11.259 17.4553 12.7444 19.5804 15.2868 22.0115 17.5536 24.6957 19.4934Z" fill="#F2F2F2" fill-opacity="0.7"/><path d="M16.8205 19.1148C16.8205 21.3935 14.9732 23.2408 12.6945 23.2408 10.4157 23.2408 8.56843 21.3935 8.56843 19.1148 8.56843 16.836 10.4157 14.9887 12.6945 14.9887 14.9732 14.9887 16.8205 16.836 16.8205 19.1148Z" fill="#FCFCFC"/><path d="M23.1425 28.0854 23.1425 24.6441C22.6705 24.2333 22.0615 23.9755 21.3864 23.9755 19.901 23.9755 18.6975 25.1806 18.6975 26.6693 18.6975 28.1579 19.901 29.363 21.3864 29.363 22.0808 29.363 22.7075 29.0924 23.1844 28.659 23.1635 28.4689 23.1425 28.2804 23.1425 28.087Z" fill="#FCFCFC"/><path d="M25.7107 22.2145C26.3438 22.0502 26.7015 21.8037 27.0688 21.5475 27.6682 21.1303 28.2868 20.6985 29.7884 20.6985 29.9592 20.6985 30.117 20.7049 30.2669 20.7162 30.3249 20.489 30.3652 20.2538 30.3652 20.0089 30.3652 18.4284 29.0859 17.1476 27.5087 17.1476 25.9314 17.1476 24.6522 18.4284 24.6522 20.0089 24.6522 20.9031 25.071 21.6909 25.7123 22.2162Z" fill="#FCFCFC"/><path d="M35.4579 23.0137C31.7249 22.9154 32.5853 21.3027 29.7884 21.3027 26.9915 21.3027 27.8502 22.9154 24.1189 23.0137 23.9143 23.0169 23.7499 23.1812 23.7483 23.3858L23.7483 28.0854C23.7483 31.9908 28.5462 35.1389 29.5902 35.7737 29.7127 35.8478 29.8657 35.8478 29.9882 35.7737 31.0305 35.1357 35.83 31.9908 35.83 28.0854L35.83 23.3858C35.8268 23.1812 35.6625 23.0169 35.4595 23.0137Z" fill="#FF0000"/><path d="M32.5675 27.4233 32.5724 27.42C32.5192 27.3733 32.4532 27.3475 32.3823 27.3475L31.9602 27.3475 31.9602 26.0393C31.9634 25.4239 31.7378 24.8294 31.327 24.3702 30.9339 23.911 30.3555 23.65 29.7513 23.6613 29.1472 23.6533 28.572 23.9127 28.1773 24.3702 27.7632 24.8262 27.536 25.4223 27.5425 26.0393L27.5425 27.3475 27.2009 27.3475C27.1816 27.3475 27.1655 27.3556 27.1478 27.3588 27.1317 27.362 27.1172 27.362 27.1027 27.3685 26.9899 27.4104 26.9077 27.5151 26.9061 27.6424L26.9061 31.0209C26.9061 31.0515 26.9158 31.0789 26.9238 31.1047 26.9238 31.1047 26.9238 31.1047 26.9238 31.1047 26.9287 31.1175 26.9319 31.132 26.9367 31.1433 26.9544 31.1884 26.9818 31.2303 27.0205 31.2625L27.0334 31.2529C27.0817 31.2867 27.1365 31.3109 27.1993 31.3125L32.3678 31.3125C32.4354 31.3125 32.4934 31.2851 32.5434 31.2464L32.5659 31.2625C32.632 31.2078 32.6707 31.1256 32.6723 31.0402L32.6723 27.6424C32.6723 27.5538 32.6288 27.4764 32.5675 27.4233ZM28.5688 26.0168C28.572 25.6768 28.7025 25.3498 28.9377 25.1017 29.3179 24.6586 29.9849 24.607 30.428 24.9873 30.4683 25.0227 30.5069 25.0614 30.5424 25.1017 30.5939 25.158 30.639 25.2209 30.6793 25.2853 30.8388 25.4964 30.9274 25.7509 30.9355 26.0168L30.9355 27.3459C30.9355 27.3459 28.5688 27.3459 28.5688 27.3459L28.5688 26.0168Z" fill="#FFFFFF"/></g></g></g></g></g><g clip-path="url(#clip2)"><g clip-path="url(#clip3)"><g clip-path="url(#clip4)"><path d="M800.314 540.257 800.314 535.549C800.321 535.013 800.746 534.588 801.274 534.579 803.076 534.531 803.641 534.136 804.24 533.719 804.84 533.302 805.458 532.87 806.96 532.87 808.292 532.87 808.93 533.21 809.475 533.579 809.903 530.383 809.14 527.025 807.084 524.233 802.873 518.513 794.828 517.294 789.117 521.51L788.978 521.602C783.368 525.957 782.347 534.041 786.695 539.658 790.251 544.249 796.294 545.767 801.448 543.789 800.778 542.727 800.314 541.536 800.314 540.257Z" fill="url(#fill5)"/><path d="M793.359 529.092C796.994 525.631 801.811 523.693 806.826 523.674 806.166 522.857 805.408 522.126 804.569 521.496 802.13 521.647 799.732 522.209 797.48 523.16 795.163 524.157 793.067 525.609 791.318 527.428 792.16 527.748 792.876 528.332 793.359 529.092Z" fill="#FFFFFF" fill-opacity="0.6"/><path d="M786.995 534.27C786.471 535.557 786.049 536.882 785.73 538.235 786.011 538.72 786.325 539.186 786.671 539.627 786.932 539.969 787.209 540.297 787.503 540.611 787.868 538.81 788.414 537.049 789.135 535.359 788.331 535.214 787.586 534.836 786.993 534.27Z" fill="#FFFFFF" fill-opacity="0.6"/><path d="M788.476 527.397C787.942 525.963 787.591 524.468 787.433 522.947 786.799 523.614 786.239 524.351 785.771 525.143 785.941 526.369 786.23 527.574 786.633 528.744 787.106 528.129 787.746 527.661 788.476 527.397Z" fill="#F2F2F2" fill-opacity="0.55"/><path d="M793.992 531.286C793.992 533.565 792.145 535.412 789.866 535.412 787.587 535.412 785.74 533.565 785.74 531.286 785.74 529.008 787.587 527.16 789.866 527.16 792.145 527.16 793.992 529.008 793.992 531.286Z" fill="url(#fill6)"/><path d="M795.888 538.841C795.888 538.116 796.183 537.421 796.705 536.919 795.312 536.155 794.024 535.208 792.879 534.103 792.279 534.752 791.488 535.192 790.622 535.359 791.305 536.058 792.038 536.706 792.814 537.297 793.783 538.026 794.82 538.657 795.913 539.181 795.898 539.068 795.888 538.955 795.888 538.842Z" fill="#F2F2F2" fill-opacity="0.55"/><path d="M801.867 531.665C802.003 531.075 802.326 530.547 802.79 530.159 800.3 528.344 798.036 526.239 796.048 523.885 794.89 522.523 793.876 521.043 793.025 519.469 792.462 519.638 791.911 519.851 791.377 520.104 792.288 521.818 793.377 523.431 794.627 524.916 796.752 527.458 799.183 529.725 801.867 531.665Z" fill="#F2F2F2" fill-opacity="0.7"/><path d="M793.992 531.286C793.992 533.565 792.145 535.412 789.866 535.412 787.587 535.412 785.74 533.565 785.74 531.286 785.74 529.008 787.587 527.16 789.866 527.16 792.145 527.16 793.992 529.008 793.992 531.286Z" fill="#FCFCFC"/><path d="M800.314 540.257 800.314 536.816C799.842 536.405 799.233 536.147 798.558 536.147 797.073 536.147 795.869 537.352 795.869 538.841 795.869 540.33 797.073 541.535 798.558 541.535 799.252 541.535 799.879 541.264 800.356 540.831 800.335 540.64 800.314 540.452 800.314 540.259Z" fill="#FCFCFC"/><path d="M802.882 534.386C803.515 534.222 803.873 533.975 804.24 533.719 804.84 533.302 805.458 532.87 806.96 532.87 807.131 532.87 807.289 532.877 807.438 532.888 807.496 532.661 807.537 532.425 807.537 532.18 807.537 530.6 806.258 529.319 804.68 529.319 803.103 529.319 801.824 530.6 801.824 532.18 801.824 533.075 802.243 533.862 802.884 534.388Z" fill="#FCFCFC"/><path d="M812.629 535.185C808.896 535.087 809.757 533.474 806.96 533.474 804.163 533.474 805.022 535.087 801.29 535.185 801.086 535.188 800.922 535.353 800.92 535.557L800.92 540.257C800.92 544.162 805.718 547.31 806.762 547.945 806.884 548.019 807.037 548.019 807.16 547.945 808.202 547.307 813.002 544.162 813.002 540.257L813.002 535.557C812.998 535.353 812.834 535.188 812.631 535.185Z" fill="url(#fill7)"/><path d="M809.739 539.595 809.744 539.592C809.691 539.545 809.625 539.519 809.554 539.519L809.132 539.519 809.132 538.211C809.135 537.595 808.909 537.001 808.499 536.542 808.105 536.083 807.527 535.822 806.923 535.833 806.319 535.825 805.744 536.084 805.349 536.542 804.935 536.998 804.708 537.594 804.714 538.211L804.714 539.519 804.372 539.519C804.353 539.519 804.337 539.527 804.319 539.53 804.303 539.534 804.289 539.534 804.274 539.54 804.161 539.582 804.079 539.687 804.078 539.814L804.078 543.192C804.078 543.223 804.087 543.25 804.095 543.276 804.095 543.276 804.095 543.276 804.095 543.276 804.1 543.289 804.103 543.304 804.108 543.315 804.126 543.36 804.153 543.402 804.192 543.434L804.205 543.424C804.253 543.458 804.308 543.482 804.371 543.484L809.539 543.484C809.607 543.484 809.665 543.457 809.715 543.418L809.737 543.434C809.804 543.379 809.842 543.297 809.844 543.212L809.844 539.814C809.844 539.725 809.8 539.648 809.739 539.595ZM805.74 538.188C805.744 537.848 805.874 537.521 806.109 537.273 806.49 536.83 807.156 536.779 807.6 537.159 807.64 537.194 807.679 537.233 807.714 537.273 807.766 537.33 807.811 537.392 807.851 537.457 808.01 537.668 808.099 537.922 808.107 538.188L808.107 539.518C808.107 539.518 805.74 539.518 805.74 539.518L805.74 538.188Z" fill="#FFFFFF"/></g></g></g></g></svg>