<svg viewBox="0 0 50 50" class="" role="presentation" focusable="false" xmlns="http://www.w3.org/2000/svg" xmlns:xlink="http://www.w3.org/1999/xlink" id="FxSymbol0-048" data-type="1"><g><title></title><path d="M12.5 49h-11A1.5 1.5 0 0 1 0 47.5v-11A1.5 1.5 0 0 1 1.5 35h11a1.5 1.5 0 0 1 1.5 1.5v11a1.5 1.5 0 0 1-1.5 1.5z" class="msportalfx-svg-c19" fill="#0072c6"></path><path d="M11 38v8H3v-8z" class="msportalfx-svg-c01" fill="#ffffff"></path><path d="M29.5 49h-11a1.5 1.5 0 0 1-1.5-1.5v-11a1.5 1.5 0 0 1 1.5-1.5h11a1.5 1.5 0 0 1 1.5 1.5v11a1.5 1.5 0 0 1-1.5 1.5z" class="msportalfx-svg-c19" fill="#0072c6"></path><path d="M28 38v8h-8v-8z" class="msportalfx-svg-c01" fill="#ffffff"></path><path d="M23 22h2v13h-2z" class="msportalfx-svg-c04" fill="#7a7a7a"></path><path d="M35 11c0 6.075-4.925 11-11.001 11S13 17.075 13 11 17.924 0 23.999 0 35 4.925 35 11" class="msportalfx-svg-c17" fill="#804998"></path><path d="M46.9 27c0 3.157-2.642 5.717-5.9 5.717-3.259 0-5.9-2.56-5.9-5.717s2.641-5.717 5.9-5.717c3.258 0 5.9 2.56 5.9 5.717m-2.215 8L41 40.677 37.315 35H32v14h18V35z" class="msportalfx-svg-c16" fill="#3999c6"></path><path opacity=".2" d="M31.071 3.929c-3.905-3.905-10.237-3.905-14.142 0s-3.906 10.236 0 14.142L31.071 3.929z" class="msportalfx-svg-c01" fill="#ffffff"></path><path d="M34.1 27H8a2 2 0 0 0-2 2v6h2v-6h26.413a6.53 6.53 0 0 1-.313-2z" class="msportalfx-svg-c04" fill="#7a7a7a"></path></g><defs>
</defs>
</svg>