<svg viewBox="0 0 50 50" class="" role="presentation" focusable="false" xmlns="http://www.w3.org/2000/svg" xmlns:xlink="http://www.w3.org/1999/xlink" id="FxSymbol0-049" data-type="1"><g><title></title><path d="M35.5 43h-29A1.5 1.5 0 0 1 5 41.5v-35A1.5 1.5 0 0 1 6.5 5h29A1.5 1.5 0 0 1 37 6.5v35a1.5 1.5 0 0 1-1.5 1.5z" class="msportalfx-svg-c10" fill="#ff8c00"></path><path opacity=".4" d="M35.5 43h-29A1.5 1.5 0 0 1 5 41.5v-35A1.5 1.5 0 0 1 6.5 5h29A1.5 1.5 0 0 1 37 6.5v35a1.5 1.5 0 0 1-1.5 1.5z"></path><path d="M34 8v32H8V8z" class="msportalfx-svg-c01" fill="#ffffff"></path><path d="M29 10H13V5.2A3.2 3.2 0 0 1 16.2 2h9.6A3.2 3.2 0 0 1 29 5.2V10z" class="msportalfx-svg-c03" fill="#a0a1a2"></path><path opacity=".2" d="M21 2h-4.8A3.2 3.2 0 0 0 13 5.2V10h8V2z" class="msportalfx-svg-c01" fill="#ffffff"></path><path d="M19 16h11v2H19zm0 8h11v2H19zm0 8h11v2H19z" class="msportalfx-svg-c15" fill="#59b4d9"></path><path opacity=".4" d="M33 35h-5v8h7.5a1.5 1.5 0 0 0 1.5-1.5v-8.703c-2.224-.463-3.9-2.437-3.9-4.797s1.676-4.333 3.9-4.797V21.18c-3.331.487-5.9 3.355-5.9 6.82 0 1.968.832 3.742 2.159 5H33v2z" class="msportalfx-svg-c01" fill="#ffffff"></path><path d="M43.9 28a5.9 5.9 0 1 1-11.801-.001A5.9 5.9 0 0 1 43.9 28m-2.215 8L38 41.677 34.315 36H29v14h18V36z" class="msportalfx-svg-c16" fill="#3999c6"></path><path d="M11 15h5v5h-5zm0 8h5v5h-5zm0 8h5v5h-5z" class="msportalfx-svg-c15" fill="#59b4d9"></path><path d="M12.25 16.25h2.5v2.5h-2.5zm0 8h2.5v2.5h-2.5zm0 8h2.5v2.5h-2.5z" class="msportalfx-svg-c01" fill="#ffffff"></path></g><defs>
</defs>
</svg>