<svg viewBox="0 0 50 50" class="" role="presentation" focusable="false" xmlns="http://www.w3.org/2000/svg" xmlns:xlink="http://www.w3.org/1999/xlink" id="FxSymbol0-04b" data-type="1"><g><title></title><path d="M27.969 9c0 4.363-3.568 7.9-7.969 7.9s-7.968-3.537-7.968-7.9S15.598 1.1 20 1.1s7.969 3.537 7.969 7.9m-2.238 10L20 27.516 14.268 19H6v21h28V19z" class="msportalfx-svg-c16" fill="#3999c6"></path><circle cx="32.5" cy="34.5" r="8.625" class="msportalfx-svg-c01" fill="#ffffff"></circle><path opacity=".4" d="M22.875 34.5c0 2.507.971 4.786 2.547 6.5H35V25.711a10.807 10.807 0 0 0-2.809-.819c-5.163.164-9.316 4.405-9.316 9.608z" class="msportalfx-svg-c16" fill="#3999c6"></path><path d="M46.177 50c.453 0 .88-.175 1.201-.493.324-.32.503-.746.506-1.201a1.694 1.694 0 0 0-.494-1.208L41.494 41.2l-2.411 2.411 5.881 5.884c.324.326.754.505 1.213.505z" class="msportalfx-svg-c04" fill="#7a7a7a"></path><path opacity=".4" d="M41.217 45.743a5.675 5.675 0 0 0 2.399-2.398l.007-.015-1.633-1.633-2.411 2.411 1.636 1.637.002-.002z"></path><path d="M32.5 22.6c-6.572 0-11.9 5.328-11.9 11.9s5.328 11.9 11.9 11.9 11.9-5.328 11.9-11.9-5.328-11.9-11.9-11.9zm0 20.525c-4.755 0-8.625-3.869-8.625-8.625s3.869-8.625 8.625-8.625 8.625 3.869 8.625 8.625-3.869 8.625-8.625 8.625z" class="msportalfx-svg-c04" fill="#7a7a7a"></path></g><defs>
</defs>
</svg>