<svg viewBox="0 0 50 50" class="" role="presentation" focusable="false" xmlns="http://www.w3.org/2000/svg" xmlns:xlink="http://www.w3.org/1999/xlink" id="FxSymbol0-04a" data-type="1"><g><title></title><path d="M35.5 43h-29A1.5 1.5 0 0 1 5 41.5v-35A1.5 1.5 0 0 1 6.5 5h29A1.5 1.5 0 0 1 37 6.5v35a1.5 1.5 0 0 1-1.5 1.5z" class="msportalfx-svg-c10" fill="#ff8c00"></path><path opacity=".4" d="M35.5 43h-29A1.5 1.5 0 0 1 5 41.5v-35A1.5 1.5 0 0 1 6.5 5h29A1.5 1.5 0 0 1 37 6.5v35a1.5 1.5 0 0 1-1.5 1.5z"></path><path d="M34 8v32H8V8z" class="msportalfx-svg-c01" fill="#ffffff"></path><path d="M29 10H13V5.2A3.2 3.2 0 0 1 16.2 2h9.6A3.2 3.2 0 0 1 29 5.2V10z" class="msportalfx-svg-c03" fill="#a0a1a2"></path><path opacity=".2" d="M21 2h-4.8A3.2 3.2 0 0 0 13 5.2V10h8V2z" class="msportalfx-svg-c01" fill="#ffffff"></path><path d="M19 16h11v2H19zm0 8h11v2H19zm0 8h11v2H19zm-8-17h5v5h-5zm0 8h5v5h-5zm0 8h5v5h-5z" class="msportalfx-svg-c15" fill="#59b4d9"></path><path d="M12.25 16.25h2.5v2.5h-2.5zm0 8h2.5v2.5h-2.5zm0 8h2.5v2.5h-2.5z" class="msportalfx-svg-c01" fill="#ffffff"></path><path d="M47.956 26H26.044c-.577 0-1.044.484-1.044 1.082v21.89c0 .568.46 1.028 1.028 1.028h21.928C48.53 50 49 49.53 49 48.956V27.082c0-.598-.467-1.082-1.044-1.082z" class="msportalfx-svg-c14" fill="#57a300"></path><path d="M27 28h20v20H27z" class="msportalfx-svg-c01" fill="#ffffff"></path><path d="m36.436 44.925-6.253-6.328a.633.633 0 0 1 .005-.895l1.351-1.335a.633.633 0 0 1 .895.005l3.923 3.97 6.012-7.747a.634.634 0 0 1 .889-.111l1.498 1.167a.633.633 0 0 1 .111.887l-8.051 10.364a.253.253 0 0 1-.38.023z" class="msportalfx-svg-c14" fill="#57a300"></path></g><defs>
</defs>
</svg>