<svg viewBox="0 0 18 18" class="" role="presentation" focusable="false" xmlns="http://www.w3.org/2000/svg" xmlns:xlink="http://www.w3.org/1999/xlink" id="FxSymbol0-1d2" data-type="233"><g><title>MsPortalFx.base.images-2</title><path fill="url(#47de85af-b5b0-4d0e-9451-38dda838cbe3)" d="M.544 5.316h16.912v9.918a.565.565 0 0 1-.565.565H1.109a.565.565 0 0 1-.565-.565V5.316z"></path><path fill="#0078d4" d="M1.112 2.2h15.776a.565.565 0 0 1 .565.565v2.55H.547V2.766a.565.565 0 0 1 .565-.566z"></path><path fill="#f78d1e" d="M13.528 7.347H9.384a.228.228 0 0 1-.124-.037l-1.183-.787a.218.218 0 0 0-.123-.038H4.472a.222.222 0 0 0-.222.222v7.315a.221.221 0 0 0 .222.222h9.056a.221.221 0 0 0 .222-.222V7.569a.222.222 0 0 0-.222-.222z"></path><rect width="2.159" height=".432" x="5.114" y="6.91" rx=".091" class="msportalfx-svg-c01" fill="#ffffff"></rect><rect width=".432" height=".432" x="5.114" y="6.91" fill="#d15900" rx=".062"></rect><path d="M13.528 7.337H8.977a.219.219 0 0 0-.157.063l-.732.731a.22.22 0 0 1-.157.066H4.472a.221.221 0 0 0-.222.221v5.591a.221.221 0 0 0 .222.222h9.056a.221.221 0 0 0 .222-.222V7.558a.221.221 0 0 0-.222-.221z" class="msportalfx-svg-c01" fill="#ffffff"></path></g><defs>
<linearGradient id="47de85af-b5b0-4d0e-9451-38dda838cbe3" x1="9" x2="9" y1="15.799" y2="5.316" gradientUnits="userSpaceOnUse"><stop offset="0" stop-color="#32bedd"></stop><stop offset=".775" stop-color="#32d4f5"></stop></linearGradient>
</defs>
</svg>