<svg data-slug-id="app-service-static" viewBox="0 0 48 48" xmlns="http://www.w3.org/2000/svg">
<path d="M46.0813 43.345H1.91874C0.859764 43.345 0 42.4853 0 41.4263V11.8405H48V41.4263C48 42.4853 47.1402 43.345 46.0813 43.345Z" fill="#0078D4"/>
<path d="M43.4679 40.4722H4.83094C4.07864 40.4722 3.4679 39.8614 3.4679 39.1091V19.1484C3.4679 18.3961 4.07864 17.7854 4.83094 17.7854H43.4679C44.2202 17.7854 44.8309 18.3961 44.8309 19.1484V39.1117C44.8283 39.8614 44.2202 40.4722 43.4679 40.4722Z" fill="#3888D6"/>
<path d="M48 14.9623H0V6.46685C0 5.46816 0.809961 4.6582 1.80865 4.6582H46.1914C47.19 4.6582 48 5.46816 48 6.46685V14.9623Z" fill="#005BA1"/>
<path d="M6.45072 12.2861C7.59293 12.2861 8.51887 11.3601 8.51887 10.2179C8.51887 9.07572 7.59293 8.14978 6.45072 8.14978C5.30851 8.14978 4.38257 9.07572 4.38257 10.2179C4.38257 11.3601 5.30851 12.2861 6.45072 12.2861Z" fill="white"/>
<path d="M12.7917 12.2861C13.9339 12.2861 14.8598 11.3601 14.8598 10.2179C14.8598 9.07572 13.9339 8.14978 12.7917 8.14978C11.6495 8.14978 10.7235 9.07572 10.7235 10.2179C10.7235 11.3601 11.6495 12.2861 12.7917 12.2861Z" fill="white"/>
<path d="M19.1822 12.2861C20.3244 12.2861 21.2503 11.3601 21.2503 10.2179C21.2503 9.07572 20.3244 8.14978 19.1822 8.14978C18.04 8.14978 17.114 9.07572 17.114 10.2179C17.114 11.3601 18.04 12.2861 19.1822 12.2861Z" fill="white"/>
<path d="M21.6435 38.1837L20.3984 37.7643C20.2359 37.7093 20.1468 37.5336 20.1992 37.3685L25.8244 20.1155C25.8794 19.9504 26.0577 19.8587 26.2228 19.9137L27.4679 20.3331C27.6304 20.3882 27.7195 20.5638 27.6671 20.7289L22.042 37.9819C21.9895 38.1496 21.8087 38.2414 21.6435 38.1837Z" fill="white"/>
<path d="M17.6619 36.0447L11.8873 30.2675L12.4457 28.1233L19.0171 34.6947C19.1639 34.8415 19.1639 35.08 19.0171 35.2295L18.1966 36.0499C18.0498 36.1941 17.8113 36.1941 17.6619 36.0447Z" fill="#D7E7F7"/>
<path d="M30.0262 36.0447L35.8008 30.2675L35.2424 28.1233L28.671 34.6947C28.5242 34.8415 28.5242 35.08 28.671 35.2295L29.4915 36.0499C29.6382 36.1941 29.8768 36.1941 30.0262 36.0447Z" fill="#D7E7F7"/>
<path d="M19.0327 23.8406L12.228 30.6113L11.2817 29.665C11.0563 29.4396 11.0563 29.0752 11.2817 28.8498L17.6775 22.4855C17.8479 22.3151 18.1232 22.3151 18.2935 22.4855L19.0301 23.222C19.2031 23.3924 19.2031 23.6702 19.0327 23.8406Z" fill="white"/>
<path d="M28.6554 23.8406L35.4601 30.6113L36.4064 29.665C36.6318 29.4396 36.6318 29.0752 36.4064 28.8498L30.0106 22.4855C29.8402 22.3151 29.565 22.3151 29.3946 22.4855L28.658 23.222C28.485 23.3924 28.485 23.6702 28.6554 23.8406Z" fill="white"/>
</svg>
