<svg viewBox="0 0 119.366 84.601" class="" role="presentation" focusable="false" xmlns="http://www.w3.org/2000/svg" xmlns:xlink="http://www.w3.org/1999/xlink" id="FxSymbol0-03d" data-type="1"><g><title>Cognitive Services</title><g><g><path d="M119.366 58.1c0-12.9-10.051-23.616-23.277-25.779C95.914 14.445 80.4 0 61.273 0c-15.5 0-28.8 9.5-33.313 22.615C12 25.043 0 37.885 0 53.39 0 70.627 15.048 84.6 33.61 84.6c1 0 1.984-.048 2.961-.127H91a5.4 5.4 0 0 0 1.435-.215c14.984-.614 26.931-12.086 26.931-26.158Z" fill="url(#10515c49-d46d-42ea-93ca-7cd1aa43a058)"></path><path d="M110.167 74.9a28.08 28.08 0 0 1-17.918 7.286l-.216.034a4.418 4.418 0 0 1-1.179.181H36.348a35.465 35.465 0 0 1-2.883.125 34.03 34.03 0 0 1-19.349-5.953v2.34a36.018 36.018 0 0 0 19.349 5.563c.956 0 1.951-.044 2.961-.129h54.428a6.133 6.133 0 0 0 1.583-.221 30.121 30.121 0 0 0 17.73-6.658Z" opacity=".6" fill="url(#10515c49-d46d-42ea-93ca-7cd1aa43a059)"></path><path d="M92.079 17.329A35.357 35.357 0 0 0 61.367 0C46.2 0 32.853 9.063 27.96 22.615A33.988 33.988 0 0 0 5.381 36.447v3.984a31.938 31.938 0 0 1 23.434-16l.572-.089.188-.552C34.037 10.715 46.813 1.93 61.367 1.93c13.744 0 25.609 7.967 30.712 19.257Z" opacity=".3" fill="url(#10515c49-d46d-42ea-93ca-7cd1aa43a05a)"></path><path d="M35.946 51.517H30.1a7.244 7.244 0 1 0-.015 3.248h5.866a1.349 1.349 0 0 1 1.347 1.347V84.6h3.249V56.11a4.6 4.6 0 0 0-4.6-4.595Zm-12.907 5.832a4.235 4.235 0 1 1 4.235-4.234 4.24 4.24 0 0 1-4.235 4.234Zm36.224-4.395v-6.762a4.6 4.6 0 0 0-4.595-4.592H44.385a1.349 1.349 0 0 1-1.347-1.347V5.157l-1.529.775-1.722.975v33.341a4.6 4.6 0 0 0 4.6 4.6h10.278a1.348 1.348 0 0 1 1.346 1.346v6.763a7.24 7.24 0 1 0 3.249 0ZM57.64 64.239A4.236 4.236 0 1 1 61.875 60a4.239 4.239 0 0 1-4.235 4.235ZM103.566 46.2a7.239 7.239 0 1 0-8.89 7.041v1.34a1.346 1.346 0 0 1-1.345 1.347H80.309v-23.29a4.6 4.6 0 0 0-4.6-4.6h-7.051a7.242 7.242 0 1 0-.014 3.247h7.07a1.348 1.348 0 0 1 1.346 1.347V84.6h3.249V59.183h13.018a4.6 4.6 0 0 0 4.6-4.6v-1.322a7.247 7.247 0 0 0 5.64-7.056ZM61.605 33.873a4.235 4.235 0 1 1 4.235-4.234 4.24 4.24 0 0 1-4.235 4.234ZM96.33 50.439a4.236 4.236 0 1 1 4.234-4.236 4.242 4.242 0 0 1-4.234 4.236Z" fill="url(#10515c49-d46d-42ea-93ca-7cd1aa43a05b)"></path></g></g></g><defs>
<linearGradient id="10515c49-d46d-42ea-93ca-7cd1aa43a058" x1="59.683" y1="109.445" x2="59.683" y2="-19.29" gradientUnits="userSpaceOnUse"><stop offset="0" stop-color="#0078d4"></stop><stop offset=".156" stop-color="#1380da"></stop><stop offset=".528" stop-color="#3c91e5"></stop><stop offset=".822" stop-color="#559cec"></stop><stop offset="1" stop-color="#5ea0ef"></stop></linearGradient>
<linearGradient id="10515c49-d46d-42ea-93ca-7cd1aa43a059" x1="14.116" y1="81.696" x2="110.167" y2="81.696" gradientTransform="matrix(1 0 0 1.006 0 -2.496)" gradientUnits="userSpaceOnUse"><stop offset="0" stop-color="#124c82" stop-opacity="0"></stop><stop offset=".495" stop-color="#124c82" stop-opacity=".5"></stop><stop offset="1" stop-color="#2f7ab6" stop-opacity="0"></stop></linearGradient>
<linearGradient id="10515c49-d46d-42ea-93ca-7cd1aa43a05a" x1="5.381" y1="20.215" x2="92.079" y2="20.215" gradientUnits="userSpaceOnUse"><stop offset=".041" stop-color="#fff" stop-opacity="0"></stop><stop offset=".459" stop-color="#fff"></stop><stop offset="1" stop-color="#fff" stop-opacity="0"></stop></linearGradient>
<linearGradient id="10515c49-d46d-42ea-93ca-7cd1aa43a05b" x1="59.683" y1="84.601" x2="59.683" y2="5.157" gradientUnits="userSpaceOnUse"><stop offset="0" stop-color="#ccc"></stop><stop offset="1" stop-color="#fff"></stop></linearGradient>
</defs>
</svg>