<svg viewBox="0 0 49 48" class="" role="presentation" focusable="false" xmlns="http://www.w3.org/2000/svg" xmlns:xlink="http://www.w3.org/1999/xlink" id="FxSymbol0-042" data-type="1"><g><title></title><path d="M24.071 1.26c-.859 0-1.557.632-1.557 1.405v42.667c0 .776.7 1.405 1.557 1.405.832 0 1.528-.627 1.557-1.405V2.665c0-.776-.699-1.405-1.557-1.405Z" fill="#50E6FF"></path><path d="M16.925 8.883c-.997 0-1.808.744-1.808 1.656v26.719c0 .912.811 1.656 1.808 1.656s1.808-.744 1.808-1.656V10.542c0-.915-.81-1.656-1.808-1.656v-.003Z" fill="url(#10515c49-d46d-42ea-93ca-7cd1aa43a060)"></path><path d="M9.873 16.619c-.997 0-1.808.744-1.808 1.656V29.52c0 .912.81 1.656 1.808 1.656.997 0 1.776-.704 1.808-1.656V18.278c0-.915-.811-1.656-1.808-1.656v-.003Z" fill="url(#10515c49-d46d-42ea-93ca-7cd1aa43a061)"></path><path d="M2.82 19.891c-.997 0-1.808.744-1.808 1.656v4.744c0 .915.811 1.656 1.808 1.656.965 0 1.776-.736 1.808-1.656v-4.744c0-.912-.81-1.656-1.808-1.656Z" fill="url(#10515c49-d46d-42ea-93ca-7cd1aa43a062)"></path><path d="M31.055 8.883c-.997 0-1.808.744-1.808 1.656v26.719c0 .912.811 1.656 1.808 1.656s1.808-.744 1.808-1.656V10.542c0-.915-.81-1.656-1.808-1.656v-.003Z" fill="url(#10515c49-d46d-42ea-93ca-7cd1aa43a063)"></path><path d="M38.11 16.619c-.997 0-1.808.744-1.808 1.656v11.261c.032.933.808 1.64 1.808 1.64s1.808-.744 1.808-1.656V18.278c0-.915-.811-1.656-1.808-1.656v-.003Z" fill="url(#10515c49-d46d-42ea-93ca-7cd1aa43a064)"></path><path d="M45.184 19.891c-.997 0-1.805.744-1.805 1.656v4.744c0 .915.81 1.656 1.805 1.656.994 0 1.808-.744 1.808-1.656v-4.744c0-.912-.811-1.656-1.808-1.656Z" fill="url(#10515c49-d46d-42ea-93ca-7cd1aa43a065)"></path><path d="M1.042 8.355a.956.956 0 0 1-.68-.283.96.96 0 0 1-.283-.68V.96A.965.965 0 0 1 1.042 0h6.034c.253 0 .499.101.677.283a.96.96 0 0 1 0 1.36.96.96 0 0 1-.68.283H2.004V7.39a.974.974 0 0 1-.28.683.97.97 0 0 1-.68.285l-.003-.003h.001Zm46.957-.96V.961a.956.956 0 0 0-.283-.68.97.97 0 0 0-.68-.28h-6.034a.956.956 0 0 0-.68.283.96.96 0 0 0 0 1.36.961.961 0 0 0 .68.283h5.058v5.464a.964.964 0 0 0 .966.966.964.964 0 0 0 .966-.966l.011.005H48l-.001-.001ZM7.966 47.038a.921.921 0 0 0-.075-.368.959.959 0 0 0-.888-.592H1.932v-5.466a.964.964 0 0 0-.966-.966.964.964 0 0 0-.966.966v6.429a.965.965 0 0 0 .965.957h6.034a.956.956 0 0 0 .68-.283.96.96 0 0 0 .283-.68l.003.003h.001Zm40.036 0v-6.426a.964.964 0 0 0-.966-.966.964.964 0 0 0-.966.966v5.466h-5.058a.921.921 0 0 0-.368.075.959.959 0 0 0-.52 1.256.959.959 0 0 0 .888.592h6.034a.957.957 0 0 0 .672-.285.954.954 0 0 0 .28-.675l.003-.003h.001Z" fill="#773ADC"></path><defs></defs></g><defs>
<linearGradient id="10515c49-d46d-42ea-93ca-7cd1aa43a060" x1="1.172" y1="23.898" x2="20.605" y2="23.898" gradientUnits="userSpaceOnUse"><stop stop-color="#773ADC"></stop><stop offset="1" stop-color="#50E6FF"></stop></linearGradient>
<linearGradient id="10515c49-d46d-42ea-93ca-7cd1aa43a061" x1="1.028" y1="23.897" x2="16.195" y2="23.897" gradientUnits="userSpaceOnUse"><stop stop-color="#773ADC"></stop><stop offset="1" stop-color="#50E6FF"></stop></linearGradient>
<linearGradient id="10515c49-d46d-42ea-93ca-7cd1aa43a062" x1="1.012" y1="23.918" x2="9.883" y2="23.918" gradientUnits="userSpaceOnUse"><stop stop-color="#773ADC"></stop><stop offset="1" stop-color="#50E6FF"></stop></linearGradient>
<linearGradient id="10515c49-d46d-42ea-93ca-7cd1aa43a063" x1="27.655" y1="23.898" x2="45.223" y2="23.898" gradientUnits="userSpaceOnUse"><stop stop-color="#50E6FF"></stop><stop offset="1" stop-color="#773ADC"></stop></linearGradient>
<linearGradient id="10515c49-d46d-42ea-93ca-7cd1aa43a064" x1="30.924" y1="23.897" x2="46.82" y2="23.897" gradientUnits="userSpaceOnUse"><stop stop-color="#50E6FF"></stop><stop offset="1" stop-color="#773ADC"></stop></linearGradient>
<linearGradient id="10515c49-d46d-42ea-93ca-7cd1aa43a065" x1="38.072" y1="23.918" x2="46.911" y2="23.918" gradientUnits="userSpaceOnUse"><stop stop-color="#50E6FF"></stop><stop offset="1" stop-color="#773ADC"></stop></linearGradient>
</defs>
</svg>