<svg viewBox="0 0 22 22" class="" role="presentation" focusable="false" xmlns="http://www.w3.org/2000/svg" xmlns:xlink="http://www.w3.org/1999/xlink" id="FxSymbol0-074" data-type="1"><g><title></title><g clip-path="url(#341f198d-f091-4116-b062-baa442a42128)"><path fill="#7138E3" d="M20.118 10.27c0 5.915-7.196 10.675-8.761 11.646a.57.57 0 0 1-.596 0C9.195 20.949 2 16.189 2 10.27V3.154c0-.149.06-.292.163-.398a.56.56 0 0 1 .392-.168C8.153 2.44 6.864 0 11.06 0c4.195 0 2.906 2.44 8.504 2.588a.56.56 0 0 1 .39.167.572.572 0 0 1 .165.396v7.12z"></path><path fill="url(#341f198d-f091-4116-b062-baa442a4212a)" d="M18.822 10.356c0 5.219-6.167 9.419-7.509 10.275a.477.477 0 0 1-.51 0c-1.343-.852-7.51-5.053-7.51-10.275V4.077c0-.131.05-.258.14-.351a.473.473 0 0 1 .336-.149c4.798-.13 3.693-2.283 7.289-2.283 3.595 0 2.49 2.153 7.289 2.283a.473.473 0 0 1 .334.148c.09.093.14.218.141.349v6.282z"></path><g clip-path="url(#341f198d-f091-4116-b062-baa442a42129)" class="msportalfx-svg-c01" fill="#ffffff"><path d="M16.869 12.026l-.023.022c-.22.31-.66.398-.967.177l-4.4-3.067.814-1.17 4.422 3.068c.308.22.373.662.154.97zM12.71 7.084l-1.914 2.758-2.552-1.765 1.914-2.78 2.552 1.787zm-2.288 3.839l.484-.684-3.08-2.14-.484.684a.586.586 0 0 0 .132.794l2.156 1.5a.61.61 0 0 0 .792-.154zm3.146-4.567l-.484.706-3.08-2.14.484-.684c.176-.264.528-.309.792-.132l2.156 1.5a.533.533 0 0 1 .132.75zm-2.112 7.32H6.924a.93.93 0 0 0-.924.927V15h6.38v-.397a.93.93 0 0 0-.924-.927z"></path></g></g><defs></defs></g><defs>
<clipPath id="341f198d-f091-4116-b062-baa442a42128"><path d="M0 0h18.119v22H0z" transform="translate(2)" class="msportalfx-svg-c01"></path></clipPath>
<clipPath id="341f198d-f091-4116-b062-baa442a42129"><path d="M0 0h11v11H0z" transform="translate(6 4)" class="msportalfx-svg-c01"></path></clipPath>
<linearGradient id="341f198d-f091-4116-b062-baa442a4212a" x1="11.058" x2="11.058" y1=".421" y2="20.706" gradientUnits="userSpaceOnUse"><stop stop-color="#AD8AF2"></stop><stop offset=".161" stop-color="#9569ED"></stop><stop offset=".385" stop-color="#814CEA"></stop><stop offset=".661" stop-color="#6B2BE8"></stop><stop offset="1" stop-color="#7138E3"></stop></linearGradient>
</defs>
</svg>