<svg viewBox="0 0 21 22" class="" role="presentation" focusable="false" xmlns="http://www.w3.org/2000/svg" xmlns:xlink="http://www.w3.org/1999/xlink" id="FxSymbol0-033" data-type="1"><g><title></title><g clip-path="url(#598cc922-7784-44cb-b91c-f2ad55f64046)"><path d="M10.45 18.6c4.248 0 7.691-3.492 7.691-7.8S14.698 3 10.451 3s-7.69 3.492-7.69 7.8 3.443 7.8 7.69 7.8Z" class="msportalfx-svg-c01" fill="#ffffff"></path><path d="M10.45 19.5c-4.732 0-8.577-3.9-8.577-8.7 0-4.8 3.845-8.7 8.578-8.7 4.732 0 8.577 3.9 8.577 8.7 0 4.8-3.845 8.7-8.577 8.7Zm0-15.5c-3.746 0-6.802 3.1-6.802 6.9 0 3.8 3.056 6.9 6.803 6.9 3.746 0 6.802-3.1 6.802-6.9v-.1c0-3.8-3.056-6.9-6.803-6.8Z" fill="url(#598cc922-7784-44cb-b91c-f2ad55f64045)"></path><path d="M10.155.5h.296c.394 0 .69.3.69.7v4c0 .4-.296.7-.69.7h-.296c-.394 0-.69-.3-.69-.7v-4c0-.4.296-.7.69-.7Zm0 15.6h.296c.394 0 .69.3.69.7v4c0 .4-.296.7-.69.7h-.296c-.394 0-.69-.3-.69-.7v-4c0-.4.296-.7.69-.7ZM21 10.8v.3c0 .4-.296.7-.69.7h-3.944c-.394 0-.69-.3-.69-.7v-.3c0-.4.296-.7.69-.7h3.944c.394 0 .69.3.69.7Zm-15.775 0v.3c0 .4-.295.7-.69.7H.592c-.296.1-.592-.3-.592-.7v-.3c0-.4.296-.7.69-.7h3.944c.394 0 .591.3.591.7Z" fill="#EEAA45"></path><path d="M14.69 8.5v5l-4.141 2.4V11l4.14-2.5Z" fill="#32BEDD"></path><path d="M14.69 8.5 10.549 11l-4.24-2.5L10.55 6l4.14 2.5Z" fill="#9CEBFF"></path><path d="M10.549 11v4.9l-4.24-2.4v-5l4.24 2.5Z" fill="#50E6FF"></path><path d="m6.31 13.5 4.239-2.5v4.9l-4.24-2.4Z" fill="#9CEBFF"></path><path d="M14.69 13.5 10.549 11v4.9l4.14-2.4Z" fill="#50E6FF"></path></g><defs></defs></g><defs>
<linearGradient id="598cc922-7784-44cb-b91c-f2ad55f64045" x1="1.903" y1="10.785" x2="19.054" y2="10.785" gradientUnits="userSpaceOnUse"><stop stop-color="#005BA1"></stop><stop offset=".07" stop-color="#0060A9"></stop><stop offset=".36" stop-color="#0071C8"></stop><stop offset=".52" stop-color="#0078D4"></stop><stop offset=".64" stop-color="#0074CD"></stop><stop offset=".82" stop-color="#006ABB"></stop><stop offset="1" stop-color="#005BA1"></stop></linearGradient>
<clipPath id="598cc922-7784-44cb-b91c-f2ad55f64046"><path transform="translate(0 .5)" d="M0 0h21v21H0z" class="msportalfx-svg-c01"></path></clipPath>
</defs>
</svg>