<svg viewBox="0 0 18 18" class="" role="presentation" focusable="false" xmlns="http://www.w3.org/2000/svg" xmlns:xlink="http://www.w3.org/1999/xlink" id="FxSymbol0-037" data-type="1"><g><title></title><path fill="#821010" d="M14.44 1.06H.61a.58.58 0 0 0-.61.59v7.11a.58.58 0 0 0 .59.58h7.66v-2.8a.49.49 0 0 1 .34-.47h.13a4.89 4.89 0 0 0 3.19-1.16 2.32 2.32 0 0 1 .69-.25 4 4 0 0 1 .84-.12 3.92 3.92 0 0 1 .84.08c.26.049.51.14.74.27V1.65a.581.581 0 0 0-.58-.59zM10.22 6.7v1.84h4.06V6.7h-4.06z"></path><path fill="#E62323" d="M4.92 1.88H.85v1.8h4.07v-1.8z"></path><path fill="#FF7381" d="M9.6 1.88H5.53v1.8H9.6v-1.8z"></path><path fill="#E62323" d="M14.29 1.88h-4.07v1.8h4.07v-1.8zM2.54 4.29H.85v1.8h1.69v-1.8z"></path><path fill="#FF7381" d="M14.28 4.29v.36a3.92 3.92 0 0 0-.84-.11 4 4 0 0 0-.84.08v-.33h1.68zm-7.05 0H3.16v1.8h4.07v-1.8z"></path><path fill="#E62323" d="M11.91 4.29v.61a4.89 4.89 0 0 1-3.19 1.16h-.88V4.29h4.07zM4.92 6.71H.85v1.8h4.07v-1.8z"></path><path fill="#FF7381" d="M8.25 6.7H5.53v1.8h2.72V6.7z"></path><path fill="#DFA500" d="M18 10.54c0 3-3.6 5.38-4.38 5.87a.32.32 0 0 1-.3 0c-.81-.48-4.41-2.87-4.41-5.87V6.97a.29.29 0 0 1 .28-.29c2.8-.07 2.15-1.3 4.25-1.3s1.45 1.23 4.25 1.3a.29.29 0 0 1 .28.29l.03 3.57z"></path><path fill="url(#d88b79f2-3e8e-48bc-b875-0488b62e40b9)" d="M13.44 10.92V5.84c1.93 0 1.33 1.13 3.9 1.2a.26.26 0 0 1 .26.26v3.58l-4.16.04zm0 0H9.3c.25 2.57 3.32 4.61 4 5h.12l.02-5z"></path><path fill="#FFD400" d="M9.54 7.04c2.57-.07 2-1.2 3.9-1.2v5.08H9.3V7.3a.26.26 0 0 1 .24-.26zm8.04 3.88h-4.14V16h.11c.72-.46 3.78-2.46 4.03-5.08z"></path><defs></defs></g><defs>
<linearGradient id="d88b79f2-3e8e-48bc-b875-0488b62e40b9" x1="13.45" x2="13.45" y1="5.84" y2="15.999" gradientUnits="userSpaceOnUse"><stop stop-color="#FFD70F"></stop><stop offset=".12" stop-color="#FC1"></stop><stop offset=".44" stop-color="#FEB517"></stop><stop offset=".75" stop-color="#FEA61A"></stop><stop offset="1" stop-color="#FEA11B"></stop></linearGradient>
</defs>
</svg>