<svg viewBox="0 0 22 22" class="" role="presentation" focusable="false" xmlns="http://www.w3.org/2000/svg" xmlns:xlink="http://www.w3.org/1999/xlink" id="FxSymbol0-035" data-type="1"><g><title></title><g clip-path="url(#d88b79f2-3e8e-48bc-b875-0488b62e40b5)"><path fill="#76BC2D" d="M20.118 10.27c0 5.915-7.196 10.675-8.761 11.646a.57.57 0 0 1-.596 0C9.195 20.949 2 16.189 2 10.27V3.154c0-.149.06-.292.163-.398a.56.56 0 0 1 .392-.168C8.153 2.44 6.864 0 11.06 0c4.195 0 2.906 2.44 8.504 2.588a.56.56 0 0 1 .39.167.572.572 0 0 1 .165.396v7.12z"></path><path fill="url(#d88b79f2-3e8e-48bc-b875-0488b62e40b7)" d="M18.822 10.356c0 5.219-6.167 9.419-7.509 10.275a.477.477 0 0 1-.51 0c-1.343-.852-7.51-5.053-7.51-10.275V4.077c0-.131.05-.258.14-.351a.473.473 0 0 1 .336-.149c4.798-.13 3.693-2.283 7.289-2.283 3.595 0 2.49 2.153 7.289 2.283a.473.473 0 0 1 .334.148c.09.093.14.218.141.349v6.282z"></path><g clip-path="url(#d88b79f2-3e8e-48bc-b875-0488b62e40b6)"><path fill-rule="evenodd" d="M14.139 11.22c-.358.437-.716.876-.968 1.38l-.489.977a.488.488 0 0 1-.436.27h-2.244a.488.488 0 0 1-.437-.27l-.489-.979c-.252-.503-.61-.942-.967-1.38-.123-.15-.246-.3-.364-.454a4.27 4.27 0 1 1 6.758 0c-.119.154-.241.304-.364.455zM8.27 7.101a.5.5 0 0 0 .896.445 3 3 0 0 1 1.338-1.345.5.5 0 0 0-.45-.893A4 4 0 0 0 8.27 7.101z" clip-rule="evenodd" class="msportalfx-svg-c01" fill="#ffffff"></path><path stroke="#fff" stroke-linecap="round" stroke-width=".712" d="M9.344 14.915h3.559m-3.559 1.423h3.559"></path><path fill-rule="evenodd" d="M9.895 17.405a1.423 1.423 0 0 0 2.466 0H9.895z" clip-rule="evenodd" class="msportalfx-svg-c01" fill="#ffffff"></path><path d="M9.895 17.405v-.488h-.847l.424.733.423-.245zm2.466 0l.422.245.424-.733h-.846v.488zm-1.233.224a.935.935 0 0 1-.811-.468l-.845.489c.33.57.947.955 1.656.955v-.976zm.81-.468a.935.935 0 0 1-.81.468v.976a1.91 1.91 0 0 0 1.655-.955l-.845-.49zm.423-.244H9.895v.976h2.466v-.976z" mask="url(#d88b79f2-3e8e-48bc-b875-0488b62e40b4)" class="msportalfx-svg-c01" fill="#ffffff"></path></g></g><defs></defs></g><defs>
<mask id="d88b79f2-3e8e-48bc-b875-0488b62e40b4" class="msportalfx-svg-c01"><path fill-rule="evenodd" d="M9.895 17.405a1.423 1.423 0 0 0 2.466 0H9.895z" clip-rule="evenodd"></path></mask>
<clipPath id="d88b79f2-3e8e-48bc-b875-0488b62e40b5"><path d="M0 0h18.119v22H0z" transform="translate(2)" class="msportalfx-svg-c01"></path></clipPath>
<clipPath id="d88b79f2-3e8e-48bc-b875-0488b62e40b6"><path d="M0 0h9.059v14.235H0z" transform="translate(6.854 3.882)" class="msportalfx-svg-c01"></path></clipPath>
<linearGradient id="d88b79f2-3e8e-48bc-b875-0488b62e40b7" x1="11.058" x2="11.058" y1="20.706" y2="1.294" gradientUnits="userSpaceOnUse"><stop stop-color="#5E9624"></stop><stop offset=".321" stop-color="#639D26"></stop><stop offset=".794" stop-color="#6FB12A"></stop><stop offset=".999" stop-color="#76BC2D"></stop></linearGradient>
</defs>
</svg>