<svg viewBox="0 0 18 18" class="" role="presentation" focusable="false" xmlns="http://www.w3.org/2000/svg" xmlns:xlink="http://www.w3.org/1999/xlink" id="FxSymbol0-038" data-type="1"><g><title></title><path d="M16.285 8.466c0 4.573-5.63 8.258-6.853 9.004a.45.45 0 0 1-.462 0c-1.222-.746-6.852-4.431-6.852-9.004V2.967a.43.43 0 0 1 .126-.304.447.447 0 0 1 .307-.13C6.93 2.418 5.919.528 9.2.528c3.282 0 2.272 1.89 6.65 2.003a.45.45 0 0 1 .307.131.43.43 0 0 1 .127.304v5.499Z" fill="#0078D4"></path><path d="M15.698 8.513c0 4.195-5.16 7.559-6.285 8.258a.42.42 0 0 1-.424 0c-1.126-.68-6.284-4.063-6.284-8.258V3.468a.39.39 0 0 1 .115-.277.408.408 0 0 1 .28-.12c4.012-.104 3.088-1.833 6.1-1.833 3.013 0 2.089 1.73 6.102 1.833a.408.408 0 0 1 .28.12.393.393 0 0 1 .115.277v5.045Z" fill="url(#d88b79f2-3e8e-48bc-b875-0488b62e40bc)"></path><g clip-path="url(#d88b79f2-3e8e-48bc-b875-0488b62e40ba)"><g clip-path="url(#d88b79f2-3e8e-48bc-b875-0488b62e40bb)" class="msportalfx-svg-c01" fill="#ffffff"><path d="M5.375 8.346v-.38c0-.833.714-1.515 1.588-1.515H8.55v1.516l1.986-2.084L8.55 3.799v1.516H6.963c-1.549 0-2.78 1.174-2.78 2.652v.379c0 1.477 1.231 2.652 2.78 2.652h.397V9.861h-.397c-.874 0-1.588-.682-1.588-1.515Zm5.955-3.031h-.396V6.45h.397c.873 0 1.588.682 1.588 1.516v.379c0 .833-.715 1.515-1.588 1.515H9.742V8.346L7.757 10.43l1.985 2.084v-1.516h1.589c1.548 0 2.779-1.175 2.779-2.652v-.38c0-1.477-1.23-2.651-2.78-2.651Z"></path></g></g><defs></defs></g><defs>
<clipPath id="d88b79f2-3e8e-48bc-b875-0488b62e40ba"><path transform="translate(4.184 3.176)" d="M0 0h10.588v9.96H0z" class="msportalfx-svg-c01"></path></clipPath>
<clipPath id="d88b79f2-3e8e-48bc-b875-0488b62e40bb"><path transform="translate(4.184 3.799)" d="M0 0h9.926v8.715H0z" class="msportalfx-svg-c01"></path></clipPath>
<linearGradient id="d88b79f2-3e8e-48bc-b875-0488b62e40bc" x1="9.201" y1="1.814" x2="9.201" y2="17.405" gradientUnits="userSpaceOnUse"><stop offset=".18" stop-color="#5EA0EF"></stop><stop offset="1" stop-color="#0078D4"></stop></linearGradient>
</defs>
</svg>