<svg viewBox="0 0 15 18" class="" role="presentation" focusable="false" xmlns="http://www.w3.org/2000/svg" xmlns:xlink="http://www.w3.org/1999/xlink" id="FxSymbol0-036" data-type="1"><g><title></title><path d="M7.455 17.045c1.137-.708 6.375-4.2 6.375-8.533V3.3a.412.412 0 0 0-.402-.412C9.352 2.78 10.293.99 7.24.99S5.127 2.78 1.053 2.888A.412.412 0 0 0 .65 3.3v5.21c0 4.335 5.238 7.826 6.376 8.534a.412.412 0 0 0 .43 0Z" fill="#065B99"></path><path d="M13.098 8.405c0 3.853-4.651 6.943-5.667 7.585a.372.372 0 0 1-.382 0c-1.015-.625-5.666-3.732-5.666-7.585V3.771a.364.364 0 0 1 .355-.365c3.62-.095 2.786-1.683 5.502-1.683 2.717 0 1.884 1.588 5.502 1.683a.365.365 0 0 1 .356.365v4.634Z" fill="url(#d88b79f2-3e8e-48bc-b875-0488b62e40b8)"></path><path d="M7.248 6.932c-1.29 0-2.346-.391-2.346-.845v4.492c0 .462 1.029.84 2.3.845h.034c1.287 0 2.346-.391 2.346-.845V6.087c-.004.465-1.048.845-2.334.845Z" class="msportalfx-svg-c01" fill="#ffffff"></path><path d="M9.02 6.032c0 .297-.783.536-1.788.536-1.004 0-1.774-.254-1.774-.536 0-.281.801-.55 1.79-.55.99 0 1.771.238 1.771.55Z" class="msportalfx-svg-c01" fill="#ffffff"></path><defs></defs></g><defs>
<linearGradient id="d88b79f2-3e8e-48bc-b875-0488b62e40b8" x1="10.811" y1="3.024" x2="10.617" y2="15.531" gradientUnits="userSpaceOnUse"><stop stop-color="#0079D5"></stop><stop offset=".349" stop-color="#186EB1"></stop><stop offset=".688" stop-color="#005CA2"></stop><stop offset="1" stop-color="#065A98"></stop></linearGradient>
</defs>
</svg>