<svg xmlns:xlink="http://www.w3.org/1999/xlink" xmlns="http://www.w3.org/2000/svg" viewBox="0 0 100.46 22.68" width="256"  height="57.79494326099941" ><path d="M41.7,5V17.67H39.5V7.74h0l-3.93,9.93H34.08l-4-9.93h0v9.93H28V5h3.15l3.64,9.39h.05L38.68,5Zm1.84,1a1.17,1.17,0,0,1,.39-.89,1.31,1.31,0,0,1,.91-.35,1.3,1.3,0,0,1,.94.36,1.19,1.19,0,0,1,.37.88,1.17,1.17,0,0,1-.38.88,1.33,1.33,0,0,1-.93.35,1.28,1.28,0,0,1-.92-.36A1.17,1.17,0,0,1,43.54,6ZM45.9,8.59v9.08H43.76V8.59Zm6.49,7.52a3,3,0,0,0,1-.22,4.75,4.75,0,0,0,1.06-.58v2a4.19,4.19,0,0,1-1.17.45,6.25,6.25,0,0,1-1.42.15,4.33,4.33,0,0,1-4.52-4.51,5.17,5.17,0,0,1,1.29-3.61,4.64,4.64,0,0,1,3.63-1.41,5.07,5.07,0,0,1,1.21.15,3.9,3.9,0,0,1,1,.36v2.05a4.27,4.27,0,0,0-1-.56,2.72,2.72,0,0,0-1-.2,2.67,2.67,0,0,0-2,.82,3.1,3.1,0,0,0-.78,2.22,2.94,2.94,0,0,0,.75,2.14A2.71,2.71,0,0,0,52.39,16.11Zm8.19-7.67a3.13,3.13,0,0,1,.46,0,1.48,1.48,0,0,1,.35.09v2.16a2.05,2.05,0,0,0-.49-.23,2.6,2.6,0,0,0-.79-.11,1.68,1.68,0,0,0-1.33.66,3.19,3.19,0,0,0-.54,2v4.59H56.1V8.59h2.14V10h0a2.5,2.5,0,0,1,.88-1.17A2.45,2.45,0,0,1,60.58,8.44Zm.92,4.82a5,5,0,0,1,1.27-3.57,4.69,4.69,0,0,1,3.54-1.32,4.36,4.36,0,0,1,3.32,1.27,4.79,4.79,0,0,1,1.2,3.42,4.85,4.85,0,0,1-1.27,3.52,4.64,4.64,0,0,1-3.47,1.31,4.57,4.57,0,0,1-3.35-1.24A4.62,4.62,0,0,1,61.5,13.26Zm2.23-.07a3.23,3.23,0,0,0,.64,2.17,2.31,2.31,0,0,0,1.85.75A2.13,2.13,0,0,0,68,15.36a3.45,3.45,0,0,0,.61-2.23A3.37,3.37,0,0,0,68,10.92a2.18,2.18,0,0,0-1.77-.74,2.23,2.23,0,0,0-1.82.78A3.35,3.35,0,0,0,63.73,13.19ZM74,11a.92.92,0,0,0,.29.72,5.1,5.1,0,0,0,1.29.66,4.4,4.4,0,0,1,1.8,1.15,2.41,2.41,0,0,1,.51,1.55,2.49,2.49,0,0,1-1,2.06,4.19,4.19,0,0,1-2.66.78A6.46,6.46,0,0,1,73,17.75a5.63,5.63,0,0,1-1.17-.35V15.3a5.34,5.34,0,0,0,1.26.64,3.65,3.65,0,0,0,1.22.24,2.25,2.25,0,0,0,1.07-.2.72.72,0,0,0,.34-.68,1,1,0,0,0-.36-.75,5.32,5.32,0,0,0-1.35-.7,4.21,4.21,0,0,1-1.68-1.11,2.47,2.47,0,0,1-.5-1.58,2.48,2.48,0,0,1,1-2,3.87,3.87,0,0,1,2.53-.79,6.09,6.09,0,0,1,1.07.1,4.36,4.36,0,0,1,1,.28v2a4.57,4.57,0,0,0-1-.49,3.44,3.44,0,0,0-1.12-.2,1.63,1.63,0,0,0-1,.24A.74.74,0,0,0,74,11Zm4.81,2.29a5,5,0,0,1,1.27-3.57,4.69,4.69,0,0,1,3.54-1.32A4.35,4.35,0,0,1,87,9.64a4.79,4.79,0,0,1,1.2,3.42,4.81,4.81,0,0,1-1.27,3.52,5.2,5.2,0,0,1-6.82.07A4.62,4.62,0,0,1,78.82,13.26Zm2.23-.07a3.23,3.23,0,0,0,.64,2.17,2.31,2.31,0,0,0,1.85.75,2.13,2.13,0,0,0,1.77-.75,3.45,3.45,0,0,0,.61-2.23,3.37,3.37,0,0,0-.63-2.21,2.18,2.18,0,0,0-1.77-.74A2.23,2.23,0,0,0,81.7,11,3.35,3.35,0,0,0,81.05,13.19Zm14.19-2.86H92.06v7.34H89.89V10.33H88.37V8.59h1.52V7.32A3.11,3.11,0,0,1,90.83,5a3.25,3.25,0,0,1,2.38-.92,6.77,6.77,0,0,1,.69,0,3.22,3.22,0,0,1,.53.12V6.07a2.24,2.24,0,0,0-.37-.15,1.87,1.87,0,0,0-.61-.09,1.29,1.29,0,0,0-1,.42,1.85,1.85,0,0,0-.36,1.24v1.1h3.18v-2l2.15-.65v2.7h2.16v1.74H97.39v4.25a1.83,1.83,0,0,0,.3,1.19,1.24,1.24,0,0,0,1,.34A1.48,1.48,0,0,0,99.1,16a2.35,2.35,0,0,0,.45-.21v1.77a3,3,0,0,1-.67.21,5.09,5.09,0,0,1-.94.1,2.63,2.63,0,0,1-2-.72A3.08,3.08,0,0,1,95.24,15Z" fill="#737373"></path><rect x="0.55" y="0.78" width="10.03" height="10.03" fill="#F25022"></rect><rect x="11.63" y="0.78" width="10.03" height="10.03" fill="#7FBA00"></rect><rect x="0.55" y="11.85" width="10.03" height="10.03" fill="#00A4EF"></rect><rect x="11.63" y="11.85" width="10.03" height="10.03" fill="#FFB900"></rect></svg>