<svg width="28" height="28" viewBox="0 0 28 28" fill="none" xmlns="http://www.w3.org/2000/svg">
<path d="M19.9933 3.95647C19.6515 2.79642 18.5865 2 17.3772 2L16.5756 2C15.2537 2 14.122 2.94807 13.8905 4.24959L12.5449 11.8138L12.917 10.5193C13.2529 9.35052 14.322 8.54538 15.5381 8.54538H20.118L22.0645 9.51939L23.9408 8.54538H23.3849C22.1756 8.54538 21.1106 7.74896 20.7689 6.58891L19.9933 3.95647Z" fill="url(#paint0_radial_56201_15513)"/>
<path d="M8.28723 24.0321C8.62527 25.1977 9.69289 25.9997 10.9065 25.9997H12.599C14.0861 25.9997 15.2991 24.8084 15.3258 23.3215L15.4545 16.1681L15.0824 17.4746C14.7486 18.6465 13.6779 19.4548 12.4594 19.4548H7.83893L6.17053 18.3339L4.36426 19.4548H4.91111C6.12476 19.4548 7.19239 20.2568 7.53043 21.4225L8.28723 24.0321Z" fill="url(#paint1_radial_56201_15513)"/>
<path d="M17.2508 2H7.7723C5.06417 2 3.43928 5.65978 2.35603 9.31957C1.07266 13.6555 -0.606661 19.4543 4.25172 19.4543H8.33856C9.56359 19.4543 10.6376 18.6404 10.9673 17.4606C11.6772 14.9211 12.9314 10.4547 13.9155 7.05845C14.4132 5.34057 14.8279 3.86521 15.4642 2.94645C15.821 2.43135 16.4156 2 17.2508 2Z" fill="url(#paint2_linear_56201_15513)"/>
<path d="M17.2508 2H7.7723C5.06417 2 3.43928 5.65978 2.35603 9.31957C1.07266 13.6555 -0.606661 19.4543 4.25172 19.4543H8.33856C9.56359 19.4543 10.6376 18.6404 10.9673 17.4606C11.6772 14.9211 12.9314 10.4547 13.9155 7.05845C14.4132 5.34057 14.8279 3.86521 15.4642 2.94645C15.821 2.43135 16.4156 2 17.2508 2Z" fill="url(#paint3_linear_56201_15513)"/>
<path d="M10.749 26.003H20.2275C22.9356 26.003 24.5605 22.3425 25.6437 18.6821C26.9271 14.3453 28.6064 8.54538 23.7481 8.54538H19.6613C18.4362 8.54538 17.3622 9.35935 17.0325 10.5392C16.3226 13.0792 15.0685 17.5466 14.0843 20.9436C13.5865 22.6618 13.1719 24.1374 12.5356 25.0564C12.1788 25.5716 11.5842 26.003 10.749 26.003Z" fill="url(#paint4_radial_56201_15513)"/>
<path d="M10.749 26.003H20.2275C22.9356 26.003 24.5605 22.3425 25.6437 18.6821C26.9271 14.3453 28.6064 8.54538 23.7481 8.54538H19.6613C18.4362 8.54538 17.3622 9.35935 17.0325 10.5392C16.3226 13.0792 15.0685 17.5466 14.0843 20.9436C13.5865 22.6618 13.1719 24.1374 12.5356 25.0564C12.1788 25.5716 11.5842 26.003 10.749 26.003Z" fill="url(#paint5_linear_56201_15513)"/>
<defs>
<radialGradient id="paint0_radial_56201_15513" cx="0" cy="0" r="1" gradientUnits="userSpaceOnUse" gradientTransform="translate(22.2814 11.878) rotate(-128.882) scale(10.2881 9.64442)">
<stop offset="0.0955758" stop-color="#00AEFF"/>
<stop offset="0.773185" stop-color="#2253CE"/>
<stop offset="1" stop-color="#0736C4"/>
</radialGradient>
<radialGradient id="paint1_radial_56201_15513" cx="0" cy="0" r="1" gradientUnits="userSpaceOnUse" gradientTransform="translate(6.37626 19.4054) rotate(51.971) scale(9.41278 9.12039)">
<stop stop-color="#FFB657"/>
<stop offset="0.633728" stop-color="#FF5F3D"/>
<stop offset="0.923392" stop-color="#C02B3C"/>
</radialGradient>
<linearGradient id="paint2_linear_56201_15513" x1="7.20499" y1="4.11493" x2="8.6185" y2="20.1075" gradientUnits="userSpaceOnUse">
<stop offset="0.156162" stop-color="#0D91E1"/>
<stop offset="0.487484" stop-color="#52B471"/>
<stop offset="0.652394" stop-color="#98BD42"/>
<stop offset="0.937361" stop-color="#FFC800"/>
</linearGradient>
<linearGradient id="paint3_linear_56201_15513" x1="8.3869" y1="2" x2="9.15896" y2="19.4529" gradientUnits="userSpaceOnUse">
<stop stop-color="#3DCBFF"/>
<stop offset="0.246674" stop-color="#0588F7" stop-opacity="0"/>
</linearGradient>
<radialGradient id="paint4_radial_56201_15513" cx="0" cy="0" r="1" gradientUnits="userSpaceOnUse" gradientTransform="translate(24.235 6.83615) rotate(108.88) scale(23.1413 27.2407)">
<stop offset="0.0661714" stop-color="#8C48FF"/>
<stop offset="0.5" stop-color="#F2598A"/>
<stop offset="0.895833" stop-color="#FFB152"/>
</radialGradient>
<linearGradient id="paint5_linear_56201_15513" x1="24.9838" y1="7.47955" x2="24.9737" y2="12.2344" gradientUnits="userSpaceOnUse">
<stop offset="0.0581535" stop-color="#F8ADFA"/>
<stop offset="0.708063" stop-color="#A86EDD" stop-opacity="0"/>
</linearGradient>
</defs>
</svg>
