<svg xmlns:xlink="http://www.w3.org/1999/xlink" width="196" height="196" viewBox="0 0 100 100" fill="none" xmlns="http://www.w3.org/2000/svg">
<path d="M19.4062 28C16.0292 28 13.3333 30.8298 13.3333 34.3021V65.6979C13.3333 69.1702 16.0292 72 19.4062 72H80.5937C83.967 72 86.6666 69.1666 86.6666 65.6979V34.3021C86.6666 30.8298 83.9707 28 80.5937 28H19.4062ZM68.9062 38.6562C74.1862 38.6562 75.2412 42.2771 75.2082 44.8438C75.1239 51.1687 68.1041 57.4479 68.1041 57.4479H75.6666V61H62.4895V58.0208C62.4895 58.0208 70.5525 50.0724 70.7395 45.3021C70.8092 43.5347 70.8302 42.311 68.7916 42.2083C66.1919 42.0763 66.4999 45.3543 66.4999 45.875H62.1457C62.1457 44.8777 61.7745 38.6562 68.9062 38.6562ZM24.4478 38.8854H30.2916C31.5786 38.8854 38.8853 38.6416 38.8853 48.2812V51.7188C38.8853 61.0247 31.6006 61 30.2916 61H24.4478V38.8854ZM43.6978 38.8854H50.5728C51.6875 38.8854 57.7393 38.912 57.677 44.9583C57.6403 48.6213 55.4183 49.4473 54.927 49.6562C55.4953 49.8212 58.0207 50.5784 58.0207 54.4688C58.0207 60.1227 53.2898 61 51.0312 61H43.6978V38.8854ZM28.9166 42.6667V57.3333C28.9166 57.3333 34.1782 57.3251 34.4166 51.7188V48.2812C34.4166 41.9526 28.9166 42.6667 28.9166 42.6667ZM48.1666 42.6667V48.1667H50.5728C51.4712 48.1667 53.2082 47.5617 53.2082 45.4167C53.2082 42.8683 51.4895 42.6667 50.5728 42.6667H48.1666ZM48.1666 51.375V57.3333H51.0312C51.4748 57.3333 53.552 56.8997 53.552 54.4688C53.5483 52.2577 52.0963 51.375 51.2603 51.375H48.1666Z" fill="black"/>
</svg>
