<svg viewBox="0 0 18 18" class="" role="presentation" focusable="false" xmlns="http://www.w3.org/2000/svg" xmlns:xlink="http://www.w3.org/1999/xlink" id="FxSymbol0-109" data-type="1"><g><title>Icon-other-354</title><path fill="#32bedd" d="M15.77 4.76v8.47l-7.32 4.26V9l7.32-4.24z"></path><path fill="#9cebff" d="M15.77 4.76 8.45 9.01 1.12 4.75 8.45.5l7.32 4.26z"></path><path fill="#50e6ff" d="M8.45 9.01v8.48l-7.33-4.26V4.75l7.33 4.26z"></path><path fill="#9cebff" d="M1.12 13.23 8.45 9v8.49l-7.33-4.26z"></path><path fill="#50e6ff" d="M15.77 13.23 8.45 9v8.49l7.32-4.26z"></path><rect x="9.49" y="10.12" width="7.39" height="7.39" rx="3.69" fill="url(#66a841fc-14a0-48ce-9613-f8954c1d148e)"></rect><path d="m10.8 13.35 2.2-2.2a.27.27 0 0 1 .37 0l2.2 2.2a.12.12 0 0 1-.08.2h-1.36a.11.11 0 0 0-.11.11v2.75a.11.11 0 0 1-.1.1h-1.47a.1.1 0 0 1-.1-.1v-2.75a.11.11 0 0 0-.12-.11h-1.35a.12.12 0 0 1-.08-.2Z" class="msportalfx-svg-c01" fill="#ffffff"></path></g><defs>
<linearGradient id="66a841fc-14a0-48ce-9613-f8954c1d148e" x1="13.18" y1="10.12" x2="13.18" y2="17.5" gradientUnits="userSpaceOnUse"><stop offset="0" stop-color="#b77af4"></stop><stop offset=".24" stop-color="#b376f2"></stop><stop offset=".5" stop-color="#a669ee"></stop><stop offset=".75" stop-color="#9255e6"></stop><stop offset="1" stop-color="#773adc"></stop></linearGradient>
</defs>
</svg>