<svg viewBox="0 0 18 18" class="" role="presentation" focusable="false" xmlns="http://www.w3.org/2000/svg" xmlns:xlink="http://www.w3.org/1999/xlink" id="FxSymbol0-105" data-type="1"><g><circle cx="7.18" cy="7.607" r="7.03" fill="url(#66a841fc-14a0-48ce-9613-f8954c1d12e1)"></circle><circle cx="7.208" cy="7.607" r="6.121" class="msportalfx-svg-c01" fill="#ffffff"></circle><path d="M7.038 11.73h.338v1.05h-.338zm-3.7-7.75.24-.24.742.742-.24.24zm.052 7.2.742-.742.24.24-.742.742zM1.945 7.43h1.05v.338h-1.05zm7.8 2.054L7.957 7.706a.43.43 0 0 0-.291-.123.411.411 0 0 0 .054-.2V2.858a.431.431 0 0 0-.43-.43h-.082a.431.431 0 0 0-.431.43v4.53a.431.431 0 0 0 .431.43h.048a.427.427 0 0 0 .035.555l1.78 1.777a.432.432 0 0 0 .608 0l.058-.058a.432.432 0 0 0 0-.608z" class="msportalfx-svg-c04" fill="#7a7a7a"></path><circle cx="7.212" cy="7.596" r=".996" fill="url(#66a841fc-14a0-48ce-9613-f8954c1d12e2)"></circle><path d="m8.855 16.582 5.535-6.324a2.9 2.9 0 0 0 2.763-.875 2.691 2.691 0 0 0 .558-2.661l-1.465 1.645-1.567-.29-.52-1.487 1.466-1.62a2.866 2.866 0 0 0-2.643.885 2.647 2.647 0 0 0-.54 2.651l-5.9 6.745a1.309 1.309 0 0 0 1.97 1.724z" fill="#949494"></path></g><defs>
<radialGradient id="66a841fc-14a0-48ce-9613-f8954c1d12e1" cx="5.614" cy="6.147" r="7.443" gradientTransform="matrix(.944 0 0 .944 1.878 1.801)" gradientUnits="userSpaceOnUse"><stop offset=".183" stop-color="#5ea0ef"></stop><stop offset=".555" stop-color="#5c9fee"></stop><stop offset=".689" stop-color="#559ced"></stop><stop offset=".785" stop-color="#4a97e9"></stop><stop offset=".862" stop-color="#3990e4"></stop><stop offset=".928" stop-color="#2387de"></stop><stop offset=".985" stop-color="#087bd6"></stop><stop offset="1" stop-color="#0078d4"></stop></radialGradient>
<radialGradient id="66a841fc-14a0-48ce-9613-f8954c1d12e2" cx="6.45" cy="6.92" r="1.041" gradientTransform="matrix(.943 0 0 .943 1.124 1.09)" gradientUnits="userSpaceOnUse"><stop offset="0" stop-color="#7f7f7f"></stop><stop offset="1" stop-color="#5e5e5e"></stop></radialGradient>
</defs>
</svg>