<svg viewBox="0 0 85 85" class="" role="presentation" focusable="false" xmlns="http://www.w3.org/2000/svg" xmlns:xlink="http://www.w3.org/1999/xlink" id="FxSymbol0-10a" data-type="1"><g><title></title><g clip-path="url(#66a841fc-14a0-48ce-9613-f8954c1d1491)"><path d="M45.853 77.936c21.521 0 38.968-17.447 38.968-38.968C84.82 17.446 67.374 0 45.853 0 24.332 0 6.885 17.447 6.885 38.968c0 21.521 17.447 38.968 38.968 38.968Z" fill="url(#66a841fc-14a0-48ce-9613-f8954c1d148f)"></path><path d="M46.004 72.897c18.739 0 33.93-15.19 33.93-33.93 0-18.738-15.191-33.928-33.93-33.928-18.738 0-33.929 15.19-33.929 33.929 0 18.738 15.19 33.929 33.93 33.929Z" class="msportalfx-svg-c01" fill="#ffffff"></path><path d="m65.877 17.724-4.11 4.11 1.326 1.326 4.11-4.11-1.326-1.326Zm8.928 20.266h-5.813v1.875h5.813V37.99ZM62.823 54.428l-1.325 1.325 4.11 4.11 1.326-1.325-4.11-4.11Zm-15.883 7.4h-1.875v5.813h1.874v-5.813Zm-21.006-44.29-1.325 1.325 4.11 4.11 1.326-1.325-4.11-4.11Zm3.068 37.06-4.11 4.11 1.325 1.326 4.11-4.11-1.325-1.326ZM22.648 37.99h-5.813v1.875h5.813V37.99Zm23.814-27.733h-.458a2.385 2.385 0 0 0-2.384 2.385v25.103a2.385 2.385 0 0 0 2.384 2.385h.458a2.385 2.385 0 0 0 2.385-2.385V12.642a2.385 2.385 0 0 0-2.385-2.385Z" class="msportalfx-svg-c04" fill="#7a7a7a"></path><path d="m59.687 53.062.323-.324a2.38 2.38 0 0 0 0-3.366l-9.86-9.86a2.38 2.38 0 0 0-3.366 0l-.324.323a2.38 2.38 0 0 0 0 3.366l9.86 9.86c.93.93 2.437.93 3.367 0Z" class="msportalfx-svg-c04" fill="#7a7a7a"></path><path d="M46.028 44.422a5.52 5.52 0 1 0 0-11.04 5.52 5.52 0 0 0 0 11.04Z" fill="url(#66a841fc-14a0-48ce-9613-f8954c1d1490)"></path><path d="M38.146.69A39.166 39.166 0 0 0 25.5 72.5l1.294-3.428a.76.76 0 0 1 1.299-.217L38.25 81.18a.76.76 0 0 1-.472 1.237L21.992 85a.766.766 0 0 1-.836-1.02l1.889-5.072A45.895 45.895 0 0 1 1.762 51.722 39.96 39.96 0 0 1 38.146.69Z" fill="#86D633"></path></g><defs></defs></g><defs>
<radialGradient id="66a841fc-14a0-48ce-9613-f8954c1d148f" cx="0" cy="0" r="1" gradientUnits="userSpaceOnUse" gradientTransform="translate(45.815 38.933) scale(38.9476)"><stop offset=".183" stop-color="#5EA0EF"></stop><stop offset=".555" stop-color="#5C9FEE"></stop><stop offset=".689" stop-color="#559CED"></stop><stop offset=".785" stop-color="#4A97E9"></stop><stop offset=".862" stop-color="#3990E4"></stop><stop offset=".928" stop-color="#2387DE"></stop><stop offset=".985" stop-color="#087BD6"></stop><stop offset="1" stop-color="#0078D4"></stop></radialGradient>
<radialGradient id="66a841fc-14a0-48ce-9613-f8954c1d1490" cx="0" cy="0" r="1" gradientUnits="userSpaceOnUse" gradientTransform="translate(46.008 39.023) scale(5.44609)"><stop stop-color="#7F7F7F"></stop><stop offset="1" stop-color="#5E5E5E"></stop></radialGradient>
<clipPath id="66a841fc-14a0-48ce-9613-f8954c1d1491"><path d="M0 0h85v85H0z" class="msportalfx-svg-c01"></path></clipPath>
</defs>
</svg>