<svg data-slug-id="visual-studio-code" viewBox="0 0 72 72" xmlns="http://www.w3.org/2000/svg">
<path d="M51.0564 71.5085C52.1904 71.9503 53.4836 71.9219 54.6283 71.3712L69.4519 64.2385C71.0094 63.4889 72 61.9122 72 60.1828V11.8177C72 10.0883 71.0094 8.51182 69.4519 7.76229L54.6283 0.629225C53.1262 -0.0935709 51.3681 0.0834692 50.0498 1.04192C49.8614 1.17884 49.682 1.33171 49.5138 1.50018L21.1357 27.39L8.77477 18.0071C7.6241 17.1336 6.01462 17.2052 4.94592 18.1773L0.981382 21.7836C-0.325837 22.9728 -0.327336 25.0293 0.978145 26.2203L11.6979 36.0001L0.978145 45.78C-0.327336 46.9711 -0.325837 49.0276 0.981382 50.2167L4.94592 53.8229C6.01462 54.7952 7.6241 54.8667 8.77477 53.9934L21.1357 44.6103L49.5138 70.5002C49.9627 70.9494 50.4897 71.2877 51.0564 71.5085ZM54.011 19.6554L32.4785 36.0001L54.011 52.345V19.6554Z" fill="white"/>
<path d="M69.4519 7.77378L54.6168 0.630895C52.8997 -0.195891 50.8475 0.152866 49.4997 1.5005L0.934793 45.7804C-0.371481 46.9715 -0.369979 49.028 0.938033 50.2171L4.90497 53.8233C5.97434 54.7956 7.5848 54.867 8.73616 53.9938L67.2196 9.62682C69.1816 8.13839 71.9997 9.53778 71.9997 12.0005V11.8283C71.9997 10.0996 71.0094 8.5237 69.4519 7.77378Z" fill="#0065A9"/>
<path d="M69.4519 64.2269L54.6168 71.3698C52.8997 72.1964 50.8475 71.8476 49.4997 70.5001L0.934793 26.2202C-0.371481 25.0292 -0.369979 22.9726 0.938033 21.7835L4.90497 18.1772C5.97434 17.205 7.5848 17.1334 8.73616 18.0069L67.2196 62.3737C69.1816 63.8621 71.9997 62.4629 71.9997 59.9999V60.1724C71.9997 61.9009 71.0094 63.4768 69.4519 64.2269Z" fill="#007ACC"/>
<path d="M54.6176 71.3708C52.9 72.1968 50.8477 71.8478 49.5 70.5001C51.1605 72.1606 54 70.9844 54 68.6359V3.36389C54 1.01544 51.1605 -0.160671 49.5 1.49994C50.8477 0.152175 52.9 -0.197074 54.6176 0.628982L69.4502 7.76205C71.0089 8.51158 72 10.088 72 11.8175V60.1827C72 61.9121 71.0089 63.4885 69.4502 64.238L54.6176 71.3708Z" fill="#1F9CF0"/>
</svg>
