<svg viewBox="0 0 18 18" class="" role="presentation" focusable="false" xmlns="http://www.w3.org/2000/svg" xmlns:xlink="http://www.w3.org/1999/xlink" id="FxSymbol0-0a7" data-type="1"><g><path d="M10.023.134H2.362a.605.605 0 0 0-.605.606v16.52a.605.605 0 0 0 .605.606h13.276a.605.605 0 0 0 .6-.606V6.327a.605.605 0 0 0-.6-.606h-4.406a.605.605 0 0 1-.6-.605V.74a.6.6 0 0 0-.609-.606Z" fill="#5ea0ef"></path><path d="M9.743.908v4.149a1.524 1.524 0 0 0 1.52 1.523h4.18v10.512H2.557V.908h7.186M10.036 0H2.264a.614.614 0 0 0-.614.615v16.77a.614.614 0 0 0 .614.615h13.472a.614.614 0 0 0 .614-.615V6.286a.614.614 0 0 0-.614-.614h-4.473a.614.614 0 0 1-.613-.615V.615A.614.614 0 0 0 10.036 0Z" fill="url(#bab75dcc-20a5-4ed7-b6cf-740b4f51e39b)"></path><path d="M16.116 5.794 10.438.134v4.612a1.041 1.041 0 0 0 1.035 1.048Z" fill="#0078d4"></path><g class="msportalfx-svg-c01" fill="#ffffff"><path d="m7.064 13-.278.279a.126.126 0 0 1-.178 0l-2.057-2.051a.252.252 0 0 1 0-.356l.278-.278 2.235 2.228a.126.126 0 0 1 0 .178Z" opacity=".6"></path><path d="m6.744 8.844.279.278a.125.125 0 0 1 0 .177l-2.2 2.2-.279-.277a.252.252 0 0 1 0-.356l2.022-2.022a.126.126 0 0 1 .178 0Z"></path><path d="m13.172 10.59.278.279a.25.25 0 0 1 0 .355l-2.057 2.051a.125.125 0 0 1-.177 0L10.937 13a.125.125 0 0 1 0-.177l2.235-2.229Z" opacity=".6"></path><path d="m13.449 11.221-.279.278-2.2-2.2a.125.125 0 0 1 0-.178l.281-.281a.126.126 0 0 1 .178 0l2.018 2.025a.251.251 0 0 1 0 .355ZM9.755 8.306h.457a.13.13 0 0 1 .123.171L8.6 13.678a.131.131 0 0 1-.124.089h-.455A.13.13 0 0 1 7.9 13.6l1.731-5.2a.131.131 0 0 1 .124-.094Z"></path></g></g><defs>
<linearGradient id="bab75dcc-20a5-4ed7-b6cf-740b4f51e39b" x1="9" y1="19.411" x2="9" y2="-10.726" gradientUnits="userSpaceOnUse"><stop offset=".034" stop-color="#0078d4"></stop><stop offset=".055" stop-color="#0379d5"></stop><stop offset=".341" stop-color="#2a8ae0"></stop><stop offset=".603" stop-color="#4796e8"></stop><stop offset=".831" stop-color="#589ded"></stop><stop offset="1" stop-color="#5ea0ef"></stop></linearGradient>
</defs>
</svg>