<svg viewBox="0 0 18 18" class="" role="presentation" focusable="false" xmlns="http://www.w3.org/2000/svg" xmlns:xlink="http://www.w3.org/1999/xlink" id="FxSymbol0-081" data-type="1"><g><path d="M5.991 1.581h1.264v3.532a.28.28 0 0 1-.28.28H5.711a.28.28 0 0 1-.28-.28V2.141a.559.559 0 0 1 .56-.56Z" fill="#999"></path><path d="M5.991 1.581h1.264v3.532a.28.28 0 0 1-.28.28H5.711a.28.28 0 0 1-.28-.28V2.141a.559.559 0 0 1 .56-.56Z" fill="#999" opacity=".5"></path><path d="M16.175 1.581h1.265a.56.56 0 0 1 .56.56v12.177a.28.28 0 0 1-.28.28h-1.264a.28.28 0 0 1-.281-.28V1.581Z" fill="#999"></path><path d="M16.175 1.581h1.265a.56.56 0 0 1 .56.56v12.177a.28.28 0 0 1-.28.28h-1.264a.28.28 0 0 1-.281-.28V1.581Z" fill="#999" opacity=".5"></path><path d="M18 2.136v1.227H5.431V2.136a.554.554 0 0 1 .555-.555h11.455a.554.554 0 0 1 .559.551Z" fill="#949494"></path><path d="M5.711 12.606h1.265a.28.28 0 0 1 .28.28v3.532H5.991a.559.559 0 0 1-.56-.56v-2.972a.28.28 0 0 1 .28-.28Z" fill="#999"></path><path d="M5.711 12.606h1.265a.28.28 0 0 1 .28.28v3.532H5.991a.559.559 0 0 1-.56-.56v-2.972a.28.28 0 0 1 .28-.28Z" fill="#999" opacity=".5"></path><path d="M16.456 12.606h1.264a.28.28 0 0 1 .28.28v2.973a.56.56 0 0 1-.56.56h-1.265v-3.533a.28.28 0 0 1 .281-.28Z" fill="#999"></path><path d="M16.456 12.606h1.264a.28.28 0 0 1 .28.28v2.973a.56.56 0 0 1-.56.56h-1.265v-3.533a.28.28 0 0 1 .281-.28Z" fill="#999" opacity=".5"></path><path d="M5.431 15.863v-1.227H18v1.227a.555.555 0 0 1-.555.555H5.986a.554.554 0 0 1-.555-.555Z" fill="#949494"></path><path d="m10.949 5.4 3.2 3.2a.381.381 0 0 1 0 .538l-3.2 3.2a.17.17 0 0 1-.291-.121v-1.968a.17.17 0 0 0-.169-.171H.136A.134.134 0 0 1 0 9.945V7.8a.134.134 0 0 1 .135-.14h10.353a.17.17 0 0 0 .17-.17V5.522a.17.17 0 0 1 .291-.118Z" fill="url(#bab75dcc-20a5-4ed7-b6cf-740b4f51e167)"></path></g><defs>
<linearGradient id="bab75dcc-20a5-4ed7-b6cf-740b4f51e167" x1="-2616.405" y1="1421.47" x2="-2623.437" y2="1421.47" gradientTransform="matrix(0 1 1 0 -1414.342 2628.79)" gradientUnits="userSpaceOnUse"><stop offset="0" stop-color="#773adc"></stop><stop offset="1" stop-color="#a67af4"></stop></linearGradient>
</defs>
</svg>